 999
SignTorch Vector Graphics - buck_mule_deer=.dxf
 999
copyright Gary DeWitt, signtorch.com
  0
SECTION
  2
HEADER
  9
$ACADVER
  1
AC1009
  9
$DWGCODEPAGE
  3
ansi_1252
  9
$INSBASE
 10
0.0
 20
0.0
 30
0.0
  9
$EXTMIN
 10
9.080110277777777
 20
8.001973410256987
 30
0.0
  9
$EXTMAX
 10
14.92015592652697
 20
15.99932860523506
 30
0.0
  9
$LIMMIN
 10
0.0
 20
0.0
  9
$LIMMAX
 10
12.0
 20
9.0
  9
$ORTHOMODE
 70
     0
  9
$REGENMODE
 70
     1
  9
$FILLMODE
 70
     1
  9
$QTEXTMODE
 70
     0
  9
$MIRRTEXT
 70
     1
  9
$DRAGMODE
 70
     2
  9
$LTSCALE
 40
1.0
  9
$OSMODE
 70
    37
  9
$ATTMODE
 70
     1
  9
$TEXTSIZE
 40
0.2
  9
$TRACEWID
 40
0.05
  9
$TEXTSTYLE
  7
STANDARD
  9
$CLAYER
  8
0
  9
$CELTYPE
  6
BYLAYER
  9
$CECOLOR
 62
   256
  9
$DIMSCALE
 40
1.0
  9
$DIMASZ
 40
0.18
  9
$DIMEXO
 40
0.0625
  9
$DIMDLI
 40
0.38
  9
$DIMRND
 40
0.0
  9
$DIMDLE
 40
0.0
  9
$DIMEXE
 40
0.18
  9
$DIMTP
 40
0.0
  9
$DIMTM
 40
0.0
  9
$DIMTXT
 40
0.18
  9
$DIMCEN
 40
0.09
  9
$DIMTSZ
 40
0.0
  9
$DIMTOL
 70
     0
  9
$DIMLIM
 70
     0
  9
$DIMTIH
 70
     1
  9
$DIMTOH
 70
     1
  9
$DIMSE1
 70
     0
  9
$DIMSE2
 70
     0
  9
$DIMTAD
 70
     0
  9
$DIMZIN
 70
     0
  9
$DIMBLK
  1

  9
$DIMASO
 70
     1
  9
$DIMSHO
 70
     1
  9
$DIMPOST
  1

  9
$DIMAPOST
  1

  9
$DIMALT
 70
     0
  9
$DIMALTD
 70
     2
  9
$DIMALTF
 40
25.4
  9
$DIMLFAC
 40
1.0
  9
$DIMTOFL
 70
     0
  9
$DIMTVP
 40
0.0
  9
$DIMTIX
 70
     0
  9
$DIMSOXD
 70
     0
  9
$DIMSAH
 70
     0
  9
$DIMBLK1
  1

  9
$DIMBLK2
  1

  9
$DIMSTYLE
  2
STANDARD
  9
$DIMCLRD
 70
     0
  9
$DIMCLRE
 70
     0
  9
$DIMCLRT
 70
     0
  9
$DIMTFAC
 40
1.0
  9
$DIMGAP
 40
0.09
  9
$LUNITS
 70
     2
  9
$LUPREC
 70
     4
  9
$SKETCHINC
 40
0.1
  9
$FILLETRAD
 40
0.5
  9
$AUNITS
 70
     0
  9
$AUPREC
 70
     0
  9
$MENU
  1
.
  9
$ELEVATION
 40
0.0
  9
$PELEVATION
 40
0.0
  9
$THICKNESS
 40
0.0
  9
$LIMCHECK
 70
     0
  9
$CHAMFERA
 40
0.5
  9
$CHAMFERB
 40
0.5
  9
$SKPOLY
 70
     0
  9
$TDCREATE
 40
2454910.5
  9
$TDUPDATE
 40
2456477.503346181
  9
$TDINDWG
 40
0.0000000116
  9
$TDUSRTIMER
 40
0.0000000116
  9
$USRTIMER
 70
     1
  9
$ANGBASE
 50
0.0
  9
$ANGDIR
 70
     0
  9
$PDMODE
 70
     0
  9
$PDSIZE
 40
0.0
  9
$PLINEWID
 40
0.0
  9
$COORDS
 70
     1
  9
$SPLFRAME
 70
     0
  9
$SPLINETYPE
 70
     6
  9
$SPLINESEGS
 70
     8
  9
$ATTDIA
 70
     0
  9
$ATTREQ
 70
     1
  9
$HANDLING
 70
     1
  9
$HANDSEED
  5
574
  9
$SURFTAB1
 70
     6
  9
$SURFTAB2
 70
     6
  9
$SURFTYPE
 70
     6
  9
$SURFU
 70
     6
  9
$SURFV
 70
     6
  9
$UCSNAME
  2

  9
$UCSORG
 10
0.0
 20
0.0
 30
0.0
  9
$UCSXDIR
 10
1.0
 20
0.0
 30
0.0
  9
$UCSYDIR
 10
0.0
 20
1.0
 30
0.0
  9
$PUCSNAME
  2

  9
$PUCSORG
 10
0.0
 20
0.0
 30
0.0
  9
$PUCSXDIR
 10
1.0
 20
0.0
 30
0.0
  9
$PUCSYDIR
 10
0.0
 20
1.0
 30
0.0
  9
$USERI1
 70
     0
  9
$USERI2
 70
     0
  9
$USERI3
 70
     0
  9
$USERI4
 70
     0
  9
$USERI5
 70
     0
  9
$USERR1
 40
0.0
  9
$USERR2
 40
0.0
  9
$USERR3
 40
0.0
  9
$USERR4
 40
0.0
  9
$USERR5
 40
0.0
  9
$WORLDVIEW
 70
     1
  9
$SHADEDGE
 70
     3
  9
$SHADEDIF
 70
    70
  9
$TILEMODE
 70
     1
  9
$MAXACTVP
 70
    64
  9
$PLIMCHECK
 70
     0
  9
$PEXTMIN
 10
1.000000000000000E+20
 20
1.000000000000000E+20
 30
1.000000000000000E+20
  9
$PEXTMAX
 10
-1.000000000000000E+20
 20
-1.000000000000000E+20
 30
-1.000000000000000E+20
  9
$PLIMMIN
 10
0.0
 20
0.0
  9
$PLIMMAX
 10
12.0
 20
9.0
  9
$UNITMODE
 70
     0
  9
$VISRETAIN
 70
     1
  9
$PLINEGEN
 70
     0
  9
$PSLTSCALE
 70
     1
  0
ENDSEC
  0
SECTION
  2
TABLES
  0
TABLE
  2
VPORT
 70
     1
  0
VPORT
  2
*ACTIVE
 70
     0
 10
0.0
 20
0.0
 11
1.0
 21
1.0
 12
10.42990654205607
 22
4.5
 13
0.0
 23
0.0
 14
0.5
 24
0.5
 15
0.5
 25
0.5
 16
0.0
 26
0.0
 36
1.0
 17
0.0
 27
0.0
 37
0.0
 40
9.0
 41
1.972972972850329
 42
50.0
 43
0.0
 44
0.0
 50
0.0
 51
0.0
 71
     0
 72
   100
 73
     1
 74
     3
 75
     0
 76
     0
 77
     0
 78
     0
  0
ENDTAB
  0
TABLE
  2
LTYPE
 70
     2
  0
LTYPE
  2
CONTINUOUS
 70
     0
  3
Solid line
 72
    65
 73
     0
 40
0.0
  0
LTYPE
  2
CONTINUOUS2
 70
     0
  3
Solid Line
 72
    65
 73
     0
 40
0.0
  0
ENDTAB
  0
TABLE
  2
LAYER
 70
     2
  0
LAYER
  2
0
 70
     0
 62
     7
  6
CONTINUOUS
  0
LAYER
  2
SignTorch_BUCK_MULE_DEER_
 70
     0
 62
    18
  6
CONTINUOUS
  0
ENDTAB
  0
TABLE
  2
STYLE
 70
     1
  0
STYLE
  2
STANDARD
 70
     0
 40
0.0
 41
1.0
 50
0.0
 71
     0
 42
0.2
  3
txt
  4

  0
ENDTAB
  0
TABLE
  2
VIEW
 70
     0
  0
ENDTAB
  0
TABLE
  2
UCS
 70
     0
  0
ENDTAB
  0
TABLE
  2
APPID
 70
     1
  0
APPID
  2
ACAD
 70
     0
  0
ENDTAB
  0
TABLE
  2
DIMSTYLE
 70
     1
  0
DIMSTYLE
  2
STANDARD
 70
     0
  3

  4

  5

  6

  7

 40
1.0
 41
0.18
 42
0.0625
 43
0.38
 44
0.18
 45
0.0
 46
0.0
 47
0.0
 48
0.0
140
0.18
141
0.09
142
0.0
143
25.4
144
1.0
145
0.0
146
1.0
147
0.09
 71
     0
 72
     0
 73
     1
 74
     1
 75
     0
 76
     0
 77
     0
 78
     0
170
     0
171
     2
172
     0
173
     0
174
     0
175
     0
176
     0
177
     0
178
     0
  0
ENDTAB
  0
ENDSEC
  0
SECTION
  2
BLOCKS
  0
BLOCK
  8
0
  2
$MODEL_SPACE
 70
     0
 10
0.0
 20
0.0
 30
0.0
  3
$MODEL_SPACE
  1

  0
ENDBLK
  5
21
  8
0
  0
BLOCK
 67
     1
  8
0
  2
$PAPER_SPACE
 70
     0
 10
0.0
 20
0.0
 30
0.0
  3
$PAPER_SPACE
  1

  0
ENDBLK
  5
1D
 67
     1
  8
0
  0
ENDSEC
  0
SECTION
  2
ENTITIES
  0
POLYLINE
  5
41
  8
SignTorch_BUCK_MULE_DEER_
 66
     1
 10
0.0
 20
0.0
 30
0.0
 70
     1
  0
VERTEX
  5
6A
  8
SignTorch_BUCK_MULE_DEER_
 10
9.863682543402776
 20
15.99418576005724
 30
0.0
 42
0.1512274425139876
  0
VERTEX
  5
6B
  8
SignTorch_BUCK_MULE_DEER_
 10
9.806803269409343
 20
15.95491811568017
 30
0.0
 42
0.0660546673619878
  0
VERTEX
  5
6C
  8
SignTorch_BUCK_MULE_DEER_
 10
9.769676928168401
 20
15.89219747880724
 30
0.0
 42
0.0191381662470827
  0
VERTEX
  5
6D
  8
SignTorch_BUCK_MULE_DEER_
 10
9.743539285692375
 20
15.82364749440483
 30
0.0
 42
0.0126288291363996
  0
VERTEX
  5
6E
  8
SignTorch_BUCK_MULE_DEER_
 10
9.691327318793402
 20
15.65530685380724
 30
0.0
 42
0.0072285484188338
  0
VERTEX
  5
6F
  8
SignTorch_BUCK_MULE_DEER_
 10
9.6418346048116
 20
15.47003145874623
 30
0.0
 42
-0.0111570041101452
  0
VERTEX
  5
70
  8
SignTorch_BUCK_MULE_DEER_
 10
9.590887865668401
 20
15.28515060380724
 30
0.0
 42
-0.0095741753721864
  0
VERTEX
  5
71
  8
SignTorch_BUCK_MULE_DEER_
 10
9.579191955858661
 20
15.24868250697656
 30
0.0
 42
0.0164588547118506
  0
VERTEX
  5
72
  8
SignTorch_BUCK_MULE_DEER_
 10
9.567999193793401
 20
15.21205685380724
 30
0.0
 42
0.0177885973737321
  0
VERTEX
  5
73
  8
SignTorch_BUCK_MULE_DEER_
 10
9.548731887657437
 20
15.12905723471954
 30
0.0
 42
-0.0398746363568672
  0
VERTEX
  5
74
  8
SignTorch_BUCK_MULE_DEER_
 10
9.5258214594184
 20
15.04698849443224
 30
0.0
 42
-0.0688753738063968
  0
VERTEX
  5
75
  8
SignTorch_BUCK_MULE_DEER_
 10
9.502255721722875
 20
15.00275099396724
 30
0.0
 42
-0.2713768615273052
  0
VERTEX
  5
76
  8
SignTorch_BUCK_MULE_DEER_
 10
9.489809496527776
 20
14.99728512529161
 30
0.0
 42
-0.2183690405459746
  0
VERTEX
  5
77
  8
SignTorch_BUCK_MULE_DEER_
 10
9.48097926029569
 20
15.00265263497475
 30
0.0
 42
-0.0903365962821556
  0
VERTEX
  5
78
  8
SignTorch_BUCK_MULE_DEER_
 10
9.4712999750434
 20
15.02465451005724
 30
0.0
 42
-0.0576587090333334
  0
VERTEX
  5
79
  8
SignTorch_BUCK_MULE_DEER_
 10
9.465581489426075
 20
15.07245185735228
 30
0.0
 42
-0.0274931985606773
  0
VERTEX
  5
7A
  8
SignTorch_BUCK_MULE_DEER_
 10
9.477217943793402
 20
15.30002560380724
 30
0.0
 42
-0.0354443258609673
  0
VERTEX
  5
7B
  8
SignTorch_BUCK_MULE_DEER_
 10
9.509512462869107
 20
15.48065480814652
 30
0.0
 42
-0.0154747507026781
  0
VERTEX
  5
7C
  8
SignTorch_BUCK_MULE_DEER_
 10
9.5629991937934
 20
15.66755685380724
 30
0.0
 42
-0.0000245480311019
  0
VERTEX
  5
7D
  8
SignTorch_BUCK_MULE_DEER_
 10
9.62005563919938
 20
15.8458466240037
 30
0.0
 42
0.073894574900444
  0
VERTEX
  5
7E
  8
SignTorch_BUCK_MULE_DEER_
 10
9.6276320062934
 20
15.89213180497911
 30
0.0
 42
0.1176845188589517
  0
VERTEX
  5
7F
  8
SignTorch_BUCK_MULE_DEER_
 10
9.619913661952298
 20
15.92671838744844
 30
0.0
 42
0.2598046182014803
  0
VERTEX
  5
80
  8
SignTorch_BUCK_MULE_DEER_
 10
9.591491381293402
 20
15.94652291826036
 30
0.0
 42
0.1624077212364038
  0
VERTEX
  5
81
  8
SignTorch_BUCK_MULE_DEER_
 10
9.558443511479078
 20
15.93907022761841
 30
0.0
 42
0.1052224753254
  0
VERTEX
  5
82
  8
SignTorch_BUCK_MULE_DEER_
 10
9.499561693793401
 20
15.88383224443224
 30
0.0
 42
0.0613453944339594
  0
VERTEX
  5
83
  8
SignTorch_BUCK_MULE_DEER_
 10
9.461654886765464
 20
15.8119190390191
 30
0.0
 42
0.0212083572553553
  0
VERTEX
  5
84
  8
SignTorch_BUCK_MULE_DEER_
 10
9.352921068793401
 20
15.48397872880724
 30
0.0
 42
0.0236612223730461
  0
VERTEX
  5
85
  8
SignTorch_BUCK_MULE_DEER_
 10
9.304545485752913
 20
15.27777621104704
 30
0.0
 42
0.0686886432617585
  0
VERTEX
  5
86
  8
SignTorch_BUCK_MULE_DEER_
 10
9.289987475043402
 20
14.96124240068224
 30
0.0
 42
0.0062604945699111
  0
VERTEX
  5
87
  8
SignTorch_BUCK_MULE_DEER_
 10
9.30737266891375
 20
14.79423231160531
 30
0.0
 42
-0.0214487739721084
  0
VERTEX
  5
88
  8
SignTorch_BUCK_MULE_DEER_
 10
9.313999193793402
 20
14.70405685380724
 30
0.0
 42
-0.1137648793590663
  0
VERTEX
  5
89
  8
SignTorch_BUCK_MULE_DEER_
 10
9.298099189204208
 20
14.62401513140809
 30
0.0
 42
-0.0379131639634585
  0
VERTEX
  5
8A
  8
SignTorch_BUCK_MULE_DEER_
 10
9.249749193793402
 20
14.53518185380724
 30
0.0
 42
-0.0106222796159094
  0
VERTEX
  5
8B
  8
SignTorch_BUCK_MULE_DEER_
 10
9.180849871692974
 20
14.43348721515097
 30
0.0
 42
0.0486049938054606
  0
VERTEX
  5
8C
  8
SignTorch_BUCK_MULE_DEER_
 10
9.147999193793401
 20
14.37605685380724
 30
0.0
 42
0.0467413641033431
  0
VERTEX
  5
8D
  8
SignTorch_BUCK_MULE_DEER_
 10
9.11140501690631
 20
14.26888311348389
 30
0.0
 42
0.05853484072882
  0
VERTEX
  5
8E
  8
SignTorch_BUCK_MULE_DEER_
 10
9.080110277777777
 20
14.00644161943224
 30
0.0
 42
0.0348594504804734
  0
VERTEX
  5
8F
  8
SignTorch_BUCK_MULE_DEER_
 10
9.089492263217455
 20
13.86856746591931
 30
0.0
 42
0.0996585434471912
  0
VERTEX
  5
90
  8
SignTorch_BUCK_MULE_DEER_
 10
9.158122240668401
 20
13.67224240068224
 30
0.0
 42
0.0613513097569612
  0
VERTEX
  5
91
  8
SignTorch_BUCK_MULE_DEER_
 10
9.274951926899728
 20
13.5209310084707
 30
0.0
 42
0.0470066173722195
  0
VERTEX
  5
92
  8
SignTorch_BUCK_MULE_DEER_
 10
9.465999193793401
 20
13.36105685380724
 30
0.0
 42
0.0023322797523038
  0
VERTEX
  5
93
  8
SignTorch_BUCK_MULE_DEER_
 10
9.539612045915234
 20
13.310890959936
 30
0.0
 42
-0.0556460385499443
  0
VERTEX
  5
94
  8
SignTorch_BUCK_MULE_DEER_
 10
9.59250456488715
 20
13.26591329911974
 30
0.0
 42
-0.0608285529864408
  0
VERTEX
  5
95
  8
SignTorch_BUCK_MULE_DEER_
 10
9.613261106045114
 20
13.23764805660903
 30
0.0
 42
-0.1891969908794419
  0
VERTEX
  5
96
  8
SignTorch_BUCK_MULE_DEER_
 10
9.620249193793402
 20
13.18730490068224
 30
0.0
 42
-0.0395979952526507
  0
VERTEX
  5
97
  8
SignTorch_BUCK_MULE_DEER_
 10
9.612032286456078
 20
13.16210517120777
 30
0.0
 42
0.1339420919138853
  0
VERTEX
  5
98
  8
SignTorch_BUCK_MULE_DEER_
 10
9.605757006293402
 20
13.11336910966661
 30
0.0
 42
0.0615693845038465
  0
VERTEX
  5
99
  8
SignTorch_BUCK_MULE_DEER_
 10
9.621772943612264
 20
13.05345963056077
 30
0.0
 42
0.0330752098530761
  0
VERTEX
  5
9A
  8
SignTorch_BUCK_MULE_DEER_
 10
9.737708422309026
 20
12.81366110185411
 30
0.0
 42
0.0630452160388421
  0
VERTEX
  5
9B
  8
SignTorch_BUCK_MULE_DEER_
 10
9.892356135046416
 20
12.60698473428404
 30
0.0
 42
-0.040015216289557
  0
VERTEX
  5
9C
  8
SignTorch_BUCK_MULE_DEER_
 10
9.933358568793402
 20
12.55713497880724
 30
0.0
 42
-0.064522018306487
  0
VERTEX
  5
9D
  8
SignTorch_BUCK_MULE_DEER_
 10
9.986265729924252
 20
12.45537808330439
 30
0.0
 42
0.0412307516050249
  0
VERTEX
  5
9E
  8
SignTorch_BUCK_MULE_DEER_
 10
10.01218205512153
 20
12.39931613115099
 30
0.0
 42
0.1238789185990835
  0
VERTEX
  5
9F
  8
SignTorch_BUCK_MULE_DEER_
 10
10.13102836369042
 20
12.27475794142359
 30
0.0
 42
0.0226778002606335
  0
VERTEX
  5
A0
  8
SignTorch_BUCK_MULE_DEER_
 10
10.2560304437934
 20
12.20368185380724
 30
0.0
 42
0.0058478003794792
  0
VERTEX
  5
A1
  8
SignTorch_BUCK_MULE_DEER_
 10
10.3392685331111
 20
12.16244503091801
 30
0.0
 42
-0.0170995845206119
  0
VERTEX
  5
A2
  8
SignTorch_BUCK_MULE_DEER_
 10
10.4215577875434
 20
12.11934591630724
 30
0.0
 42
0.0042921260359816
  0
VERTEX
  5
A3
  8
SignTorch_BUCK_MULE_DEER_
 10
10.48560192979706
 20
12.08368358740991
 30
0.0
 42
0.0354163595784042
  0
VERTEX
  5
A4
  8
SignTorch_BUCK_MULE_DEER_
 10
10.55775676215278
 20
12.05070602372911
 30
0.0
 42
0.0257411710865368
  0
VERTEX
  5
A5
  8
SignTorch_BUCK_MULE_DEER_
 10
10.66579836916353
 20
12.01652356340467
 30
0.0
 42
-0.039186497006995
  0
VERTEX
  5
A6
  8
SignTorch_BUCK_MULE_DEER_
 10
10.72346135199653
 20
11.99656100419786
 30
0.0
 42
-0.0702046889798557
  0
VERTEX
  5
A7
  8
SignTorch_BUCK_MULE_DEER_
 10
10.77713768504082
 20
11.96351926286344
 30
0.0
 42
-0.0966359141099708
  0
VERTEX
  5
A8
  8
SignTorch_BUCK_MULE_DEER_
 10
10.83039815009223
 20
11.89847912553575
 30
0.0
 42
-0.0597830939029395
  0
VERTEX
  5
A9
  8
SignTorch_BUCK_MULE_DEER_
 10
10.85562062088801
 20
11.83422361830853
 30
0.0
 42
-0.0734976173226628
  0
VERTEX
  5
AA
  8
SignTorch_BUCK_MULE_DEER_
 10
10.86167814887153
 20
11.77830050615099
 30
0.0
 42
-0.0601349261754319
  0
VERTEX
  5
AB
  8
SignTorch_BUCK_MULE_DEER_
 10
10.85096639749462
 20
11.71148190665876
 30
0.0
 42
-0.00986937448385
  0
VERTEX
  5
AC
  8
SignTorch_BUCK_MULE_DEER_
 10
10.8163644281684
 20
11.59915451005724
 30
0.0
 42
0.0142582082680473
  0
VERTEX
  5
AD
  8
SignTorch_BUCK_MULE_DEER_
 10
10.79349474348577
 20
11.52252943703034
 30
0.0
 42
0.0727683520758502
  0
VERTEX
  5
AE
  8
SignTorch_BUCK_MULE_DEER_
 10
10.78216960394965
 20
11.42554830888536
 30
0.0
 42
0.0495809151218171
  0
VERTEX
  5
AF
  8
SignTorch_BUCK_MULE_DEER_
 10
10.79596693451218
 20
11.31843999535882
 30
0.0
 42
-0.0465796857064656
  0
VERTEX
  5
B0
  8
SignTorch_BUCK_MULE_DEER_
 10
10.8104054437934
 20
11.21141622880724
 30
0.0
 42
-0.0440327492671421
  0
VERTEX
  5
B1
  8
SignTorch_BUCK_MULE_DEER_
 10
10.80503595507821
 20
11.09725837949163
 30
0.0
 42
0.0591740315550263
  0
VERTEX
  5
B2
  8
SignTorch_BUCK_MULE_DEER_
 10
10.80311613715278
 20
10.98299044755724
 30
0.0
 42
0.0488661382162587
  0
VERTEX
  5
B3
  8
SignTorch_BUCK_MULE_DEER_
 10
10.82201396520977
 20
10.88931496696469
 30
0.0
 42
-0.0466322008418801
  0
VERTEX
  5
B4
  8
SignTorch_BUCK_MULE_DEER_
 10
10.83241447699653
 20
10.83892013505724
 30
0.0
 42
-0.0983597302948167
  0
VERTEX
  5
B5
  8
SignTorch_BUCK_MULE_DEER_
 10
10.82445606599286
 20
10.74635185420596
 30
0.0
 42
-0.0367084394783308
  0
VERTEX
  5
B6
  8
SignTorch_BUCK_MULE_DEER_
 10
10.78688273871528
 20
10.64506857255724
 30
0.0
 42
-0.0151441855222129
  0
VERTEX
  5
B7
  8
SignTorch_BUCK_MULE_DEER_
 10
10.7252070214581
 20
10.52024065299723
 30
0.0
 42
0.0382008022588237
  0
VERTEX
  5
B8
  8
SignTorch_BUCK_MULE_DEER_
 10
10.66934660590278
 20
10.39270431474474
 30
0.0
 42
0.0447331466427053
  0
VERTEX
  5
B9
  8
SignTorch_BUCK_MULE_DEER_
 10
10.63703501848579
 20
10.26458941197201
 30
0.0
 42
0.0023895482186549
  0
VERTEX
  5
BA
  8
SignTorch_BUCK_MULE_DEER_
 10
10.6159991937934
 20
10.12805685380724
 30
0.0
 42
-0.017792339885049
  0
VERTEX
  5
BB
  8
SignTorch_BUCK_MULE_DEER_
 10
10.57234531313806
 20
9.893062052744236
 30
0.0
 42
0.0371262442153558
  0
VERTEX
  5
BC
  8
SignTorch_BUCK_MULE_DEER_
 10
10.5537433344184
 20
9.765703338182238
 30
0.0
 42
0.0338700726379732
  0
VERTEX
  5
BD
  8
SignTorch_BUCK_MULE_DEER_
 10
10.55334094639136
 20
9.635964220425693
 30
0.0
 42
0.0313449630628363
  0
VERTEX
  5
BE
  8
SignTorch_BUCK_MULE_DEER_
 10
10.5832042719184
 20
9.402609588182239
 30
0.0
 42
0.0622278736158806
  0
VERTEX
  5
BF
  8
SignTorch_BUCK_MULE_DEER_
 10
10.68879489447009
 20
9.077732102256435
 30
0.0
 42
0.1057840095305841
  0
VERTEX
  5
C0
  8
SignTorch_BUCK_MULE_DEER_
 10
10.92617180121528
 20
8.765041228807238
 30
0.0
 42
0.0254537858045121
  0
VERTEX
  5
C1
  8
SignTorch_BUCK_MULE_DEER_
 10
11.03374260443205
 20
8.681591361494288
 30
0.0
 42
0.0154601666209241
  0
VERTEX
  5
C2
  8
SignTorch_BUCK_MULE_DEER_
 10
11.2214073969184
 20
8.559181853807237
 30
0.0
 42
0.0030377410425416
  0
VERTEX
  5
C3
  8
SignTorch_BUCK_MULE_DEER_
 10
11.46366139395163
 20
8.41364432480514
 30
0.0
 42
-0.0299573084429809
  0
VERTEX
  5
C4
  8
SignTorch_BUCK_MULE_DEER_
 10
11.62021769965278
 20
8.307728728807238
 30
0.0
 42
-0.0313281935728732
  0
VERTEX
  5
C5
  8
SignTorch_BUCK_MULE_DEER_
 10
11.68564494389297
 20
8.250652359136595
 30
0.0
 42
-0.0468143688186902
  0
VERTEX
  5
C6
  8
SignTorch_BUCK_MULE_DEER_
 10
11.7229991937934
 20
8.206056853807238
 30
0.0
 42
-0.0241474127804032
  0
VERTEX
  5
C7
  8
SignTorch_BUCK_MULE_DEER_
 10
11.77883264761378
 20
8.116087962068493
 30
0.0
 42
0.0715194518060891
  0
VERTEX
  5
C8
  8
SignTorch_BUCK_MULE_DEER_
 10
11.8133497797309
 20
8.070676238572863
 30
0.0
 42
0.1298263748767942
  0
VERTEX
  5
C9
  8
SignTorch_BUCK_MULE_DEER_
 10
11.86111239008029
 20
8.043337900692523
 30
0.0
 42
0.0939294286220739
  0
VERTEX
  5
CA
  8
SignTorch_BUCK_MULE_DEER_
 10
11.9024366937934
 20
8.040259978807239
 30
0.0
 42
0.0901088165126429
  0
VERTEX
  5
CB
  8
SignTorch_BUCK_MULE_DEER_
 10
11.97694040444893
 20
8.062711818611001
 30
0.0
 42
0.0146244323900003
  0
VERTEX
  5
CC
  8
SignTorch_BUCK_MULE_DEER_
 10
12.0957511469184
 20
8.127877166307238
 30
0.0
 42
-0.003000420141038
  0
VERTEX
  5
CD
  8
SignTorch_BUCK_MULE_DEER_
 10
12.17836736403189
 20
8.175721492796619
 30
0.0
 42
-0.0648270137994353
  0
VERTEX
  5
CE
  8
SignTorch_BUCK_MULE_DEER_
 10
12.2151241937934
 20
8.190806853807238
 30
0.0
 42
-0.0831781293273701
  0
VERTEX
  5
CF
  8
SignTorch_BUCK_MULE_DEER_
 10
12.26334007247024
 20
8.195352586918561
 30
0.0
 42
-0.0144659803923145
  0
VERTEX
  5
D0
  8
SignTorch_BUCK_MULE_DEER_
 10
12.3450441156684
 20
8.187080291307236
 30
0.0
 42
-0.011173599319041
  0
VERTEX
  5
D1
  8
SignTorch_BUCK_MULE_DEER_
 10
12.47306568305122
 20
8.167446240578101
 30
0.0
 42
-0.0291991515010521
  0
VERTEX
  5
D2
  8
SignTorch_BUCK_MULE_DEER_
 10
12.67061784613715
 20
8.120584441697861
 30
0.0
 42
-0.015728093987071
  0
VERTEX
  5
D3
  8
SignTorch_BUCK_MULE_DEER_
 10
12.88841398574708
 20
8.047745545668358
 30
0.0
 42
0.0339913895105223
  0
VERTEX
  5
D4
  8
SignTorch_BUCK_MULE_DEER_
 10
13.0070499750434
 20
8.012828338182237
 30
0.0
 42
0.0676701696580652
  0
VERTEX
  5
D5
  8
SignTorch_BUCK_MULE_DEER_
 10
13.13050738838261
 20
8.00253928194201
 30
0.0
 42
0.1389885435178592
  0
VERTEX
  5
D6
  8
SignTorch_BUCK_MULE_DEER_
 10
13.2494991937934
 20
8.043056853807238
 30
0.0
 42
0.0300454164884
  0
VERTEX
  5
D7
  8
SignTorch_BUCK_MULE_DEER_
 10
13.29982289122649
 20
8.082475302229644
 30
0.0
 42
-0.0491573426417995
  0
VERTEX
  5
D8
  8
SignTorch_BUCK_MULE_DEER_
 10
13.3959991937934
 20
8.152056853807238
 30
0.0
 42
-0.0199570983516588
  0
VERTEX
  5
D9
  8
SignTorch_BUCK_MULE_DEER_
 10
13.50858279036983
 20
8.211842662017606
 30
0.0
 42
0.0255745648298171
  0
VERTEX
  5
DA
  8
SignTorch_BUCK_MULE_DEER_
 10
13.62048796332465
 20
8.272888885057238
 30
0.0
 42
0.0462993905926675
  0
VERTEX
  5
DB
  8
SignTorch_BUCK_MULE_DEER_
 10
13.70708879793446
 20
8.337780636819884
 30
0.0
 42
0.1121422110323202
  0
VERTEX
  5
DC
  8
SignTorch_BUCK_MULE_DEER_
 10
13.80778874457465
 20
8.481295135057238
 30
0.0
 42
0.0728399178406196
  0
VERTEX
  5
DD
  8
SignTorch_BUCK_MULE_DEER_
 10
13.8441383132832
 20
8.62788053748007
 30
0.0
 42
0.0305718519899627
  0
VERTEX
  5
DE
  8
SignTorch_BUCK_MULE_DEER_
 10
13.85012053168403
 20
8.791593963182237
 30
0.0
 42
0.0062091905329414
  0
VERTEX
  5
DF
  8
SignTorch_BUCK_MULE_DEER_
 10
13.84496598829338
 20
8.930773300482418
 30
0.0
 42
-0.029677389931425
  0
VERTEX
  5
E0
  8
SignTorch_BUCK_MULE_DEER_
 10
13.8463448969184
 20
9.070041228807238
 30
0.0
 42
-0.0632010300405111
  0
VERTEX
  5
E1
  8
SignTorch_BUCK_MULE_DEER_
 10
13.88516497944923
 20
9.266101655715207
 30
0.0
 42
-0.0695003547566687
  0
VERTEX
  5
E2
  8
SignTorch_BUCK_MULE_DEER_
 10
13.9659991937934
 20
9.429056853807237
 30
0.0
 42
-0.0575969440402627
  0
VERTEX
  5
E3
  8
SignTorch_BUCK_MULE_DEER_
 10
13.99875014462692
 20
9.466828271804236
 30
0.0
 42
0.0555695915248673
  0
VERTEX
  5
E4
  8
SignTorch_BUCK_MULE_DEER_
 10
14.0316534906684
 20
9.504467010057237
 30
0.0
 42
0.2301533226609969
  0
VERTEX
  5
E5
  8
SignTorch_BUCK_MULE_DEER_
 10
14.04328644040768
 20
9.578956777395339
 30
0.0
 42
0.0593035310070838
  0
VERTEX
  5
E6
  8
SignTorch_BUCK_MULE_DEER_
 10
14.02042717230903
 20
9.630702849900988
 30
0.0
 42
0.0342822766442157
  0
VERTEX
  5
E7
  8
SignTorch_BUCK_MULE_DEER_
 10
13.98022382255152
 20
9.689093120359244
 30
0.0
 42
0.0267316569681774
  0
VERTEX
  5
E8
  8
SignTorch_BUCK_MULE_DEER_
 10
13.91996330512153
 20
9.75711447099474
 30
0.0
 42
0.0527849157316127
  0
VERTEX
  5
E9
  8
SignTorch_BUCK_MULE_DEER_
 10
13.80647305537825
 20
9.850192158421235
 30
0.0
 42
0.0378415108167375
  0
VERTEX
  5
EA
  8
SignTorch_BUCK_MULE_DEER_
 10
13.6276105219184
 20
9.949252166307236
 30
0.0
 42
0.0183626439564575
  0
VERTEX
  5
EB
  8
SignTorch_BUCK_MULE_DEER_
 10
13.46037195751075
 20
10.01866462927105
 30
0.0
 42
-0.0532645934127477
  0
VERTEX
  5
EC
  8
SignTorch_BUCK_MULE_DEER_
 10
13.2983741937934
 20
10.09955685380724
 30
0.0
 42
-0.0050455091549079
  0
VERTEX
  5
ED
  8
SignTorch_BUCK_MULE_DEER_
 10
13.24393664780534
 20
10.13519463707044
 30
0.0
 42
0.0121368373323275
  0
VERTEX
  5
EE
  8
SignTorch_BUCK_MULE_DEER_
 10
13.1889991937934
 20
10.17005685380724
 30
0.0
 42
0.0015214736872343
  0
VERTEX
  5
EF
  8
SignTorch_BUCK_MULE_DEER_
 10
13.04286791473851
 20
10.25728387414909
 30
0.0
 42
-0.036329442887314
  0
VERTEX
  5
F0
  8
SignTorch_BUCK_MULE_DEER_
 10
12.93397429144965
 20
10.33302389482286
 30
0.0
 42
-0.051986060612303
  0
VERTEX
  5
F1
  8
SignTorch_BUCK_MULE_DEER_
 10
12.84421617485847
 20
10.42257306796775
 30
0.0
 42
-0.1248248932575506
  0
VERTEX
  5
F2
  8
SignTorch_BUCK_MULE_DEER_
 10
12.75747819769965
 20
10.60956491044786
 30
0.0
 42
-0.0476385099418079
  0
VERTEX
  5
F3
  8
SignTorch_BUCK_MULE_DEER_
 10
12.74883051602651
 20
10.70459498051482
 30
0.0
 42
0.0128178187594288
  0
VERTEX
  5
F4
  8
SignTorch_BUCK_MULE_DEER_
 10
12.7468097406684
 20
10.79999630693224
 30
0.0
 42
0.0199030628307015
  0
VERTEX
  5
F5
  8
SignTorch_BUCK_MULE_DEER_
 10
12.7432177295927
 20
10.84136414063863
 30
0.0
 42
0.0186610641055692
  0
VERTEX
  5
F6
  8
SignTorch_BUCK_MULE_DEER_
 10
12.7359991937934
 20
10.88505685380724
 30
0.0
 42
-0.0322942644826651
  0
VERTEX
  5
F7
  8
SignTorch_BUCK_MULE_DEER_
 10
12.73066466172482
 20
10.92389921850031
 30
0.0
 42
-0.1056307987982895
  0
VERTEX
  5
F8
  8
SignTorch_BUCK_MULE_DEER_
 10
12.7383741937934
 20
10.97918185380724
 30
0.0
 42
-0.0207894701860349
  0
VERTEX
  5
F9
  8
SignTorch_BUCK_MULE_DEER_
 10
12.75007247166226
 20
11.00759115067834
 30
0.0
 42
0.0655310753669741
  0
VERTEX
  5
FA
  8
SignTorch_BUCK_MULE_DEER_
 10
12.7669991937934
 20
11.06205685380724
 30
0.0
 42
0.0091710833082909
  0
VERTEX
  5
FB
  8
SignTorch_BUCK_MULE_DEER_
 10
12.77982102605834
 20
11.14570543816238
 30
0.0
 42
0.0092822152982397
  0
VERTEX
  5
FC
  8
SignTorch_BUCK_MULE_DEER_
 10
12.8060031000434
 20
11.37198849443224
 30
0.0
 42
0.0126644310650414
  0
VERTEX
  5
FD
  8
SignTorch_BUCK_MULE_DEER_
 10
12.81459551127584
 20
11.49229263225122
 30
0.0
 42
0.0481305070545554
  0
VERTEX
  5
FE
  8
SignTorch_BUCK_MULE_DEER_
 10
12.8129991937934
 20
11.52405685380724
 30
0.0
 42
0.0496933853164493
  0
VERTEX
  5
FF
  8
SignTorch_BUCK_MULE_DEER_
 10
12.79083424627694
 20
11.61244381371908
 30
0.0
 42
-0.149852350926524
  0
VERTEX
  5
100
  8
SignTorch_BUCK_MULE_DEER_
 10
12.78849894965277
 20
11.66155148271349
 30
0.0
 42
-0.0826312143409128
  0
VERTEX
  5
101
  8
SignTorch_BUCK_MULE_DEER_
 10
12.80912046792693
 20
11.70837369808628
 30
0.0
 42
0.0963789250219217
  0
VERTEX
  5
102
  8
SignTorch_BUCK_MULE_DEER_
 10
12.8450304437934
 20
11.79633810380724
 30
0.0
 42
0.0012495487320568
  0
VERTEX
  5
103
  8
SignTorch_BUCK_MULE_DEER_
 10
12.85710065137954
 20
11.85812578312602
 30
0.0
 42
-0.1631277927027078
  0
VERTEX
  5
104
  8
SignTorch_BUCK_MULE_DEER_
 10
12.8832179437934
 20
11.90440060380724
 30
0.0
 42
-0.1919693093820037
  0
VERTEX
  5
105
  8
SignTorch_BUCK_MULE_DEER_
 10
12.92962718274636
 20
11.92156450218683
 30
0.0
 42
0.0117813769459844
  0
VERTEX
  5
106
  8
SignTorch_BUCK_MULE_DEER_
 10
12.9961241937934
 20
11.92146310380724
 30
0.0
 42
0.0913445835531112
  0
VERTEX
  5
107
  8
SignTorch_BUCK_MULE_DEER_
 10
13.05804360308925
 20
11.93428708659238
 30
0.0
 42
0.0040299470338664
  0
VERTEX
  5
108
  8
SignTorch_BUCK_MULE_DEER_
 10
13.1991085687934
 20
11.99300997880724
 30
0.0
 42
-0.0073861581288188
  0
VERTEX
  5
109
  8
SignTorch_BUCK_MULE_DEER_
 10
13.31509325184171
 20
12.04038149561771
 30
0.0
 42
-0.0133770602847187
  0
VERTEX
  5
10A
  8
SignTorch_BUCK_MULE_DEER_
 10
13.3801730219184
 20
12.06385958818224
 30
0.0
 42
0.0024502578521354
  0
VERTEX
  5
10B
  8
SignTorch_BUCK_MULE_DEER_
 10
13.4707694898151
 20
12.09432283101332
 30
0.0
 42
0.1020948201424613
  0
VERTEX
  5
10C
  8
SignTorch_BUCK_MULE_DEER_
 10
13.5450519281684
 20
12.13812203935411
 30
0.0
 42
0.0996595151171516
  0
VERTEX
  5
10D
  8
SignTorch_BUCK_MULE_DEER_
 10
13.59223973996346
 20
12.20204720968059
 30
0.0
 42
-0.0614010310829724
  0
VERTEX
  5
10E
  8
SignTorch_BUCK_MULE_DEER_
 10
13.6344366937934
 20
12.26937130693224
 30
0.0
 42
-0.0438218283583685
  0
VERTEX
  5
10F
  8
SignTorch_BUCK_MULE_DEER_
 10
13.67095621566109
 20
12.30702494321113
 30
0.0
 42
-0.0149715683141469
  0
VERTEX
  5
110
  8
SignTorch_BUCK_MULE_DEER_
 10
13.9264210687934
 20
12.51494747880724
 30
0.0
 42
-0.0133770869334931
  0
VERTEX
  5
111
  8
SignTorch_BUCK_MULE_DEER_
 10
14.04459752386574
 20
12.6004734920861
 30
0.0
 42
0.0326799289242145
  0
VERTEX
  5
112
  8
SignTorch_BUCK_MULE_DEER_
 10
14.10641179144965
 20
12.64894992021349
 30
0.0
 42
0.0737518682346173
  0
VERTEX
  5
113
  8
SignTorch_BUCK_MULE_DEER_
 10
14.14517666546129
 20
12.69561605754497
 30
0.0
 42
0.0843115883813019
  0
VERTEX
  5
114
  8
SignTorch_BUCK_MULE_DEER_
 10
14.1647804437934
 20
12.74502560380724
 30
0.0
 42
0.0623396737464994
  0
VERTEX
  5
115
  8
SignTorch_BUCK_MULE_DEER_
 10
14.17051385821731
 20
12.81234092365712
 30
0.0
 42
-0.0288397799887847
  0
VERTEX
  5
116
  8
SignTorch_BUCK_MULE_DEER_
 10
14.1717374750434
 20
12.87988888505724
 30
0.0
 42
-0.0745065665843187
  0
VERTEX
  5
117
  8
SignTorch_BUCK_MULE_DEER_
 10
14.18215404263836
 20
12.92550262340702
 30
0.0
 42
-0.1096620440639687
  0
VERTEX
  5
118
  8
SignTorch_BUCK_MULE_DEER_
 10
14.1999991937934
 20
12.95205685380724
 30
0.0
 42
-0.0388881867445889
  0
VERTEX
  5
119
  8
SignTorch_BUCK_MULE_DEER_
 10
14.27134391917367
 20
13.01009402250556
 30
0.0
 42
-0.0210417652916911
  0
VERTEX
  5
11A
  8
SignTorch_BUCK_MULE_DEER_
 10
14.4149210687934
 20
13.10072872880724
 30
0.0
 42
-0.0030351281937108
  0
VERTEX
  5
11B
  8
SignTorch_BUCK_MULE_DEER_
 10
14.56637524166563
 20
13.18643127506847
 30
0.0
 42
0.0255711507105755
  0
VERTEX
  5
11C
  8
SignTorch_BUCK_MULE_DEER_
 10
14.66025209296332
 20
13.2452876582506
 30
0.0
 42
0.0491446917580472
  0
VERTEX
  5
11D
  8
SignTorch_BUCK_MULE_DEER_
 10
14.76925023808419
 20
13.33885044687581
 30
0.0
 42
0.1152002599864619
  0
VERTEX
  5
11E
  8
SignTorch_BUCK_MULE_DEER_
 10
14.88949171698676
 20
13.54226898149279
 30
0.0
 42
0.075911663885811
  0
VERTEX
  5
11F
  8
SignTorch_BUCK_MULE_DEER_
 10
14.92015592652697
 20
13.74121413155545
 30
0.0
 42
0.0829284300177399
  0
VERTEX
  5
120
  8
SignTorch_BUCK_MULE_DEER_
 10
14.8680148187934
 20
14.05613497880724
 30
0.0
 42
0.0389465407526044
  0
VERTEX
  5
121
  8
SignTorch_BUCK_MULE_DEER_
 10
14.82609097771497
 20
14.15328025455952
 30
0.0
 42
0.0103949350737475
  0
VERTEX
  5
122
  8
SignTorch_BUCK_MULE_DEER_
 10
14.7881769281684
 20
14.22169357255724
 30
0.0
 42
-0.0113172700460531
  0
VERTEX
  5
123
  8
SignTorch_BUCK_MULE_DEER_
 10
14.75232037302461
 20
14.28667669427587
 30
0.0
 42
-0.147325947639824
  0
VERTEX
  5
124
  8
SignTorch_BUCK_MULE_DEER_
 10
14.73836271918402
 20
14.35963351396349
 30
0.0
 42
-0.0719341731203544
  0
VERTEX
  5
125
  8
SignTorch_BUCK_MULE_DEER_
 10
14.75343196929031
 20
14.41936191768586
 30
0.0
 42
0.0224398573411723
  0
VERTEX
  5
126
  8
SignTorch_BUCK_MULE_DEER_
 10
14.77431633246528
 20
14.47731368974474
 30
0.0
 42
0.0409388737647391
  0
VERTEX
  5
127
  8
SignTorch_BUCK_MULE_DEER_
 10
14.79489998944394
 20
14.5697157382336
 30
0.0
 42
0.0353307096210414
  0
VERTEX
  5
128
  8
SignTorch_BUCK_MULE_DEER_
 10
14.8138527094184
 20
14.85336154130724
 30
0.0
 42
0.0240115149831973
  0
VERTEX
  5
129
  8
SignTorch_BUCK_MULE_DEER_
 10
14.80637865591994
 20
14.99716668648098
 30
0.0
 42
0.0165100324888562
  0
VERTEX
  5
12A
  8
SignTorch_BUCK_MULE_DEER_
 10
14.7786241937934
 20
15.20468185380724
 30
0.0
 42
0.0081910749795316
  0
VERTEX
  5
12B
  8
SignTorch_BUCK_MULE_DEER_
 10
14.71061469946107
 20
15.57348673623957
 30
0.0
 42
0.0425519775923578
  0
VERTEX
  5
12C
  8
SignTorch_BUCK_MULE_DEER_
 10
14.6903663812934
 20
15.64291036943224
 30
0.0
 42
0.0630334189164962
  0
VERTEX
  5
12D
  8
SignTorch_BUCK_MULE_DEER_
 10
14.66887269751609
 20
15.68275059052356
 30
0.0
 42
0.3085243732272056
  0
VERTEX
  5
12E
  8
SignTorch_BUCK_MULE_DEER_
 10
14.6163566156684
 20
15.70201779130724
 30
0.0
 42
0.2267519681668566
  0
VERTEX
  5
12F
  8
SignTorch_BUCK_MULE_DEER_
 10
14.58796078089114
 20
15.67844550344617
 30
0.0
 42
0.0662192910081021
  0
VERTEX
  5
130
  8
SignTorch_BUCK_MULE_DEER_
 10
14.5736241937934
 20
15.63205685380724
 30
0.0
 42
0.0325653696484613
  0
VERTEX
  5
131
  8
SignTorch_BUCK_MULE_DEER_
 10
14.56897051014852
 20
15.58676475114775
 30
0.0
 42
0.0121622073968296
  0
VERTEX
  5
132
  8
SignTorch_BUCK_MULE_DEER_
 10
14.56739226019965
 20
15.46497409013536
 30
0.0
 42
0.0261467890114385
  0
VERTEX
  5
133
  8
SignTorch_BUCK_MULE_DEER_
 10
14.57428857825278
 20
15.35676766061698
 30
0.0
 42
0.0112663865041229
  0
VERTEX
  5
134
  8
SignTorch_BUCK_MULE_DEER_
 10
14.6089991937934
 20
15.10768185380724
 30
0.0
 42
-0.000143308204418
  0
VERTEX
  5
135
  8
SignTorch_BUCK_MULE_DEER_
 10
14.64217192876223
 20
14.90304263187134
 30
0.0
 42
-0.0388469701884661
  0
VERTEX
  5
136
  8
SignTorch_BUCK_MULE_DEER_
 10
14.64830925238715
 20
14.82905758622912
 30
0.0
 42
-0.1214378726903371
  0
VERTEX
  5
137
  8
SignTorch_BUCK_MULE_DEER_
 10
14.63872156819254
 20
14.78929086764953
 30
0.0
 42
-0.3299807414415161
  0
VERTEX
  5
138
  8
SignTorch_BUCK_MULE_DEER_
 10
14.62394499457465
 20
14.78206051591661
 30
0.0
 42
-0.1827918217756209
  0
VERTEX
  5
139
  8
SignTorch_BUCK_MULE_DEER_
 10
14.60848363768894
 20
14.79141260145845
 30
0.0
 42
-0.0869624700609436
  0
VERTEX
  5
13A
  8
SignTorch_BUCK_MULE_DEER_
 10
14.5909991937934
 20
14.82405685380724
 30
0.0
 42
-0.0268429565697985
  0
VERTEX
  5
13B
  8
SignTorch_BUCK_MULE_DEER_
 10
14.57814596557552
 20
14.87150085877651
 30
0.0
 42
-0.001295461695735
  0
VERTEX
  5
13C
  8
SignTorch_BUCK_MULE_DEER_
 10
14.5374991937934
 20
15.06380685380724
 30
0.0
 42
-0.0064709071742381
  0
VERTEX
  5
13D
  8
SignTorch_BUCK_MULE_DEER_
 10
14.45108024955118
 20
15.506548619216
 30
0.0
 42
0.0224573858702392
  0
VERTEX
  5
13E
  8
SignTorch_BUCK_MULE_DEER_
 10
14.4259464594184
 20
15.61649826005724
 30
0.0
 42
0.0611341780316728
  0
VERTEX
  5
13F
  8
SignTorch_BUCK_MULE_DEER_
 10
14.38453837386198
 20
15.71673352033888
 30
0.0
 42
0.1237916788242583
  0
VERTEX
  5
140
  8
SignTorch_BUCK_MULE_DEER_
 10
14.36000920355903
 20
15.74253097490099
 30
0.0
 42
0.1746581716903032
  0
VERTEX
  5
141
  8
SignTorch_BUCK_MULE_DEER_
 10
14.33947325516964
 20
15.74708949416321
 30
0.0
 42
0.1820557883685306
  0
VERTEX
  5
142
  8
SignTorch_BUCK_MULE_DEER_
 10
14.32159807074652
 20
15.73761105302599
 30
0.0
 42
0.1335057576417105
  0
VERTEX
  5
143
  8
SignTorch_BUCK_MULE_DEER_
 10
14.30217246571685
 20
15.69816806637492
 30
0.0
 42
0.0627153851396762
  0
VERTEX
  5
144
  8
SignTorch_BUCK_MULE_DEER_
 10
14.2959991937934
 20
15.60605685380724
 30
0.0
 42
0.041149683924663
  0
VERTEX
  5
145
  8
SignTorch_BUCK_MULE_DEER_
 10
14.32354370705646
 20
15.41144252524786
 30
0.0
 42
0.0052235697266181
  0
VERTEX
  5
146
  8
SignTorch_BUCK_MULE_DEER_
 10
14.3651202875434
 20
15.23647677568224
 30
0.0
 42
-0.0084771721841505
  0
VERTEX
  5
147
  8
SignTorch_BUCK_MULE_DEER_
 10
14.39550299092769
 20
15.10481493515962
 30
0.0
 42
-0.0134489757702176
  0
VERTEX
  5
148
  8
SignTorch_BUCK_MULE_DEER_
 10
14.4109991937934
 20
15.02105685380724
 30
0.0
 42
0.0027104017546734
  0
VERTEX
  5
149
  8
SignTorch_BUCK_MULE_DEER_
 10
14.43065117055101
 20
14.90040769169905
 30
0.0
 42
0.0266425963148486
  0
VERTEX
  5
14A
  8
SignTorch_BUCK_MULE_DEER_
 10
14.4585773187934
 20
14.77561935380724
 30
0.0
 42
-0.0016905574415689
  0
VERTEX
  5
14B
  8
SignTorch_BUCK_MULE_DEER_
 10
14.49170198507501
 20
14.6559554870867
 30
0.0
 42
-0.0475006730241198
  0
VERTEX
  5
14C
  8
SignTorch_BUCK_MULE_DEER_
 10
14.51129484809028
 20
14.54299557451036
 30
0.0
 42
-0.0569254813267699
  0
VERTEX
  5
14D
  8
SignTorch_BUCK_MULE_DEER_
 10
14.50921285356799
 20
14.48662483142461
 30
0.0
 42
-0.1610947773881167
  0
VERTEX
  5
14E
  8
SignTorch_BUCK_MULE_DEER_
 10
14.49997941840278
 20
14.46845162919786
 30
0.0
 42
-0.2813371390667067
  0
VERTEX
  5
14F
  8
SignTorch_BUCK_MULE_DEER_
 10
14.47905118641705
 20
14.46349035702508
 30
0.0
 42
-0.1143914493447042
  0
VERTEX
  5
150
  8
SignTorch_BUCK_MULE_DEER_
 10
14.4365480219184
 20
14.48917208818224
 30
0.0
 42
-0.0369342624059667
  0
VERTEX
  5
151
  8
SignTorch_BUCK_MULE_DEER_
 10
14.40162010440177
 20
14.52854509779494
 30
0.0
 42
-0.002178442163341
  0
VERTEX
  5
152
  8
SignTorch_BUCK_MULE_DEER_
 10
14.3282960687934
 20
14.62550997880724
 30
0.0
 42
0.0309770249042482
  0
VERTEX
  5
153
  8
SignTorch_BUCK_MULE_DEER_
 10
14.23127822552823
 20
14.73952487712888
 30
0.0
 42
-0.0253202022417097
  0
VERTEX
  5
154
  8
SignTorch_BUCK_MULE_DEER_
 10
14.1329777094184
 20
14.85243576005724
 30
0.0
 42
-0.0173498830371819
  0
VERTEX
  5
155
  8
SignTorch_BUCK_MULE_DEER_
 10
14.09887929020455
 20
14.89910373115784
 30
0.0
 42
-0.01013580508632
  0
VERTEX
  5
156
  8
SignTorch_BUCK_MULE_DEER_
 10
14.0449991937934
 20
14.98205685380724
 30
0.0
 42
0.0121104955471234
  0
VERTEX
  5
157
  8
SignTorch_BUCK_MULE_DEER_
 10
13.95259668845736
 20
15.12309622980454
 30
0.0
 42
0.0603927969782326
  0
VERTEX
  5
158
  8
SignTorch_BUCK_MULE_DEER_
 10
13.8827179437934
 20
15.20199435380724
 30
0.0
 42
0.0853185848107129
  0
VERTEX
  5
159
  8
SignTorch_BUCK_MULE_DEER_
 10
13.82341763438304
 20
15.23876775933588
 30
0.0
 42
0.1931991455422296
  0
VERTEX
  5
15A
  8
SignTorch_BUCK_MULE_DEER_
 10
13.79168449652778
 20
15.23886813310411
 30
0.0
 42
0.2149878104074457
  0
VERTEX
  5
15B
  8
SignTorch_BUCK_MULE_DEER_
 10
13.77519430725529
 20
15.22181901249139
 30
0.0
 42
0.1103909056850974
  0
VERTEX
  5
15C
  8
SignTorch_BUCK_MULE_DEER_
 10
13.7696085687934
 20
15.17747872880724
 30
0.0
 42
0.0600657569128507
  0
VERTEX
  5
15D
  8
SignTorch_BUCK_MULE_DEER_
 10
13.77881538096354
 20
15.13522996494045
 30
0.0
 42
0.016599063343888
  0
VERTEX
  5
15E
  8
SignTorch_BUCK_MULE_DEER_
 10
13.8601085687934
 20
14.92422872880724
 30
0.0
 42
0.0375254861128547
  0
VERTEX
  5
15F
  8
SignTorch_BUCK_MULE_DEER_
 10
13.93062659762624
 20
14.78742906274592
 30
0.0
 42
0.0336795468159504
  0
VERTEX
  5
160
  8
SignTorch_BUCK_MULE_DEER_
 10
14.0299991937934
 20
14.64773458818224
 30
0.0
 42
0.0103382600364309
  0
VERTEX
  5
161
  8
SignTorch_BUCK_MULE_DEER_
 10
14.15613519938969
 20
14.49988622223576
 30
0.0
 42
-0.0335862402130669
  0
VERTEX
  5
162
  8
SignTorch_BUCK_MULE_DEER_
 10
14.2752667719184
 20
14.34633785966661
 30
0.0
 42
-0.0292954189064119
  0
VERTEX
  5
163
  8
SignTorch_BUCK_MULE_DEER_
 10
14.34825348839716
 20
14.22293904211631
 30
0.0
 42
-0.0962353183845024
  0
VERTEX
  5
164
  8
SignTorch_BUCK_MULE_DEER_
 10
14.3790304437934
 20
14.11736935380724
 30
0.0
 42
-0.0198144320346129
  0
VERTEX
  5
165
  8
SignTorch_BUCK_MULE_DEER_
 10
14.38147575071264
 20
14.07053700694251
 30
0.0
 42
-0.0061934286606014
  0
VERTEX
  5
166
  8
SignTorch_BUCK_MULE_DEER_
 10
14.3814991937934
 20
13.92055685380724
 30
0.0
 42
-0.0363193632853425
  0
VERTEX
  5
167
  8
SignTorch_BUCK_MULE_DEER_
 10
14.37179671255342
 20
13.80646548528423
 30
0.0
 42
-0.0537522101535854
  0
VERTEX
  5
168
  8
SignTorch_BUCK_MULE_DEER_
 10
14.30859831488715
 20
13.57344699052599
 30
0.0
 42
-0.0647721328748382
  0
VERTEX
  5
169
  8
SignTorch_BUCK_MULE_DEER_
 10
14.19946707415529
 20
13.37444562636385
 30
0.0
 42
-0.0882867623846193
  0
VERTEX
  5
16A
  8
SignTorch_BUCK_MULE_DEER_
 10
14.0787687250434
 20
13.25887326005724
 30
0.0
 42
-0.0720995343137881
  0
VERTEX
  5
16B
  8
SignTorch_BUCK_MULE_DEER_
 10
13.96517649236453
 20
13.20489035818825
 30
0.0
 42
-0.0608226219354714
  0
VERTEX
  5
16C
  8
SignTorch_BUCK_MULE_DEER_
 10
13.7239991937934
 20
13.16145333818224
 30
0.0
 42
-0.0311592111103345
  0
VERTEX
  5
16D
  8
SignTorch_BUCK_MULE_DEER_
 10
13.5388789487221
 20
13.16249003516133
 30
0.0
 42
0.0036860120632023
  0
VERTEX
  5
16E
  8
SignTorch_BUCK_MULE_DEER_
 10
13.2489991937934
 20
13.18005685380724
 30
0.0
 42
-0.0203900024509392
  0
VERTEX
  5
16F
  8
SignTorch_BUCK_MULE_DEER_
 10
13.12877023225208
 20
13.19138313353211
 30
0.0
 42
-0.0663093105199315
  0
VERTEX
  5
170
  8
SignTorch_BUCK_MULE_DEER_
 10
13.03907951605903
 20
13.21592864946153
 30
0.0
 42
-0.0813319013099935
  0
VERTEX
  5
171
  8
SignTorch_BUCK_MULE_DEER_
 10
12.98313893707178
 20
13.25114561919018
 30
0.0
 42
-0.1289901015653647
  0
VERTEX
  5
172
  8
SignTorch_BUCK_MULE_DEER_
 10
12.93880021918402
 20
13.31735711625841
 30
0.0
 42
-0.0792341226857912
  0
VERTEX
  5
173
  8
SignTorch_BUCK_MULE_DEER_
 10
12.92546821746393
 20
13.39260017534813
 30
0.0
 42
-0.0190356315228934
  0
VERTEX
  5
174
  8
SignTorch_BUCK_MULE_DEER_
 10
12.9278116937934
 20
13.50504122880724
 30
0.0
 42
0.0000547429723733
  0
VERTEX
  5
175
  8
SignTorch_BUCK_MULE_DEER_
 10
12.93504033327769
 20
13.62784396745357
 30
0.0
 42
0.015419157372637
  0
VERTEX
  5
176
  8
SignTorch_BUCK_MULE_DEER_
 10
12.9379991937934
 20
13.73405685380724
 30
0.0
 42
0.0240372233127117
  0
VERTEX
  5
177
  8
SignTorch_BUCK_MULE_DEER_
 10
12.92017077321599
 20
14.08298492782357
 30
0.0
 42
0.0302059363052789
  0
VERTEX
  5
178
  8
SignTorch_BUCK_MULE_DEER_
 10
12.90276018012153
 20
14.19120870927599
 30
0.0
 42
0.0490332742819176
  0
VERTEX
  5
179
  8
SignTorch_BUCK_MULE_DEER_
 10
12.88027740388626
 20
14.25953500804912
 30
0.0
 42
0.1221227006750591
  0
VERTEX
  5
17A
  8
SignTorch_BUCK_MULE_DEER_
 10
12.8623741937934
 20
14.28265451005724
 30
0.0
 42
0.4123250115653545
  0
VERTEX
  5
17B
  8
SignTorch_BUCK_MULE_DEER_
 10
12.80135747588768
 20
14.27570921025998
 30
0.0
 42
0.0960458670505624
  0
VERTEX
  5
17C
  8
SignTorch_BUCK_MULE_DEER_
 10
12.7791066156684
 20
14.23336105302599
 30
0.0
 42
0.0646102931294735
  0
VERTEX
  5
17D
  8
SignTorch_BUCK_MULE_DEER_
 10
12.76984736008415
 20
14.17714266044637
 30
0.0
 42
0.0394041276200455
  0
VERTEX
  5
17E
  8
SignTorch_BUCK_MULE_DEER_
 10
12.7739991937934
 20
14.08405685380724
 30
0.0
 42
0.0128332927663901
  0
VERTEX
  5
17F
  8
SignTorch_BUCK_MULE_DEER_
 10
12.79002922650665
 20
13.97727398046028
 30
0.0
 42
-0.0417087715650812
  0
VERTEX
  5
180
  8
SignTorch_BUCK_MULE_DEER_
 10
12.7998741937934
 20
13.86974435380724
 30
0.0
 42
-0.0408280079609658
  0
VERTEX
  5
181
  8
SignTorch_BUCK_MULE_DEER_
 10
12.79393171052966
 20
13.78923621812817
 30
0.0
 42
-0.0292282254106346
  0
VERTEX
  5
182
  8
SignTorch_BUCK_MULE_DEER_
 10
12.73495402777778
 20
13.51750485185411
 30
0.0
 42
-0.0424204888220221
  0
VERTEX
  5
183
  8
SignTorch_BUCK_MULE_DEER_
 10
12.63850719852926
 20
13.25888921466834
 30
0.0
 42
-0.0640667814230664
  0
VERTEX
  5
184
  8
SignTorch_BUCK_MULE_DEER_
 10
12.53970363104926
 20
13.10464276078966
 30
0.0
 42
-0.0557668365449437
  0
VERTEX
  5
185
  8
SignTorch_BUCK_MULE_DEER_
 10
12.45618902236932
 20
13.02499367888462
 30
0.0
 42
-0.0622997950258556
  0
VERTEX
  5
186
  8
SignTorch_BUCK_MULE_DEER_
 10
12.3667726312934
 20
12.97309982255724
 30
0.0
 42
-0.0254323786766152
  0
VERTEX
  5
187
  8
SignTorch_BUCK_MULE_DEER_
 10
12.23539065981023
 20
12.92505798054997
 30
0.0
 42
-0.0281042296754757
  0
VERTEX
  5
188
  8
SignTorch_BUCK_MULE_DEER_
 10
12.1618820062934
 20
12.90679513505724
 30
0.0
 42
-0.086478401443661
  0
VERTEX
  5
189
  8
SignTorch_BUCK_MULE_DEER_
 10
12.09905355850639
 20
12.9058656331689
 30
0.0
 42
0.0473959419669857
  0
VERTEX
  5
18A
  8
SignTorch_BUCK_MULE_DEER_
 10
12.0363429437934
 20
12.90982247880724
 30
0.0
 42
0.0356659273732339
  0
VERTEX
  5
18B
  8
SignTorch_BUCK_MULE_DEER_
 10
11.98325252655767
 20
12.90433424863414
 30
0.0
 42
-0.0469769503102241
  0
VERTEX
  5
18C
  8
SignTorch_BUCK_MULE_DEER_
 10
11.88445353949653
 20
12.89637106279161
 30
0.0
 42
-0.1219815976469217
  0
VERTEX
  5
18D
  8
SignTorch_BUCK_MULE_DEER_
 10
11.76949105766104
 20
12.92648904923586
 30
0.0
 42
0.0491563889733787
  0
VERTEX
  5
18E
  8
SignTorch_BUCK_MULE_DEER_
 10
11.7420773187934
 20
12.93810372880723
 30
0.0
 42
0.0896764085666464
  0
VERTEX
  5
18F
  8
SignTorch_BUCK_MULE_DEER_
 10
11.66415298134547
 20
12.94778807269225
 30
0.0
 42
-0.0528570819915802
  0
VERTEX
  5
190
  8
SignTorch_BUCK_MULE_DEER_
 10
11.6219132562934
 20
12.94991818193224
 30
0.0
 42
-0.0989627229593434
  0
VERTEX
  5
191
  8
SignTorch_BUCK_MULE_DEER_
 10
11.57218785063722
 20
12.96825472663808
 30
0.0
 42
-0.0139047875379299
  0
VERTEX
  5
192
  8
SignTorch_BUCK_MULE_DEER_
 10
11.5325070062934
 20
12.99416036943224
 30
0.0
 42
0.0220159380201803
  0
VERTEX
  5
193
  8
SignTorch_BUCK_MULE_DEER_
 10
11.48733562912015
 20
13.02261659963876
 30
0.0
 42
0.0298394149098591
  0
VERTEX
  5
194
  8
SignTorch_BUCK_MULE_DEER_
 10
11.4519991937934
 20
13.04005685380724
 30
0.0
 42
-0.0032715649541654
  0
VERTEX
  5
195
  8
SignTorch_BUCK_MULE_DEER_
 10
11.390305685331
 20
13.06653078352586
 30
0.0
 42
-0.0896567764438163
  0
VERTEX
  5
196
  8
SignTorch_BUCK_MULE_DEER_
 10
11.3387140375434
 20
13.10112911943224
 30
0.0
 42
-0.0539585185698707
  0
VERTEX
  5
197
  8
SignTorch_BUCK_MULE_DEER_
 10
11.30544887043049
 20
13.14115492615315
 30
0.0
 42
-0.0529896341320326
  0
VERTEX
  5
198
  8
SignTorch_BUCK_MULE_DEER_
 10
11.2396710687934
 20
13.26758810380724
 30
0.0
 42
-0.0488864832662124
  0
VERTEX
  5
199
  8
SignTorch_BUCK_MULE_DEER_
 10
11.19356709832904
 20
13.4302773152482
 30
0.0
 42
-0.0638405457719825
  0
VERTEX
  5
19A
  8
SignTorch_BUCK_MULE_DEER_
 10
11.1739991937934
 20
13.81405685380724
 30
0.0
 42
-0.0162603100919568
  0
VERTEX
  5
19B
  8
SignTorch_BUCK_MULE_DEER_
 10
11.20479506345254
 20
14.09525326037178
 30
0.0
 42
-0.0160039699919932
  0
VERTEX
  5
19C
  8
SignTorch_BUCK_MULE_DEER_
 10
11.2229991937934
 20
14.19905685380724
 30
0.0
 42
0.0341664359783336
  0
VERTEX
  5
19D
  8
SignTorch_BUCK_MULE_DEER_
 10
11.23146949551157
 20
14.26035863065269
 30
0.0
 42
0.0797548533062134
  0
VERTEX
  5
19E
  8
SignTorch_BUCK_MULE_DEER_
 10
11.22906975043403
 20
14.28689865068224
 30
0.0
 42
0.1100049990063957
  0
VERTEX
  5
19F
  8
SignTorch_BUCK_MULE_DEER_
 10
11.22069895914136
 20
14.30344006210328
 30
0.0
 42
0.290137783382323
  0
VERTEX
  5
1A0
  8
SignTorch_BUCK_MULE_DEER_
 10
11.19355754340278
 20
14.31238693193224
 30
0.0
 42
0.1513755537214941
  0
VERTEX
  5
1A1
  8
SignTorch_BUCK_MULE_DEER_
 10
11.16297366772165
 20
14.29376948180187
 30
0.0
 42
0.0344318326867111
  0
VERTEX
  5
1A2
  8
SignTorch_BUCK_MULE_DEER_
 10
11.06916179144965
 20
14.17155563310411
 30
0.0
 42
0.0848202188953574
  0
VERTEX
  5
1A3
  8
SignTorch_BUCK_MULE_DEER_
 10
11.01357680196913
 20
14.04594041911952
 30
0.0
 42
0.0141506152221887
  0
VERTEX
  5
1A4
  8
SignTorch_BUCK_MULE_DEER_
 10
10.9879991937934
 20
13.93105685380724
 30
0.0
 42
0.0187399689487541
  0
VERTEX
  5
1A5
  8
SignTorch_BUCK_MULE_DEER_
 10
10.94678320384114
 20
13.66429300488206
 30
0.0
 42
0.0368639549191186
  0
VERTEX
  5
1A6
  8
SignTorch_BUCK_MULE_DEER_
 10
10.9409991937934
 20
13.52705685380724
 30
0.0
 42
-0.0158146286184267
  0
VERTEX
  5
1A7
  8
SignTorch_BUCK_MULE_DEER_
 10
10.9409943291603
 20
13.43622267270355
 30
0.0
 42
-0.0890262601438023
  0
VERTEX
  5
1A8
  8
SignTorch_BUCK_MULE_DEER_
 10
10.9297667719184
 20
13.38335568193224
 30
0.0
 42
-0.2112937856121455
  0
VERTEX
  5
1A9
  8
SignTorch_BUCK_MULE_DEER_
 10
10.86991570862914
 20
13.32561129970874
 30
0.0
 42
-0.0398267169847337
  0
VERTEX
  5
1AA
  8
SignTorch_BUCK_MULE_DEER_
 10
10.8035558344184
 20
13.30714474443224
 30
0.0
 42
-0.0957178013421242
  0
VERTEX
  5
1AB
  8
SignTorch_BUCK_MULE_DEER_
 10
10.39069353786788
 20
13.30675395662663
 30
0.0
 42
-0.0564431871613353
  0
VERTEX
  5
1AC
  8
SignTorch_BUCK_MULE_DEER_
 10
10.04832268012153
 20
13.41366574052599
 30
0.0
 42
-0.0140451571643243
  0
VERTEX
  5
1AD
  8
SignTorch_BUCK_MULE_DEER_
 10
9.892854848257482
 20
13.48752843427768
 30
0.0
 42
-0.1271788807667162
  0
VERTEX
  5
1AE
  8
SignTorch_BUCK_MULE_DEER_
 10
9.7558722406684
 20
13.60879513505724
 30
0.0
 42
-0.0646540823225489
  0
VERTEX
  5
1AF
  8
SignTorch_BUCK_MULE_DEER_
 10
9.69799671398015
 20
13.72442961456231
 30
0.0
 42
-0.0363916593094055
  0
VERTEX
  5
1B0
  8
SignTorch_BUCK_MULE_DEER_
 10
9.638624193793401
 20
13.94568185380724
 30
0.0
 42
-0.0140267769456229
  0
VERTEX
  5
1B1
  8
SignTorch_BUCK_MULE_DEER_
 10
9.61830603408533
 20
14.07049884838661
 30
0.0
 42
-0.0094959939791862
  0
VERTEX
  5
1B2
  8
SignTorch_BUCK_MULE_DEER_
 10
9.596999193793401
 20
14.25605685380724
 30
0.0
 42
-0.002710898164814
  0
VERTEX
  5
1B3
  8
SignTorch_BUCK_MULE_DEER_
 10
9.590813148848332
 20
14.32467256292992
 30
0.0
 42
-0.1577274291787088
  0
VERTEX
  5
1B4
  8
SignTorch_BUCK_MULE_DEER_
 10
9.604698656684025
 20
14.38440988115099
 30
0.0
 42
-0.038358759236524
  0
VERTEX
  5
1B5
  8
SignTorch_BUCK_MULE_DEER_
 10
9.632412948843344
 20
14.42339960032124
 30
0.0
 42
-0.0231434214245175
  0
VERTEX
  5
1B6
  8
SignTorch_BUCK_MULE_DEER_
 10
9.759249193793401
 20
14.56205685380724
 30
0.0
 42
0.0019670482890844
  0
VERTEX
  5
1B7
  8
SignTorch_BUCK_MULE_DEER_
 10
9.859155560111644
 20
14.66239390139167
 30
0.0
 42
0.0090881624106288
  0
VERTEX
  5
1B8
  8
SignTorch_BUCK_MULE_DEER_
 10
9.982124193793402
 20
14.79147872880724
 30
0.0
 42
0.0112281542575181
  0
VERTEX
  5
1B9
  8
SignTorch_BUCK_MULE_DEER_
 10
10.16317021779584
 20
14.99768994004832
 30
0.0
 42
0.0127274272397979
  0
VERTEX
  5
1BA
  8
SignTorch_BUCK_MULE_DEER_
 10
10.3139991937934
 20
15.18705685380724
 30
0.0
 42
0.0319410878481733
  0
VERTEX
  5
1BB
  8
SignTorch_BUCK_MULE_DEER_
 10
10.378800403335
 20
15.28525962624109
 30
0.0
 42
0.0596659084241645
  0
VERTEX
  5
1BC
  8
SignTorch_BUCK_MULE_DEER_
 10
10.40340373480903
 20
15.34341427568224
 30
0.0
 42
0.1113499388552913
  0
VERTEX
  5
1BD
  8
SignTorch_BUCK_MULE_DEER_
 10
10.40778180939483
 20
15.41721217933732
 30
0.0
 42
0.2128216765360727
  0
VERTEX
  5
1BE
  8
SignTorch_BUCK_MULE_DEER_
 10
10.3644679437934
 20
15.48304757646349
 30
0.0
 42
0.3140171024767108
  0
VERTEX
  5
1BF
  8
SignTorch_BUCK_MULE_DEER_
 10
10.30018699079485
 20
15.48053679807382
 30
0.0
 42
0.0561644303144283
  0
VERTEX
  5
1C0
  8
SignTorch_BUCK_MULE_DEER_
 10
10.2609991937934
 20
15.44330685380724
 30
0.0
 42
0.0411079519740024
  0
VERTEX
  5
1C1
  8
SignTorch_BUCK_MULE_DEER_
 10
10.21853238827433
 20
15.38339632872605
 30
0.0
 42
-0.0234727145392339
  0
VERTEX
  5
1C2
  8
SignTorch_BUCK_MULE_DEER_
 10
10.1782023187934
 20
15.32202706865099
 30
0.0
 42
-0.0236970259425138
  0
VERTEX
  5
1C3
  8
SignTorch_BUCK_MULE_DEER_
 10
10.14975442494589
 20
15.2865385948418
 30
0.0
 42
-0.0070935942414534
  0
VERTEX
  5
1C4
  8
SignTorch_BUCK_MULE_DEER_
 10
10.0008468500434
 20
15.12256857255724
 30
0.0
 42
-0.0080355457070284
  0
VERTEX
  5
1C5
  8
SignTorch_BUCK_MULE_DEER_
 10
9.877908867465486
 20
14.99516226463811
 30
0.0
 42
-0.0089522921325335
  0
VERTEX
  5
1C6
  8
SignTorch_BUCK_MULE_DEER_
 10
9.763737475043401
 20
14.88461544755724
 30
0.0
 42
-0.0011378679942066
  0
VERTEX
  5
1C7
  8
SignTorch_BUCK_MULE_DEER_
 10
9.66244466014443
 20
14.79042339178323
 30
0.0
 42
-0.0674764680220351
  0
VERTEX
  5
1C8
  8
SignTorch_BUCK_MULE_DEER_
 10
9.6340890375434
 20
14.77051779130724
 30
0.0
 42
-0.1126407363031862
  0
VERTEX
  5
1C9
  8
SignTorch_BUCK_MULE_DEER_
 10
9.616791062298919
 20
14.76604591763835
 30
0.0
 42
-0.2598912936696318
  0
VERTEX
  5
1CA
  8
SignTorch_BUCK_MULE_DEER_
 10
9.609549975043402
 20
14.76981466630724
 30
0.0
 42
-0.211030684419057
  0
VERTEX
  5
1CB
  8
SignTorch_BUCK_MULE_DEER_
 10
9.60666483818304
 20
14.78699095110555
 30
0.0
 42
-0.0263988398547995
  0
VERTEX
  5
1CC
  8
SignTorch_BUCK_MULE_DEER_
 10
9.616436693793402
 20
14.81832247880724
 30
0.0
 42
-0.0073091786927293
  0
VERTEX
  5
1CD
  8
SignTorch_BUCK_MULE_DEER_
 10
9.644974271471758
 20
14.89195814577906
 30
0.0
 42
0.0178969633614998
  0
VERTEX
  5
1CE
  8
SignTorch_BUCK_MULE_DEER_
 10
9.752858568793402
 20
15.18883810380724
 30
0.0
 42
0.0102928482635369
  0
VERTEX
  5
1CF
  8
SignTorch_BUCK_MULE_DEER_
 10
9.800733203459178
 20
15.34800100152383
 30
0.0
 42
0.0079608747638138
  0
VERTEX
  5
1D0
  8
SignTorch_BUCK_MULE_DEER_
 10
9.855077318793402
 20
15.55590060380724
 30
0.0
 42
0.0051609677344973
  0
VERTEX
  5
1D1
  8
SignTorch_BUCK_MULE_DEER_
 10
9.882842389662358
 20
15.67478631608673
 30
0.0
 42
-0.0138753717990291
  0
VERTEX
  5
1D2
  8
SignTorch_BUCK_MULE_DEER_
 10
9.912674975043402
 20
15.79317013505724
 30
0.0
 42
0.0134118471868456
  0
VERTEX
  5
1D3
  8
SignTorch_BUCK_MULE_DEER_
 10
9.936731229727949
 20
15.88825985487185
 30
0.0
 42
0.0757917436223389
  0
VERTEX
  5
1D4
  8
SignTorch_BUCK_MULE_DEER_
 10
9.9407843500434
 20
15.94634201005724
 30
0.0
 42
0.0854825502069629
  0
VERTEX
  5
1D5
  8
SignTorch_BUCK_MULE_DEER_
 10
9.933431769229088
 20
15.97487797423493
 30
0.0
 42
0.2734872253461119
  0
VERTEX
  5
1D6
  8
SignTorch_BUCK_MULE_DEER_
 10
9.89903386176215
 20
15.99913253740099
 30
0.0
 42
0.0548706841339584
  0
VERTEX
  5
1D7
  8
SignTorch_BUCK_MULE_DEER_
 10
9.883634546697063
 20
15.99867970211632
 30
0.0
 42
0.0412791526393328
  0
SEQEND
  5
1D8
  8
SignTorch_BUCK_MULE_DEER_
  0
POLYLINE
  5
42
  8
SignTorch_BUCK_MULE_DEER_
 66
     1
 10
0.0
 20
0.0
 30
0.0
 70
     1
  0
VERTEX
  5
1D9
  8
SignTorch_BUCK_MULE_DEER_
 10
9.3884054437934
 20
14.12925802568224
 30
0.0
 42
-0.2017848666115536
  0
VERTEX
  5
1DA
  8
SignTorch_BUCK_MULE_DEER_
 10
9.402039351455509
 20
14.12226569188146
 30
0.0
 42
-0.0823666791095297
  0
VERTEX
  5
1DB
  8
SignTorch_BUCK_MULE_DEER_
 10
9.420532396918402
 20
14.09101388505724
 30
0.0
 42
-0.034675609933228
  0
VERTEX
  5
1DC
  8
SignTorch_BUCK_MULE_DEER_
 10
9.445693198083413
 20
14.00985999147232
 30
0.0
 42
-0.0271915617136678
  0
VERTEX
  5
1DD
  8
SignTorch_BUCK_MULE_DEER_
 10
9.456274584418402
 20
13.95068576005724
 30
0.0
 42
-0.0708436471921505
  0
VERTEX
  5
1DE
  8
SignTorch_BUCK_MULE_DEER_
 10
9.455235239990442
 20
13.89562306446454
 30
0.0
 42
-0.2359962050738833
  0
VERTEX
  5
1DF
  8
SignTorch_BUCK_MULE_DEER_
 10
9.445090960150825
 20
13.88152822831896
 30
0.0
 42
-0.1021262498577576
  0
VERTEX
  5
1E0
  8
SignTorch_BUCK_MULE_DEER_
 10
9.4324676655672
 20
13.8778996866675
 30
0.0
 42
-0.1197212427481482
  0
VERTEX
  5
1E1
  8
SignTorch_BUCK_MULE_DEER_
 10
9.401225756293401
 20
13.88300411943224
 30
0.0
 42
-0.1896128847946741
  0
VERTEX
  5
1E2
  8
SignTorch_BUCK_MULE_DEER_
 10
9.364202076208475
 20
13.91926849651836
 30
0.0
 42
-0.1221883568416268
  0
VERTEX
  5
1E3
  8
SignTorch_BUCK_MULE_DEER_
 10
9.3424445062934
 20
14.04034005693224
 30
0.0
 42
-0.0934421145592831
  0
VERTEX
  5
1E4
  8
SignTorch_BUCK_MULE_DEER_
 10
9.360844600803338
 20
14.11189181014651
 30
0.0
 42
-0.2525870970022977
  0
VERTEX
  5
1E5
  8
SignTorch_BUCK_MULE_DEER_
 10
9.383999193793402
 20
14.12905685380724
 30
0.0
 42
-0.0243739369044744
  0
VERTEX
  5
1E6
  8
SignTorch_BUCK_MULE_DEER_
 10
9.386437145338725
 20
14.12928759043348
 30
0.0
 42
-0.0303311347691346
  0
SEQEND
  5
1E7
  8
SignTorch_BUCK_MULE_DEER_
  0
POLYLINE
  5
43
  8
SignTorch_BUCK_MULE_DEER_
 66
     1
 10
0.0
 20
0.0
 30
0.0
 70
     1
  0
VERTEX
  5
1E8
  8
SignTorch_BUCK_MULE_DEER_
 10
14.59506013739692
 20
13.86737548784044
 30
0.0
 42
-0.2179613371298515
  0
VERTEX
  5
1E9
  8
SignTorch_BUCK_MULE_DEER_
 10
14.62495204545716
 20
13.8593663537852
 30
0.0
 42
-0.1857950640637781
  0
VERTEX
  5
1EA
  8
SignTorch_BUCK_MULE_DEER_
 10
14.66846135199653
 20
13.78201803544786
 30
0.0
 42
-0.1625872611126054
  0
VERTEX
  5
1EB
  8
SignTorch_BUCK_MULE_DEER_
 10
14.65320234673972
 20
13.69688628490147
 30
0.0
 42
-0.142137376415593
  0
VERTEX
  5
1EC
  8
SignTorch_BUCK_MULE_DEER_
 10
14.58390178168403
 20
13.62712618974474
 30
0.0
 42
-0.1150269848719132
  0
VERTEX
  5
1ED
  8
SignTorch_BUCK_MULE_DEER_
 10
14.55604651892498
 20
13.61919849252927
 30
0.0
 42
-0.2558690411829092
  0
VERTEX
  5
1EE
  8
SignTorch_BUCK_MULE_DEER_
 10
14.53071284735785
 20
13.63152255204943
 30
0.0
 42
-0.1369056979626289
  0
VERTEX
  5
1EF
  8
SignTorch_BUCK_MULE_DEER_
 10
14.51939428326947
 20
13.66302559399705
 30
0.0
 42
-0.0940717111581525
  0
VERTEX
  5
1F0
  8
SignTorch_BUCK_MULE_DEER_
 10
14.53274211371528
 20
13.77879611161974
 30
0.0
 42
-0.0696909742732399
  0
VERTEX
  5
1F1
  8
SignTorch_BUCK_MULE_DEER_
 10
14.56429162470253
 20
13.84554501460646
 30
0.0
 42
-0.1596606035154485
  0
VERTEX
  5
1F2
  8
SignTorch_BUCK_MULE_DEER_
 10
14.5899991937934
 20
13.86605685380724
 30
0.0
 42
-0.0254857431753634
  0
VERTEX
  5
1F3
  8
SignTorch_BUCK_MULE_DEER_
 10
14.59230512380694
 20
13.86678495526592
 30
0.0
 42
-0.0218689443850979
  0
SEQEND
  5
1F4
  8
SignTorch_BUCK_MULE_DEER_
  0
POLYLINE
  5
44
  8
SignTorch_BUCK_MULE_DEER_
 66
     1
 10
0.0
 20
0.0
 30
0.0
 70
     1
  0
VERTEX
  5
1F5
  8
SignTorch_BUCK_MULE_DEER_
 10
9.941579271918402
 20
13.26448458818224
 30
0.0
 42
-0.042622158769731
  0
VERTEX
  5
1F6
  8
SignTorch_BUCK_MULE_DEER_
 10
10.01847115738754
 20
13.25646401703152
 30
0.0
 42
-0.0084847794933131
  0
VERTEX
  5
1F7
  8
SignTorch_BUCK_MULE_DEER_
 10
10.1399991937934
 20
13.23105685380724
 30
0.0
 42
0.0039828552765968
  0
VERTEX
  5
1F8
  8
SignTorch_BUCK_MULE_DEER_
 10
10.40228182635163
 20
13.17375355539479
 30
0.0
 42
-0.0194026406813452
  0
VERTEX
  5
1F9
  8
SignTorch_BUCK_MULE_DEER_
 10
10.5424991937934
 20
13.13855685380724
 30
0.0
 42
-0.0420284567222023
  0
VERTEX
  5
1FA
  8
SignTorch_BUCK_MULE_DEER_
 10
10.74261527246856
 20
13.06122870408504
 30
0.0
 42
-0.0642376473694118
  0
VERTEX
  5
1FB
  8
SignTorch_BUCK_MULE_DEER_
 10
10.9645929437934
 20
12.91546310380724
 30
0.0
 42
-0.0365422475224636
  0
VERTEX
  5
1FC
  8
SignTorch_BUCK_MULE_DEER_
 10
11.08844995698207
 20
12.79234671513241
 30
0.0
 42
-0.0871346628904564
  0
VERTEX
  5
1FD
  8
SignTorch_BUCK_MULE_DEER_
 10
11.11379222357856
 20
12.75021426347521
 30
0.0
 42
-0.0987204970110248
  0
VERTEX
  5
1FE
  8
SignTorch_BUCK_MULE_DEER_
 10
11.11712143416204
 20
12.73092165113763
 30
0.0
 42
-0.2920073033054245
  0
VERTEX
  5
1FF
  8
SignTorch_BUCK_MULE_DEER_
 10
11.1009991937934
 20
12.70705685380724
 30
0.0
 42
-0.1928252101188431
  0
VERTEX
  5
200
  8
SignTorch_BUCK_MULE_DEER_
 10
11.07840505713206
 20
12.70643609429479
 30
0.0
 42
-0.0721054712142235
  0
VERTEX
  5
201
  8
SignTorch_BUCK_MULE_DEER_
 10
11.0269249750434
 20
12.73439083818224
 30
0.0
 42
-0.0405655654201702
  0
VERTEX
  5
202
  8
SignTorch_BUCK_MULE_DEER_
 10
10.94681679864072
 20
12.8050087336081
 30
0.0
 42
0.0563999828346022
  0
VERTEX
  5
203
  8
SignTorch_BUCK_MULE_DEER_
 10
10.7939835687934
 20
12.93138497880724
 30
0.0
 42
0.0362966996029745
  0
VERTEX
  5
204
  8
SignTorch_BUCK_MULE_DEER_
 10
10.65184210393291
 20
13.01008905926991
 30
0.0
 42
0.0472867015793917
  0
VERTEX
  5
205
  8
SignTorch_BUCK_MULE_DEER_
 10
10.3025929437934
 20
13.13308810380724
 30
0.0
 42
0.0311932127087102
  0
VERTEX
  5
206
  8
SignTorch_BUCK_MULE_DEER_
 10
10.02148745507663
 20
13.18474842364994
 30
0.0
 42
0.0481161086017585
  0
VERTEX
  5
207
  8
SignTorch_BUCK_MULE_DEER_
 10
9.8359991937934
 20
13.18905685380724
 30
0.0
 42
-0.0682054712518967
  0
VERTEX
  5
208
  8
SignTorch_BUCK_MULE_DEER_
 10
9.794888049024758
 20
13.1916612375146
 30
0.0
 42
-0.1892804061229841
  0
VERTEX
  5
209
  8
SignTorch_BUCK_MULE_DEER_
 10
9.782033129340276
 20
13.19996627763536
 30
0.0
 42
-0.2676686218705947
  0
VERTEX
  5
20A
  8
SignTorch_BUCK_MULE_DEER_
 10
9.780651095860327
 20
13.21374238304155
 30
0.0
 42
-0.1345701160514103
  0
VERTEX
  5
20B
  8
SignTorch_BUCK_MULE_DEER_
 10
9.7973175531684
 20
13.23391036943224
 30
0.0
 42
-0.092678523018871
  0
VERTEX
  5
20C
  8
SignTorch_BUCK_MULE_DEER_
 10
9.839053208510604
 20
13.25294083132416
 30
0.0
 42
-0.0655246785043113
  0
SEQEND
  5
20D
  8
SignTorch_BUCK_MULE_DEER_
  0
POLYLINE
  5
45
  8
SignTorch_BUCK_MULE_DEER_
 66
     1
 10
0.0
 20
0.0
 30
0.0
 70
     1
  0
VERTEX
  5
20E
  8
SignTorch_BUCK_MULE_DEER_
 10
9.925994555121527
 20
13.12255612138536
 30
0.0
 42
-0.0887907796276899
  0
VERTEX
  5
20F
  8
SignTorch_BUCK_MULE_DEER_
 10
9.968326959297112
 20
13.12827459337599
 30
0.0
 42
-0.033286856659764
  0
VERTEX
  5
210
  8
SignTorch_BUCK_MULE_DEER_
 10
10.0808292719184
 20
13.11591818193224
 30
0.0
 42
-0.0043511814918229
  0
VERTEX
  5
211
  8
SignTorch_BUCK_MULE_DEER_
 10
10.15411427014974
 20
13.10223052765429
 30
0.0
 42
0.0016201173840684
  0
VERTEX
  5
212
  8
SignTorch_BUCK_MULE_DEER_
 10
10.2273234125434
 20
13.08814279130724
 30
0.0
 42
-0.0306686630602915
  0
VERTEX
  5
213
  8
SignTorch_BUCK_MULE_DEER_
 10
10.35436372831349
 20
13.05594951219988
 30
0.0
 42
-0.0230390336998374
  0
VERTEX
  5
214
  8
SignTorch_BUCK_MULE_DEER_
 10
10.51784050238715
 20
12.99524117997911
 30
0.0
 42
-0.0510450340658477
  0
VERTEX
  5
215
  8
SignTorch_BUCK_MULE_DEER_
 10
10.59943250410894
 20
12.95028034138556
 30
0.0
 42
-0.1422031644362659
  0
VERTEX
  5
216
  8
SignTorch_BUCK_MULE_DEER_
 10
10.61398289740668
 20
12.932383910692
 30
0.0
 42
-0.3895548114974182
  0
VERTEX
  5
217
  8
SignTorch_BUCK_MULE_DEER_
 10
10.60644796221207
 20
12.91127208117971
 30
0.0
 42
-0.0759214956358627
  0
VERTEX
  5
218
  8
SignTorch_BUCK_MULE_DEER_
 10
10.57379167426215
 20
12.89995895341661
 30
0.0
 42
-0.0520110759520011
  0
VERTEX
  5
219
  8
SignTorch_BUCK_MULE_DEER_
 10
10.50543354876788
 20
12.89461546482824
 30
0.0
 42
0.0658782844207658
  0
VERTEX
  5
21A
  8
SignTorch_BUCK_MULE_DEER_
 10
10.4372491937934
 20
12.88738497880724
 30
0.0
 42
0.0192915446858646
  0
VERTEX
  5
21B
  8
SignTorch_BUCK_MULE_DEER_
 10
10.37742132613536
 20
12.87045338952136
 30
0.0
 42
-0.217835294657472
  0
VERTEX
  5
21C
  8
SignTorch_BUCK_MULE_DEER_
 10
10.3345929437934
 20
12.87538302568224
 30
0.0
 42
-0.0837720621298133
  0
VERTEX
  5
21D
  8
SignTorch_BUCK_MULE_DEER_
 10
10.31572155263221
 20
12.8916271944097
 30
0.0
 42
0.1123398204454228
  0
VERTEX
  5
21E
  8
SignTorch_BUCK_MULE_DEER_
 10
10.2790304437934
 20
12.91975997880724
 30
0.0
 42
0.0533393523653783
  0
VERTEX
  5
21F
  8
SignTorch_BUCK_MULE_DEER_
 10
10.22467226122398
 20
12.93800407596375
 30
0.0
 42
-0.0552625986162305
  0
VERTEX
  5
220
  8
SignTorch_BUCK_MULE_DEER_
 10
10.17038444769965
 20
12.95645651201036
 30
0.0
 42
-0.0450106884106269
  0
VERTEX
  5
221
  8
SignTorch_BUCK_MULE_DEER_
 10
10.12889000578213
 20
12.98065871689746
 30
0.0
 42
0.0572035754799439
  0
VERTEX
  5
222
  8
SignTorch_BUCK_MULE_DEER_
 10
10.0507609125434
 20
13.02371701005724
 30
0.0
 42
0.0172047068170128
  0
VERTEX
  5
223
  8
SignTorch_BUCK_MULE_DEER_
 10
9.996229429743574
 20
13.04393285338662
 30
0.0
 42
-0.0214209327663861
  0
VERTEX
  5
224
  8
SignTorch_BUCK_MULE_DEER_
 10
9.941870287543402
 20
13.06460763505724
 30
0.0
 42
-0.0232734561600255
  0
VERTEX
  5
225
  8
SignTorch_BUCK_MULE_DEER_
 10
9.912611875157726
 20
13.07884278252378
 30
0.0
 42
-0.4360236361305498
  0
VERTEX
  5
226
  8
SignTorch_BUCK_MULE_DEER_
 10
9.904874193793402
 20
13.10925997880724
 30
0.0
 42
-0.109357403291793
  0
VERTEX
  5
227
  8
SignTorch_BUCK_MULE_DEER_
 10
9.91146408833286
 20
13.11577529570859
 30
0.0
 42
-0.0626992513964408
  0
SEQEND
  5
228
  8
SignTorch_BUCK_MULE_DEER_
  0
POLYLINE
  5
46
  8
SignTorch_BUCK_MULE_DEER_
 66
     1
 10
0.0
 20
0.0
 30
0.0
 70
     1
  0
VERTEX
  5
229
  8
SignTorch_BUCK_MULE_DEER_
 10
13.1551710687934
 20
13.10013497880724
 30
0.0
 42
-0.0452718190370712
  0
VERTEX
  5
22A
  8
SignTorch_BUCK_MULE_DEER_
 10
13.40584476734048
 20
13.09913265887843
 30
0.0
 42
-0.0525182990884585
  0
VERTEX
  5
22B
  8
SignTorch_BUCK_MULE_DEER_
 10
13.7787023187934
 20
13.02377560380724
 30
0.0
 42
-0.0276498319181844
  0
VERTEX
  5
22C
  8
SignTorch_BUCK_MULE_DEER_
 10
13.91589380529042
 20
12.97219173024563
 30
0.0
 42
-0.0708969297636215
  0
VERTEX
  5
22D
  8
SignTorch_BUCK_MULE_DEER_
 10
14.0256241937934
 20
12.90393185380724
 30
0.0
 42
-0.0765600016461115
  0
VERTEX
  5
22E
  8
SignTorch_BUCK_MULE_DEER_
 10
14.0727749992848
 20
12.85016452224125
 30
0.0
 42
-0.1649273286933952
  0
VERTEX
  5
22F
  8
SignTorch_BUCK_MULE_DEER_
 10
14.08083976996528
 20
12.81723678544786
 30
0.0
 42
-0.1664031539803598
  0
VERTEX
  5
230
  8
SignTorch_BUCK_MULE_DEER_
 10
14.0715882221742
 20
12.79632378974621
 30
0.0
 42
-0.2554896181086303
  0
VERTEX
  5
231
  8
SignTorch_BUCK_MULE_DEER_
 10
14.05695378363715
 20
12.79140524247911
 30
0.0
 42
-0.105755130212033
  0
VERTEX
  5
232
  8
SignTorch_BUCK_MULE_DEER_
 10
14.03812123905395
 20
12.79907546530387
 30
0.0
 42
-0.0417750808289118
  0
VERTEX
  5
233
  8
SignTorch_BUCK_MULE_DEER_
 10
13.9984991937934
 20
12.83118185380724
 30
0.0
 42
-0.015235690163595
  0
VERTEX
  5
234
  8
SignTorch_BUCK_MULE_DEER_
 10
13.92898389748822
 20
12.90204088938503
 30
0.0
 42
0.0624099614792503
  0
VERTEX
  5
235
  8
SignTorch_BUCK_MULE_DEER_
 10
13.9099991937934
 20
12.91805685380724
 30
0.0
 42
0.0355760194644042
  0
VERTEX
  5
236
  8
SignTorch_BUCK_MULE_DEER_
 10
13.84734485477597
 20
12.9526930334953
 30
0.0
 42
0.042445379798185
  0
VERTEX
  5
237
  8
SignTorch_BUCK_MULE_DEER_
 10
13.6852179437934
 20
13.01169747880724
 30
0.0
 42
0.0439757999539009
  0
VERTEX
  5
238
  8
SignTorch_BUCK_MULE_DEER_
 10
13.48094041322838
 20
13.04809032255535
 30
0.0
 42
0.0771445348863341
  0
VERTEX
  5
239
  8
SignTorch_BUCK_MULE_DEER_
 10
13.08520225775825
 20
13.02210259965685
 30
0.0
 42
0.0565636222602393
  0
VERTEX
  5
23A
  8
SignTorch_BUCK_MULE_DEER_
 10
12.85439898093374
 20
12.94238449549029
 30
0.0
 42
0.0717050517833101
  0
VERTEX
  5
23B
  8
SignTorch_BUCK_MULE_DEER_
 10
12.6938976312934
 20
12.83521310380724
 30
0.0
 42
0.0247316535228103
  0
VERTEX
  5
23C
  8
SignTorch_BUCK_MULE_DEER_
 10
12.54572661611822
 20
12.68823515241351
 30
0.0
 42
-0.0630543551403135
  0
VERTEX
  5
23D
  8
SignTorch_BUCK_MULE_DEER_
 10
12.5059611078559
 20
12.65440890458849
 30
0.0
 42
-0.0869441452045017
  0
VERTEX
  5
23E
  8
SignTorch_BUCK_MULE_DEER_
 10
12.48224218403406
 20
12.64422732673153
 30
0.0
 42
-0.3596927302860388
  0
VERTEX
  5
23F
  8
SignTorch_BUCK_MULE_DEER_
 10
12.45213975775825
 20
12.65908706620958
 30
0.0
 42
-0.1769941422551484
  0
VERTEX
  5
240
  8
SignTorch_BUCK_MULE_DEER_
 10
12.45035542940209
 20
12.68406207069136
 30
0.0
 42
-0.0730980052443075
  0
VERTEX
  5
241
  8
SignTorch_BUCK_MULE_DEER_
 10
12.4747218500434
 20
12.73790451005724
 30
0.0
 42
-0.0371469634844118
  0
VERTEX
  5
242
  8
SignTorch_BUCK_MULE_DEER_
 10
12.51572679926321
 20
12.79238820869019
 30
0.0
 42
-0.0223727727138627
  0
VERTEX
  5
243
  8
SignTorch_BUCK_MULE_DEER_
 10
12.5939991937934
 20
12.87405685380724
 30
0.0
 42
-0.0652568891283354
  0
VERTEX
  5
244
  8
SignTorch_BUCK_MULE_DEER_
 10
12.72549565207052
 20
12.97024786518831
 30
0.0
 42
-0.0851861389443995
  0
VERTEX
  5
245
  8
SignTorch_BUCK_MULE_DEER_
 10
13.0748927484809
 20
13.09042159990099
 30
0.0
 42
-0.0102249684402696
  0
VERTEX
  5
246
  8
SignTorch_BUCK_MULE_DEER_
 10
13.11120156742753
 20
13.0955701637386
 30
0.0
 42
-0.00848209930151
  0
SEQEND
  5
247
  8
SignTorch_BUCK_MULE_DEER_
  0
POLYLINE
  5
47
  8
SignTorch_BUCK_MULE_DEER_
 66
     1
 10
0.0
 20
0.0
 30
0.0
 70
     1
  0
VERTEX
  5
248
  8
SignTorch_BUCK_MULE_DEER_
 10
9.779985521918402
 20
13.03134347490099
 30
0.0
 42
-0.1697823765088819
  0
VERTEX
  5
249
  8
SignTorch_BUCK_MULE_DEER_
 10
9.80429741250493
 20
13.02737847875579
 30
0.0
 42
-0.0581030220103343
  0
VERTEX
  5
24A
  8
SignTorch_BUCK_MULE_DEER_
 10
9.8616710687934
 20
12.98692794755724
 30
0.0
 42
-0.0210476704182719
  0
VERTEX
  5
24B
  8
SignTorch_BUCK_MULE_DEER_
 10
9.887286861322472
 20
12.96197640602783
 30
0.0
 42
0.0519477006188687
  0
VERTEX
  5
24C
  8
SignTorch_BUCK_MULE_DEER_
 10
9.995669115668402
 20
12.86871505693224
 30
0.0
 42
0.0143211069568925
  0
VERTEX
  5
24D
  8
SignTorch_BUCK_MULE_DEER_
 10
10.02603338708693
 20
12.84890336796297
 30
0.0
 42
0.0065672730415851
  0
VERTEX
  5
24E
  8
SignTorch_BUCK_MULE_DEER_
 10
10.0939835687934
 20
12.80850997880724
 30
0.0
 42
0.0038947078537937
  0
VERTEX
  5
24F
  8
SignTorch_BUCK_MULE_DEER_
 10
10.1439843798703
 20
12.78018541507914
 30
0.0
 42
0.0441416290656541
  0
VERTEX
  5
250
  8
SignTorch_BUCK_MULE_DEER_
 10
10.1975773187934
 20
12.75629122880724
 30
0.0
 42
-0.0385702854756944
  0
VERTEX
  5
251
  8
SignTorch_BUCK_MULE_DEER_
 10
10.24597217916003
 20
12.73535676010222
 30
0.0
 42
-0.2596476859942799
  0
VERTEX
  5
252
  8
SignTorch_BUCK_MULE_DEER_
 10
10.26230217230902
 20
12.71028707841661
 30
0.0
 42
-0.1935879403028165
  0
VERTEX
  5
253
  8
SignTorch_BUCK_MULE_DEER_
 10
10.25382945797848
 20
12.684123021214
 30
0.0
 42
0.0962218283660519
  0
VERTEX
  5
254
  8
SignTorch_BUCK_MULE_DEER_
 10
10.24055363715278
 20
12.66003781083849
 30
0.0
 42
0.3557760623568592
  0
VERTEX
  5
255
  8
SignTorch_BUCK_MULE_DEER_
 10
10.25217988674022
 20
12.6302140238284
 30
0.0
 42
-0.0192556443396698
  0
VERTEX
  5
256
  8
SignTorch_BUCK_MULE_DEER_
 10
10.2879991937934
 20
12.60805685380724
 30
0.0
 42
-0.0717220545910473
  0
VERTEX
  5
257
  8
SignTorch_BUCK_MULE_DEER_
 10
10.30129948341957
 20
12.59601754163106
 30
0.0
 42
-0.3664112553167411
  0
VERTEX
  5
258
  8
SignTorch_BUCK_MULE_DEER_
 10
10.30106926215278
 20
12.57412985185411
 30
0.0
 42
-0.1250880023957153
  0
VERTEX
  5
259
  8
SignTorch_BUCK_MULE_DEER_
 10
10.28236133005299
 20
12.56108357957446
 30
0.0
 42
-0.0844330073308594
  0
VERTEX
  5
25A
  8
SignTorch_BUCK_MULE_DEER_
 10
10.2030558344184
 20
12.54569943193224
 30
0.0
 42
-0.0976028546445263
  0
VERTEX
  5
25B
  8
SignTorch_BUCK_MULE_DEER_
 10
10.15567921522127
 20
12.55390267379339
 30
0.0
 42
-0.095043406019805
  0
VERTEX
  5
25C
  8
SignTorch_BUCK_MULE_DEER_
 10
10.1137491937934
 20
12.57993185380724
 30
0.0
 42
-0.157745767349195
  0
VERTEX
  5
25D
  8
SignTorch_BUCK_MULE_DEER_
 10
10.07547032032597
 20
12.64791639008245
 30
0.0
 42
0.1897048452437503
  0
VERTEX
  5
25E
  8
SignTorch_BUCK_MULE_DEER_
 10
10.0526241937934
 20
12.68318185380724
 30
0.0
 42
0.1279342958111012
  0
VERTEX
  5
25F
  8
SignTorch_BUCK_MULE_DEER_
 10
10.02474838109178
 20
12.69388194800342
 30
0.0
 42
-0.0318477082618487
  0
VERTEX
  5
260
  8
SignTorch_BUCK_MULE_DEER_
 10
9.9702491937934
 20
12.70355685380724
 30
0.0
 42
-0.1372695903644505
  0
VERTEX
  5
261
  8
SignTorch_BUCK_MULE_DEER_
 10
9.907376837971487
 20
12.73890699134465
 30
0.0
 42
-0.0556055804947231
  0
VERTEX
  5
262
  8
SignTorch_BUCK_MULE_DEER_
 10
9.797874193793401
 20
12.87580685380724
 30
0.0
 42
-0.0583531673655421
  0
VERTEX
  5
263
  8
SignTorch_BUCK_MULE_DEER_
 10
9.754670164987846
 20
12.96593691152867
 30
0.0
 42
-0.1521606328914098
  0
VERTEX
  5
264
  8
SignTorch_BUCK_MULE_DEER_
 10
9.7535597406684
 20
13.00500607255724
 30
0.0
 42
-0.1290805242522552
  0
VERTEX
  5
265
  8
SignTorch_BUCK_MULE_DEER_
 10
9.764190704471432
 20
13.02313642549914
 30
0.0
 42
-0.1534454192057821
  0
SEQEND
  5
266
  8
SignTorch_BUCK_MULE_DEER_
  0
POLYLINE
  5
48
  8
SignTorch_BUCK_MULE_DEER_
 66
     1
 10
0.0
 20
0.0
 30
0.0
 70
     1
  0
VERTEX
  5
267
  8
SignTorch_BUCK_MULE_DEER_
 10
13.35677434027778
 20
12.97563278154161
 30
0.0
 42
-0.0652868794788706
  0
VERTEX
  5
268
  8
SignTorch_BUCK_MULE_DEER_
 10
13.52484840519405
 20
12.96658389528704
 30
0.0
 42
-0.0487451333562988
  0
VERTEX
  5
269
  8
SignTorch_BUCK_MULE_DEER_
 10
13.7409991937934
 20
12.90405685380724
 30
0.0
 42
-0.0620161037378354
  0
VERTEX
  5
26A
  8
SignTorch_BUCK_MULE_DEER_
 10
13.84627534363571
 20
12.84615056366031
 30
0.0
 42
-0.1328454461533047
  0
VERTEX
  5
26B
  8
SignTorch_BUCK_MULE_DEER_
 10
13.8622179437934
 20
12.82643185380724
 30
0.0
 42
-0.3721378788176813
  0
VERTEX
  5
26C
  8
SignTorch_BUCK_MULE_DEER_
 10
13.85580054759039
 20
12.80544549558713
 30
0.0
 42
-0.2134100509036707
  0
VERTEX
  5
26D
  8
SignTorch_BUCK_MULE_DEER_
 10
13.8037491937934
 20
12.79805685380724
 30
0.0
 42
-0.0431456613138334
  0
VERTEX
  5
26E
  8
SignTorch_BUCK_MULE_DEER_
 10
13.77354803142955
 20
12.80962309791184
 30
0.0
 42
0.1042768690014987
  0
VERTEX
  5
26F
  8
SignTorch_BUCK_MULE_DEER_
 10
13.7421671625434
 20
12.81744161943224
 30
0.0
 42
0.165091460834631
  0
VERTEX
  5
270
  8
SignTorch_BUCK_MULE_DEER_
 10
13.71861642516951
 20
12.81039181335999
 30
0.0
 42
0.0216167842554222
  0
VERTEX
  5
271
  8
SignTorch_BUCK_MULE_DEER_
 10
13.7009991937934
 20
12.79668185380724
 30
0.0
 42
-0.0900191284169041
  0
VERTEX
  5
272
  8
SignTorch_BUCK_MULE_DEER_
 10
13.68107874610008
 20
12.78514387989226
 30
0.0
 42
-0.1080396695042452
  0
VERTEX
  5
273
  8
SignTorch_BUCK_MULE_DEER_
 10
13.66199284613715
 20
12.78264498857286
 30
0.0
 42
-0.115267369363534
  0
VERTEX
  5
274
  8
SignTorch_BUCK_MULE_DEER_
 10
13.61792646241807
 20
12.79698343331717
 30
0.0
 42
0.0876054628051191
  0
VERTEX
  5
275
  8
SignTorch_BUCK_MULE_DEER_
 10
13.57471086371527
 20
12.81371212724474
 30
0.0
 42
0.1091823381126708
  0
VERTEX
  5
276
  8
SignTorch_BUCK_MULE_DEER_
 10
13.55891732106106
 20
12.81334987491281
 30
0.0
 42
0.2663822911658431
  0
VERTEX
  5
277
  8
SignTorch_BUCK_MULE_DEER_
 10
13.5483741937934
 20
12.80330685380724
 30
0.0
 42
0.0946698283759337
  0
VERTEX
  5
278
  8
SignTorch_BUCK_MULE_DEER_
 10
13.54613044179509
 20
12.78099716457564
 30
0.0
 42
-0.1478033923932387
  0
VERTEX
  5
279
  8
SignTorch_BUCK_MULE_DEER_
 10
13.54156730902777
 20
12.75904415849474
 30
0.0
 42
-0.3064460750509483
  0
VERTEX
  5
27A
  8
SignTorch_BUCK_MULE_DEER_
 10
13.52538041095261
 20
12.75066530592763
 30
0.0
 42
-0.0305879870791761
  0
VERTEX
  5
27B
  8
SignTorch_BUCK_MULE_DEER_
 10
13.4898116937934
 20
12.75707247880724
 30
0.0
 42
-0.0301122088980377
  0
VERTEX
  5
27C
  8
SignTorch_BUCK_MULE_DEER_
 10
13.41210539341251
 20
12.78107468532206
 30
0.0
 42
-0.0205273340433351
  0
VERTEX
  5
27D
  8
SignTorch_BUCK_MULE_DEER_
 10
13.3023116937934
 20
12.82760372880724
 30
0.0
 42
-0.040783725634496
  0
VERTEX
  5
27E
  8
SignTorch_BUCK_MULE_DEER_
 10
13.23389835399515
 20
12.86708526181953
 30
0.0
 42
-0.1323515006077335
  0
VERTEX
  5
27F
  8
SignTorch_BUCK_MULE_DEER_
 10
13.2179191156684
 20
12.88595333818224
 30
0.0
 42
-0.3148667998462034
  0
VERTEX
  5
280
  8
SignTorch_BUCK_MULE_DEER_
 10
13.22417159178613
 20
12.92225453144057
 30
0.0
 42
-0.0846995567347451
  0
VERTEX
  5
281
  8
SignTorch_BUCK_MULE_DEER_
 10
13.2646769281684
 20
12.95124240068224
 30
0.0
 42
-0.0483554006545073
  0
VERTEX
  5
282
  8
SignTorch_BUCK_MULE_DEER_
 10
13.30822352428461
 20
12.96741133988034
 30
0.0
 42
-0.0456033698175123
  0
SEQEND
  5
283
  8
SignTorch_BUCK_MULE_DEER_
  0
POLYLINE
  5
49
  8
SignTorch_BUCK_MULE_DEER_
 66
     1
 10
0.0
 20
0.0
 30
0.0
 70
     1
  0
VERTEX
  5
284
  8
SignTorch_BUCK_MULE_DEER_
 10
11.5264161859809
 20
12.89675729326036
 30
0.0
 42
-0.1762800939462122
  0
VERTEX
  5
285
  8
SignTorch_BUCK_MULE_DEER_
 10
11.5423998539886
 20
12.88872417734338
 30
0.0
 42
-0.2205948804048918
  0
VERTEX
  5
286
  8
SignTorch_BUCK_MULE_DEER_
 10
11.5469991937934
 20
12.87493185380724
 30
0.0
 42
-0.2737380685487005
  0
VERTEX
  5
287
  8
SignTorch_BUCK_MULE_DEER_
 10
11.51888952997572
 20
12.83770458898821
 30
0.0
 42
-0.024553897871097
  0
VERTEX
  5
288
  8
SignTorch_BUCK_MULE_DEER_
 10
11.4286027094184
 20
12.80570919755724
 30
0.0
 42
-0.0407333683784376
  0
VERTEX
  5
289
  8
SignTorch_BUCK_MULE_DEER_
 10
11.32563061849684
 20
12.78375637397692
 30
0.0
 42
-0.1046298072792133
  0
VERTEX
  5
28A
  8
SignTorch_BUCK_MULE_DEER_
 10
11.2979120050727
 20
12.78597512773302
 30
0.0
 42
-0.1637954700386746
  0
VERTEX
  5
28B
  8
SignTorch_BUCK_MULE_DEER_
 10
11.28736161881702
 20
12.79339752591441
 30
0.0
 42
-0.1993415577713721
  0
VERTEX
  5
28C
  8
SignTorch_BUCK_MULE_DEER_
 10
11.28481584418403
 20
12.80382394365099
 30
0.0
 42
-0.1334795665704945
  0
VERTEX
  5
28D
  8
SignTorch_BUCK_MULE_DEER_
 10
11.29380552204596
 20
12.82398491756709
 30
0.0
 42
-0.1123019276272741
  0
VERTEX
  5
28E
  8
SignTorch_BUCK_MULE_DEER_
 10
11.34601237738715
 20
12.86469601396349
 30
0.0
 42
-0.0571778618050144
  0
VERTEX
  5
28F
  8
SignTorch_BUCK_MULE_DEER_
 10
11.40292664326381
 20
12.88383551898197
 30
0.0
 42
-0.0484166949438022
  0
VERTEX
  5
290
  8
SignTorch_BUCK_MULE_DEER_
 10
11.5189991937934
 20
12.89705685380724
 30
0.0
 42
-0.0142573663176919
  0
VERTEX
  5
291
  8
SignTorch_BUCK_MULE_DEER_
 10
11.52325076787899
 20
12.89700645467662
 30
0.0
 42
-0.0190948954029524
  0
SEQEND
  5
292
  8
SignTorch_BUCK_MULE_DEER_
  0
POLYLINE
  5
4A
  8
SignTorch_BUCK_MULE_DEER_
 66
     1
 10
0.0
 20
0.0
 30
0.0
 70
     1
  0
VERTEX
  5
293
  8
SignTorch_BUCK_MULE_DEER_
 10
10.72520939887153
 20
12.89299459794786
 30
0.0
 42
-0.1928495247450316
  0
VERTEX
  5
294
  8
SignTorch_BUCK_MULE_DEER_
 10
10.77855669014182
 20
12.87423696031072
 30
0.0
 42
-0.1584201921540269
  0
VERTEX
  5
295
  8
SignTorch_BUCK_MULE_DEER_
 10
10.83472990668403
 20
12.77997824052598
 30
0.0
 42
-0.1341222861863846
  0
VERTEX
  5
296
  8
SignTorch_BUCK_MULE_DEER_
 10
10.83256818576148
 20
12.7302554834899
 30
0.0
 42
-0.0363136646777648
  0
VERTEX
  5
297
  8
SignTorch_BUCK_MULE_DEER_
 10
10.8188898187934
 20
12.69627560380724
 30
0.0
 42
0.0126067797869523
  0
VERTEX
  5
298
  8
SignTorch_BUCK_MULE_DEER_
 10
10.79588937822949
 20
12.64613489127707
 30
0.0
 42
0.1668821335750569
  0
VERTEX
  5
299
  8
SignTorch_BUCK_MULE_DEER_
 10
10.7918077875434
 20
12.59119161943224
 30
0.0
 42
0.0754026132095696
  0
VERTEX
  5
29A
  8
SignTorch_BUCK_MULE_DEER_
 10
10.80953518005394
 20
12.55007708561899
 30
0.0
 42
-0.111884904219796
  0
VERTEX
  5
29B
  8
SignTorch_BUCK_MULE_DEER_
 10
10.8368468500434
 20
12.47156271318224
 30
0.0
 42
-0.0039472085429371
  0
VERTEX
  5
29C
  8
SignTorch_BUCK_MULE_DEER_
 10
10.83996301705542
 20
12.44171514075725
 30
0.0
 42
0.1009295590651012
  0
VERTEX
  5
29D
  8
SignTorch_BUCK_MULE_DEER_
 10
10.84686296332465
 20
12.41919503740099
 30
0.0
 42
0.1120105921460868
  0
VERTEX
  5
29E
  8
SignTorch_BUCK_MULE_DEER_
 10
10.87274871872244
 20
12.38977487350694
 30
0.0
 42
-0.115530761337576
  0
VERTEX
  5
29F
  8
SignTorch_BUCK_MULE_DEER_
 10
10.89842936957465
 20
12.36017550615099
 30
0.0
 42
-0.1430404529735533
  0
VERTEX
  5
2A0
  8
SignTorch_BUCK_MULE_DEER_
 10
10.9058723358064
 20
12.32353968428787
 30
0.0
 42
-0.1011300158702659
  0
VERTEX
  5
2A1
  8
SignTorch_BUCK_MULE_DEER_
 10
10.8911398187934
 20
12.27330880693224
 30
0.0
 42
-0.1195594781725559
  0
VERTEX
  5
2A2
  8
SignTorch_BUCK_MULE_DEER_
 10
10.87493422344313
 20
12.2550119056297
 30
0.0
 42
-0.2102186044559311
  0
VERTEX
  5
2A3
  8
SignTorch_BUCK_MULE_DEER_
 10
10.8479503656684
 20
12.24972311357286
 30
0.0
 42
-0.1191219426472012
  0
VERTEX
  5
2A4
  8
SignTorch_BUCK_MULE_DEER_
 10
10.8194578708199
 20
12.26376824058459
 30
0.0
 42
0.0100235363004629
  0
VERTEX
  5
2A5
  8
SignTorch_BUCK_MULE_DEER_
 10
10.78408732855903
 20
12.29208346513536
 30
0.0
 42
0.0459450125750023
  0
VERTEX
  5
2A6
  8
SignTorch_BUCK_MULE_DEER_
 10
10.72721739603435
 20
12.3279915074877
 30
0.0
 42
-0.0325245182057518
  0
VERTEX
  5
2A7
  8
SignTorch_BUCK_MULE_DEER_
 10
10.66940568793403
 20
12.36236276201036
 30
0.0
 42
-0.0598057857349926
  0
VERTEX
  5
2A8
  8
SignTorch_BUCK_MULE_DEER_
 10
10.62721695869835
 20
12.39943155046392
 30
0.0
 42
-0.1438564377748935
  0
VERTEX
  5
2A9
  8
SignTorch_BUCK_MULE_DEER_
 10
10.6049991937934
 20
12.44605685380724
 30
0.0
 42
-0.0383246289182946
  0
VERTEX
  5
2AA
  8
SignTorch_BUCK_MULE_DEER_
 10
10.60201297399333
 20
12.4822500099642
 30
0.0
 42
0.1616523358507052
  0
VERTEX
  5
2AB
  8
SignTorch_BUCK_MULE_DEER_
 10
10.5903741937934
 20
12.51665060380724
 30
0.0
 42
0.0427508905405673
  0
VERTEX
  5
2AC
  8
SignTorch_BUCK_MULE_DEER_
 10
10.56205150895287
 20
12.54815774361558
 30
0.0
 42
-0.1184842481814815
  0
VERTEX
  5
2AD
  8
SignTorch_BUCK_MULE_DEER_
 10
10.5495011469184
 20
12.56723849443224
 30
0.0
 42
-0.2167013806557601
  0
VERTEX
  5
2AE
  8
SignTorch_BUCK_MULE_DEER_
 10
10.55199578254676
 20
12.59801930210202
 30
0.0
 42
-0.0196707925110688
  0
VERTEX
  5
2AF
  8
SignTorch_BUCK_MULE_DEER_
 10
10.5676241937934
 20
12.62368185380724
 30
0.0
 42
0.0629516205198975
  0
VERTEX
  5
2B0
  8
SignTorch_BUCK_MULE_DEER_
 10
10.57760603891547
 20
12.64379819115327
 30
0.0
 42
0.2407069083887963
  0
VERTEX
  5
2B1
  8
SignTorch_BUCK_MULE_DEER_
 10
10.57348170722114
 20
12.67359173539903
 30
0.0
 42
0.1153549757625804
  0
VERTEX
  5
2B2
  8
SignTorch_BUCK_MULE_DEER_
 10
10.54653334514455
 20
12.69776265187498
 30
0.0
 42
-0.0645369193177869
  0
VERTEX
  5
2B3
  8
SignTorch_BUCK_MULE_DEER_
 10
10.51728947699653
 20
12.71909909013536
 30
0.0
 42
-0.1156140652823974
  0
VERTEX
  5
2B4
  8
SignTorch_BUCK_MULE_DEER_
 10
10.5010867912265
 20
12.74375558093932
 30
0.0
 42
-0.2024661359126317
  0
VERTEX
  5
2B5
  8
SignTorch_BUCK_MULE_DEER_
 10
10.50269539130317
 20
12.77699157670763
 30
0.0
 42
-0.1202225562939912
  0
VERTEX
  5
2B6
  8
SignTorch_BUCK_MULE_DEER_
 10
10.5275730727855
 20
12.80730720446426
 30
0.0
 42
-0.0529798364831232
  0
VERTEX
  5
2B7
  8
SignTorch_BUCK_MULE_DEER_
 10
10.6030948969184
 20
12.85241818193224
 30
0.0
 42
-0.036346061503583
  0
VERTEX
  5
2B8
  8
SignTorch_BUCK_MULE_DEER_
 10
10.69956583103511
 20
12.88872224067237
 30
0.0
 42
-0.0611657423842784
  0
SEQEND
  5
2B9
  8
SignTorch_BUCK_MULE_DEER_
  0
POLYLINE
  5
4B
  8
SignTorch_BUCK_MULE_DEER_
 66
     1
 10
0.0
 20
0.0
 30
0.0
 70
     1
  0
VERTEX
  5
2BA
  8
SignTorch_BUCK_MULE_DEER_
 10
13.06513810980903
 20
12.85511178544786
 30
0.0
 42
-0.0970030547825962
  0
VERTEX
  5
2BB
  8
SignTorch_BUCK_MULE_DEER_
 10
13.09381421933541
 20
12.85254182732123
 30
0.0
 42
-0.1973161020576628
  0
VERTEX
  5
2BC
  8
SignTorch_BUCK_MULE_DEER_
 10
13.1168741937934
 20
12.83418185380724
 30
0.0
 42
-0.0790940477355553
  0
VERTEX
  5
2BD
  8
SignTorch_BUCK_MULE_DEER_
 10
13.12895826647795
 20
12.80116968040832
 30
0.0
 42
0.0817055947704432
  0
VERTEX
  5
2BE
  8
SignTorch_BUCK_MULE_DEER_
 10
13.1517179437934
 20
12.73997872880724
 30
0.0
 42
-0.0367767076362594
  0
VERTEX
  5
2BF
  8
SignTorch_BUCK_MULE_DEER_
 10
13.16433730117448
 20
12.71355974761036
 30
0.0
 42
-0.2999416798098504
  0
VERTEX
  5
2C0
  8
SignTorch_BUCK_MULE_DEER_
 10
13.1576749750434
 20
12.68241036943224
 30
0.0
 42
-0.0907749721882367
  0
VERTEX
  5
2C1
  8
SignTorch_BUCK_MULE_DEER_
 10
13.13793021722883
 20
12.66901131920202
 30
0.0
 42
0.1429452195055748
  0
VERTEX
  5
2C2
  8
SignTorch_BUCK_MULE_DEER_
 10
13.11966643012153
 20
12.65365475419786
 30
0.0
 42
0.2424635491552856
  0
VERTEX
  5
2C3
  8
SignTorch_BUCK_MULE_DEER_
 10
13.11742380960686
 20
12.63370488493869
 30
0.0
 42
0.0056624853850602
  0
VERTEX
  5
2C4
  8
SignTorch_BUCK_MULE_DEER_
 10
13.1255675531684
 20
12.61302365068224
 30
0.0
 42
-0.0885421793175252
  0
VERTEX
  5
2C5
  8
SignTorch_BUCK_MULE_DEER_
 10
13.12986458304204
 20
12.59284638098515
 30
0.0
 42
-0.1076307264172098
  0
VERTEX
  5
2C6
  8
SignTorch_BUCK_MULE_DEER_
 10
13.12679435980903
 20
12.57609127763536
 30
0.0
 42
-0.033758561033437
  0
VERTEX
  5
2C7
  8
SignTorch_BUCK_MULE_DEER_
 10
13.11786276197388
 20
12.55820619426458
 30
0.0
 42
0.1045501888672878
  0
VERTEX
  5
2C8
  8
SignTorch_BUCK_MULE_DEER_
 10
13.1115304437934
 20
12.53924435380724
 30
0.0
 42
0.1153987760168385
  0
VERTEX
  5
2C9
  8
SignTorch_BUCK_MULE_DEER_
 10
13.11736033510157
 20
12.48913323525238
 30
0.0
 42
-0.0542974481954805
  0
VERTEX
  5
2CA
  8
SignTorch_BUCK_MULE_DEER_
 10
13.12921061957465
 20
12.44009567216661
 30
0.0
 42
-0.1266129724635183
  0
VERTEX
  5
2CB
  8
SignTorch_BUCK_MULE_DEER_
 10
13.12342219755082
 20
12.39337366871572
 30
0.0
 42
0.0648477636177968
  0
VERTEX
  5
2CC
  8
SignTorch_BUCK_MULE_DEER_
 10
13.1172531000434
 20
12.36876583818224
 30
0.0
 42
0.2123222205342387
  0
VERTEX
  5
2CD
  8
SignTorch_BUCK_MULE_DEER_
 10
13.12501537004772
 20
12.34387638314075
 30
0.0
 42
0.096744413932138
  0
VERTEX
  5
2CE
  8
SignTorch_BUCK_MULE_DEER_
 10
13.1687687250434
 20
12.31011740068224
 30
0.0
 42
0.1012877107355604
  0
VERTEX
  5
2CF
  8
SignTorch_BUCK_MULE_DEER_
 10
13.19632775571504
 20
12.30271549992028
 30
0.0
 42
0.1677021618053335
  0
VERTEX
  5
2D0
  8
SignTorch_BUCK_MULE_DEER_
 10
13.2284991937934
 20
12.31168185380724
 30
0.0
 42
0.07265175501991
  0
VERTEX
  5
2D1
  8
SignTorch_BUCK_MULE_DEER_
 10
13.25788947180939
 20
12.33901612252061
 30
0.0
 42
-0.0460104099171235
  0
VERTEX
  5
2D2
  8
SignTorch_BUCK_MULE_DEER_
 10
13.28578776801215
 20
12.36787155107286
 30
0.0
 42
-0.2090413934693181
  0
VERTEX
  5
2D3
  8
SignTorch_BUCK_MULE_DEER_
 10
13.35575718758315
 20
12.38937445132862
 30
0.0
 42
-0.1954851171267579
  0
VERTEX
  5
2D4
  8
SignTorch_BUCK_MULE_DEER_
 10
13.3817023187934
 20
12.37519747880724
 30
0.0
 42
-0.2963223506211126
  0
VERTEX
  5
2D5
  8
SignTorch_BUCK_MULE_DEER_
 10
13.38515521612244
 20
12.34348227469468
 30
0.0
 42
-0.0701194517880263
  0
VERTEX
  5
2D6
  8
SignTorch_BUCK_MULE_DEER_
 10
13.3588663812934
 20
12.30568576005724
 30
0.0
 42
-0.0236475286263107
  0
VERTEX
  5
2D7
  8
SignTorch_BUCK_MULE_DEER_
 10
13.33222073996262
 20
12.27954798963336
 30
0.0
 42
0.1059875734581386
  0
VERTEX
  5
2D8
  8
SignTorch_BUCK_MULE_DEER_
 10
13.3203458734809
 20
12.26329952958849
 30
0.0
 42
0.3307362302026841
  0
VERTEX
  5
2D9
  8
SignTorch_BUCK_MULE_DEER_
 10
13.32620187986168
 20
12.23697501024044
 30
0.0
 42
0.029910013201616
  0
VERTEX
  5
2DA
  8
SignTorch_BUCK_MULE_DEER_
 10
13.3469991937934
 20
12.22105685380724
 30
0.0
 42
-0.050763539114586
  0
VERTEX
  5
2DB
  8
SignTorch_BUCK_MULE_DEER_
 10
13.37111374646729
 20
12.20095400690731
 30
0.0
 42
-0.2691639391868133
  0
VERTEX
  5
2DC
  8
SignTorch_BUCK_MULE_DEER_
 10
13.37593107855903
 20
12.18197482255724
 30
0.0
 42
-0.2375286901166906
  0
VERTEX
  5
2DD
  8
SignTorch_BUCK_MULE_DEER_
 10
13.36184741397836
 20
12.16666497664925
 30
0.0
 42
-0.1026685234447027
  0
VERTEX
  5
2DE
  8
SignTorch_BUCK_MULE_DEER_
 10
13.29410100043403
 20
12.15600607255724
 30
0.0
 42
-0.0598020349188892
  0
VERTEX
  5
2DF
  8
SignTorch_BUCK_MULE_DEER_
 10
13.24382240460795
 20
12.16453458986634
 30
0.0
 42
-0.0879230634591171
  0
VERTEX
  5
2E0
  8
SignTorch_BUCK_MULE_DEER_
 10
13.18577141059028
 20
12.19350460771349
 30
0.0
 42
-0.0401357555927148
  0
VERTEX
  5
2E1
  8
SignTorch_BUCK_MULE_DEER_
 10
13.13570062788045
 20
12.23728793383451
 30
0.0
 42
0.05765548050678
  0
VERTEX
  5
2E2
  8
SignTorch_BUCK_MULE_DEER_
 10
13.08413029730903
 20
12.27929464677599
 30
0.0
 42
0.0733297891716669
  0
VERTEX
  5
2E3
  8
SignTorch_BUCK_MULE_DEER_
 10
13.04987227862373
 20
12.29467436905874
 30
0.0
 42
0.1728728867232348
  0
VERTEX
  5
2E4
  8
SignTorch_BUCK_MULE_DEER_
 10
12.9886066156684
 20
12.29057638505724
 30
0.0
 42
0.0644239922160695
  0
VERTEX
  5
2E5
  8
SignTorch_BUCK_MULE_DEER_
 10
12.95567187309918
 20
12.27093172766232
 30
0.0
 42
0.046414871969348
  0
VERTEX
  5
2E6
  8
SignTorch_BUCK_MULE_DEER_
 10
12.9171398187934
 20
12.23436349443224
 30
0.0
 42
0.0448656762388339
  0
VERTEX
  5
2E7
  8
SignTorch_BUCK_MULE_DEER_
 10
12.90196238382337
 20
12.21350815317812
 30
0.0
 42
0.4110467228301436
  0
VERTEX
  5
2E8
  8
SignTorch_BUCK_MULE_DEER_
 10
12.9085128656684
 20
12.18680416826036
 30
0.0
 42
0.1092515639205538
  0
VERTEX
  5
2E9
  8
SignTorch_BUCK_MULE_DEER_
 10
12.92841770626621
 20
12.17992793658346
 30
0.0
 42
0.002921398431669
  0
VERTEX
  5
2EA
  8
SignTorch_BUCK_MULE_DEER_
 10
12.9819991937934
 20
12.17405685380724
 30
0.0
 42
-0.0638156791184352
  0
VERTEX
  5
2EB
  8
SignTorch_BUCK_MULE_DEER_
 10
13.02894433175234
 20
12.1630276509344
 30
0.0
 42
-0.237959327805069
  0
VERTEX
  5
2EC
  8
SignTorch_BUCK_MULE_DEER_
 10
13.0527863031684
 20
12.13719552568224
 30
0.0
 42
-0.2211285476583855
  0
VERTEX
  5
2ED
  8
SignTorch_BUCK_MULE_DEER_
 10
13.04747337727315
 20
12.10366125798733
 30
0.0
 42
-0.1600548764576114
  0
VERTEX
  5
2EE
  8
SignTorch_BUCK_MULE_DEER_
 10
12.99038176215278
 20
12.05926071122911
 30
0.0
 42
-0.1325938957933052
  0
VERTEX
  5
2EF
  8
SignTorch_BUCK_MULE_DEER_
 10
12.89654178508543
 20
12.05174391381161
 30
0.0
 42
-0.209481689056556
  0
VERTEX
  5
2F0
  8
SignTorch_BUCK_MULE_DEER_
 10
12.84597777045356
 20
12.08609292558458
 30
0.0
 42
-0.101749094936826
  0
VERTEX
  5
2F1
  8
SignTorch_BUCK_MULE_DEER_
 10
12.82761206202431
 20
12.13513910833653
 30
0.0
 42
0.0090410756015
  0
VERTEX
  5
2F2
  8
SignTorch_BUCK_MULE_DEER_
 10
12.81454655707465
 20
12.20965402177599
 30
0.0
 42
0.0603571629042406
  0
VERTEX
  5
2F3
  8
SignTorch_BUCK_MULE_DEER_
 10
12.78906209225288
 20
12.28860616054839
 30
0.0
 42
-0.0829737553746669
  0
VERTEX
  5
2F4
  8
SignTorch_BUCK_MULE_DEER_
 10
12.7772648187934
 20
12.33169747880724
 30
0.0
 42
-0.120547571664779
  0
VERTEX
  5
2F5
  8
SignTorch_BUCK_MULE_DEER_
 10
12.78066743020122
 20
12.35614715973007
 30
0.0
 42
-0.1378214180798124
  0
VERTEX
  5
2F6
  8
SignTorch_BUCK_MULE_DEER_
 10
12.79382853949653
 20
12.37338326982286
 30
0.0
 42
-0.0888965377458023
  0
VERTEX
  5
2F7
  8
SignTorch_BUCK_MULE_DEER_
 10
12.81833479781734
 20
12.38575210999931
 30
0.0
 42
0.0001017131652267
  0
VERTEX
  5
2F8
  8
SignTorch_BUCK_MULE_DEER_
 10
12.8929991937934
 20
12.40805685380724
 30
0.0
 42
0.0479615906246096
  0
VERTEX
  5
2F9
  8
SignTorch_BUCK_MULE_DEER_
 10
12.96007387048399
 20
12.43534226950413
 30
0.0
 42
0.1407346131612937
  0
VERTEX
  5
2FA
  8
SignTorch_BUCK_MULE_DEER_
 10
12.97824183905708
 20
12.45267343095568
 30
0.0
 42
0.2918748463256624
  0
VERTEX
  5
2FB
  8
SignTorch_BUCK_MULE_DEER_
 10
12.9771731287936
 20
12.48031906808363
 30
0.0
 42
0.0827920371654999
  0
VERTEX
  5
2FC
  8
SignTorch_BUCK_MULE_DEER_
 10
12.9516613031684
 20
12.50653341630724
 30
0.0
 42
0.0459859550821984
  0
VERTEX
  5
2FD
  8
SignTorch_BUCK_MULE_DEER_
 10
12.87722612671065
 20
12.55134092380568
 30
0.0
 42
-0.0777433717052618
  0
VERTEX
  5
2FE
  8
SignTorch_BUCK_MULE_DEER_
 10
12.83874357855903
 20
12.57795919755724
 30
0.0
 42
-0.1213751028773635
  0
VERTEX
  5
2FF
  8
SignTorch_BUCK_MULE_DEER_
 10
12.8156666351384
 20
12.61404806925282
 30
0.0
 42
-0.1295104698123443
  0
VERTEX
  5
300
  8
SignTorch_BUCK_MULE_DEER_
 10
12.81286250556098
 20
12.65417648271348
 30
0.0
 42
-0.1230679681633067
  0
VERTEX
  5
301
  8
SignTorch_BUCK_MULE_DEER_
 10
12.83883708421856
 20
12.71040768010476
 30
0.0
 42
-0.1052386092845466
  0
VERTEX
  5
302
  8
SignTorch_BUCK_MULE_DEER_
 10
12.98166252387153
 20
12.82672482255724
 30
0.0
 42
-0.0365062180999962
  0
VERTEX
  5
303
  8
SignTorch_BUCK_MULE_DEER_
 10
13.03097528222923
 20
12.84761898929856
 30
0.0
 42
-0.0560022875233548
  0
SEQEND
  5
304
  8
SignTorch_BUCK_MULE_DEER_
  0
POLYLINE
  5
4C
  8
SignTorch_BUCK_MULE_DEER_
 66
     1
 10
0.0
 20
0.0
 30
0.0
 70
     1
  0
VERTEX
  5
305
  8
SignTorch_BUCK_MULE_DEER_
 10
12.17953801215278
 20
12.82957492021349
 30
0.0
 42
-0.1261670984579522
  0
VERTEX
  5
306
  8
SignTorch_BUCK_MULE_DEER_
 10
12.21313658374031
 20
12.82754918766334
 30
0.0
 42
-0.1192247478540142
  0
VERTEX
  5
307
  8
SignTorch_BUCK_MULE_DEER_
 10
12.2926398187934
 20
12.77896310380724
 30
0.0
 42
-0.1123686252625407
  0
VERTEX
  5
308
  8
SignTorch_BUCK_MULE_DEER_
 10
12.31866223362306
 20
12.73755909839963
 30
0.0
 42
-0.3591381435270264
  0
VERTEX
  5
309
  8
SignTorch_BUCK_MULE_DEER_
 10
12.31277638495551
 20
12.72154772905138
 30
0.0
 42
-0.1945920037782445
  0
VERTEX
  5
30A
  8
SignTorch_BUCK_MULE_DEER_
 10
12.29464828373347
 20
12.71890872101081
 30
0.0
 42
-0.0832506625033628
  0
VERTEX
  5
30B
  8
SignTorch_BUCK_MULE_DEER_
 10
12.21082707465278
 20
12.75493600419786
 30
0.0
 42
-0.0629976589842485
  0
VERTEX
  5
30C
  8
SignTorch_BUCK_MULE_DEER_
 10
12.16522547910001
 20
12.79318118848952
 30
0.0
 42
-0.1945779849498662
  0
VERTEX
  5
30D
  8
SignTorch_BUCK_MULE_DEER_
 10
12.1581573969184
 20
12.81180490068224
 30
0.0
 42
-0.2172585977743856
  0
VERTEX
  5
30E
  8
SignTorch_BUCK_MULE_DEER_
 10
12.1629397314946
 20
12.82171790774297
 30
0.0
 42
-0.1263272645788381
  0
SEQEND
  5
30F
  8
SignTorch_BUCK_MULE_DEER_
  0
POLYLINE
  5
4D
  8
SignTorch_BUCK_MULE_DEER_
 66
     1
 10
0.0
 20
0.0
 30
0.0
 70
     1
  0
VERTEX
  5
310
  8
SignTorch_BUCK_MULE_DEER_
 10
12.19672209418403
 20
12.67840499833849
 30
0.0
 42
-0.2059616439182163
  0
VERTEX
  5
311
  8
SignTorch_BUCK_MULE_DEER_
 10
12.26088091183191
 20
12.65363008341242
 30
0.0
 42
-0.044640123227909
  0
VERTEX
  5
312
  8
SignTorch_BUCK_MULE_DEER_
 10
12.2963585687934
 20
12.61208810380724
 30
0.0
 42
-0.0142828803810564
  0
VERTEX
  5
313
  8
SignTorch_BUCK_MULE_DEER_
 10
12.31745054552482
 20
12.58052100976094
 30
0.0
 42
0.0477525144705324
  0
VERTEX
  5
314
  8
SignTorch_BUCK_MULE_DEER_
 10
12.3406046625434
 20
12.55043380693224
 30
0.0
 42
0.0526044156514312
  0
VERTEX
  5
315
  8
SignTorch_BUCK_MULE_DEER_
 10
12.38035657038374
 20
12.51596444451785
 30
0.0
 42
-0.1193803588232949
  0
VERTEX
  5
316
  8
SignTorch_BUCK_MULE_DEER_
 10
12.4450187250434
 20
12.44282052568224
 30
0.0
 42
-0.0389768755776567
  0
VERTEX
  5
317
  8
SignTorch_BUCK_MULE_DEER_
 10
12.46146324148871
 20
12.40481633383721
 30
0.0
 42
0.093423021954835
  0
VERTEX
  5
318
  8
SignTorch_BUCK_MULE_DEER_
 10
12.4994366937934
 20
12.33799435380724
 30
0.0
 42
0.0939103595693461
  0
VERTEX
  5
319
  8
SignTorch_BUCK_MULE_DEER_
 10
12.54910682808174
 20
12.29779090399899
 30
0.0
 42
-0.0554453943821435
  0
VERTEX
  5
31A
  8
SignTorch_BUCK_MULE_DEER_
 10
12.5774366937934
 20
12.27824435380724
 30
0.0
 42
-0.1041660166997148
  0
VERTEX
  5
31B
  8
SignTorch_BUCK_MULE_DEER_
 10
12.60577974685285
 20
12.24084286055889
 30
0.0
 42
0.0449192235942598
  0
VERTEX
  5
31C
  8
SignTorch_BUCK_MULE_DEER_
 10
12.6295304437934
 20
12.20036935380724
 30
0.0
 42
-0.0095927867781753
  0
VERTEX
  5
31D
  8
SignTorch_BUCK_MULE_DEER_
 10
12.67260493384244
 20
12.13757823131873
 30
0.0
 42
-0.1081008645070226
  0
VERTEX
  5
31E
  8
SignTorch_BUCK_MULE_DEER_
 10
12.68557390082465
 20
12.10381271318224
 30
0.0
 42
-0.1475954867907213
  0
VERTEX
  5
31F
  8
SignTorch_BUCK_MULE_DEER_
 10
12.68182441901108
 20
12.07753408074243
 30
0.0
 42
-0.2724067451291704
  0
VERTEX
  5
320
  8
SignTorch_BUCK_MULE_DEER_
 10
12.6693800531684
 20
12.06894552568224
 30
0.0
 42
-0.1253737552192944
  0
VERTEX
  5
321
  8
SignTorch_BUCK_MULE_DEER_
 10
12.65140579367569
 20
12.07216552379812
 30
0.0
 42
-0.0429835102243056
  0
VERTEX
  5
322
  8
SignTorch_BUCK_MULE_DEER_
 10
12.6056241937934
 20
12.09793185380724
 30
0.0
 42
-0.0163834209007037
  0
VERTEX
  5
323
  8
SignTorch_BUCK_MULE_DEER_
 10
12.54769549905078
 20
12.14028421468891
 30
0.0
 42
0.1255916164513373
  0
VERTEX
  5
324
  8
SignTorch_BUCK_MULE_DEER_
 10
12.5122394281684
 20
12.15587155107286
 30
0.0
 42
0.1526438139294092
  0
VERTEX
  5
325
  8
SignTorch_BUCK_MULE_DEER_
 10
12.4426293657426
 20
12.14615904351655
 30
0.0
 42
0.1790281319383945
  0
VERTEX
  5
326
  8
SignTorch_BUCK_MULE_DEER_
 10
12.3259991937934
 20
12.02705685380724
 30
0.0
 42
0.0908149543247746
  0
VERTEX
  5
327
  8
SignTorch_BUCK_MULE_DEER_
 10
12.31912012003563
 20
11.99888258135558
 30
0.0
 42
0.2232277227380983
  0
VERTEX
  5
328
  8
SignTorch_BUCK_MULE_DEER_
 10
12.3363524347602
 20
11.95585226396349
 30
0.0
 42
0.1149976010204666
  0
VERTEX
  5
329
  8
SignTorch_BUCK_MULE_DEER_
 10
12.37214440628718
 20
11.93528101742729
 30
0.0
 42
0.1041609246748441
  0
VERTEX
  5
32A
  8
SignTorch_BUCK_MULE_DEER_
 10
12.4898273187934
 20
11.92524435380724
 30
0.0
 42
0.0429693069753207
  0
VERTEX
  5
32B
  8
SignTorch_BUCK_MULE_DEER_
 10
12.53354553042799
 20
11.93448851434856
 30
0.0
 42
0.0430106262178301
  0
VERTEX
  5
32C
  8
SignTorch_BUCK_MULE_DEER_
 10
12.5749991937934
 20
11.95105685380724
 30
0.0
 42
-0.036069818482113
  0
VERTEX
  5
32D
  8
SignTorch_BUCK_MULE_DEER_
 10
12.61638098163113
 20
11.968265383543
 30
0.0
 42
-0.1733981343266938
  0
VERTEX
  5
32E
  8
SignTorch_BUCK_MULE_DEER_
 10
12.6451085687934
 20
11.96765060380724
 30
0.0
 42
-0.3914580923257807
  0
VERTEX
  5
32F
  8
SignTorch_BUCK_MULE_DEER_
 10
12.65899515211669
 20
11.93960646602553
 30
0.0
 42
-0.1146152494607682
  0
VERTEX
  5
330
  8
SignTorch_BUCK_MULE_DEER_
 10
12.6393253656684
 20
11.90482638505724
 30
0.0
 42
-0.1006722525618692
  0
VERTEX
  5
331
  8
SignTorch_BUCK_MULE_DEER_
 10
12.59048994736025
 20
11.86942936854753
 30
0.0
 42
-0.0704403399147437
  0
VERTEX
  5
332
  8
SignTorch_BUCK_MULE_DEER_
 10
12.50821126044379
 20
11.84524551347521
 30
0.0
 42
0.0032731693302048
  0
VERTEX
  5
333
  8
SignTorch_BUCK_MULE_DEER_
 10
12.47915969839139
 20
11.84080209700136
 30
0.0
 42
0.0768006112681091
  0
VERTEX
  5
334
  8
SignTorch_BUCK_MULE_DEER_
 10
12.45295988715278
 20
11.83236276201036
 30
0.0
 42
0.0568276143559471
  0
VERTEX
  5
335
  8
SignTorch_BUCK_MULE_DEER_
 10
12.41412845630436
 20
11.80700739809003
 30
0.0
 42
-0.1117262388085608
  0
VERTEX
  5
336
  8
SignTorch_BUCK_MULE_DEER_
 10
12.3918448969184
 20
11.79570333818224
 30
0.0
 42
-0.2020814055765249
  0
VERTEX
  5
337
  8
SignTorch_BUCK_MULE_DEER_
 10
12.35088185358061
 20
11.80197246826268
 30
0.0
 42
-0.020383322266299
  0
VERTEX
  5
338
  8
SignTorch_BUCK_MULE_DEER_
 10
12.3179991937934
 20
11.82405685380724
 30
0.0
 42
0.0330323023452273
  0
VERTEX
  5
339
  8
SignTorch_BUCK_MULE_DEER_
 10
12.25444282881928
 20
11.86444911444962
 30
0.0
 42
-0.2001086270842373
  0
VERTEX
  5
33A
  8
SignTorch_BUCK_MULE_DEER_
 10
12.22894377387153
 20
11.89626046708849
 30
0.0
 42
-0.1291279114015395
  0
VERTEX
  5
33B
  8
SignTorch_BUCK_MULE_DEER_
 10
12.22789443674671
 20
11.94022470165364
 30
0.0
 42
0.0596830667358901
  0
VERTEX
  5
33C
  8
SignTorch_BUCK_MULE_DEER_
 10
12.2371554437934
 20
12.02129122880724
 30
0.0
 42
0.0146941771884749
  0
VERTEX
  5
33D
  8
SignTorch_BUCK_MULE_DEER_
 10
12.23549536628488
 20
12.06888710699744
 30
0.0
 42
-0.0484104946953981
  0
VERTEX
  5
33E
  8
SignTorch_BUCK_MULE_DEER_
 10
12.23704265082465
 20
12.11648678544786
 30
0.0
 42
-0.0811042460214999
  0
VERTEX
  5
33F
  8
SignTorch_BUCK_MULE_DEER_
 10
12.2633827494628
 20
12.20440284776662
 30
0.0
 42
-0.1628506827045592
  0
VERTEX
  5
340
  8
SignTorch_BUCK_MULE_DEER_
 10
12.28486686957465
 20
12.22630270341661
 30
0.0
 42
-0.0911731231511917
  0
VERTEX
  5
341
  8
SignTorch_BUCK_MULE_DEER_
 10
12.31911792105519
 20
12.2365337264061
 30
0.0
 42
0.0631262279084053
  0
VERTEX
  5
342
  8
SignTorch_BUCK_MULE_DEER_
 10
12.3538859125434
 20
12.24484005693224
 30
0.0
 42
0.1167330954704321
  0
VERTEX
  5
343
  8
SignTorch_BUCK_MULE_DEER_
 10
12.3680517595492
 20
12.25438678215247
 30
0.0
 42
0.1789474645347719
  0
VERTEX
  5
344
  8
SignTorch_BUCK_MULE_DEER_
 10
12.3723781000434
 20
12.26487521318224
 30
0.0
 42
0.1285231094870198
  0
VERTEX
  5
345
  8
SignTorch_BUCK_MULE_DEER_
 10
12.36876189173642
 20
12.28115599781158
 30
0.0
 42
0.0649680634894378
  0
VERTEX
  5
346
  8
SignTorch_BUCK_MULE_DEER_
 10
12.3405265375434
 20
12.32207833818224
 30
0.0
 42
-0.0869138893694107
  0
VERTEX
  5
347
  8
SignTorch_BUCK_MULE_DEER_
 10
12.33444501837552
 20
12.33177146414162
 30
0.0
 42
-0.0512925860685019
  0
VERTEX
  5
348
  8
SignTorch_BUCK_MULE_DEER_
 10
12.3290304437934
 20
12.35029122880724
 30
0.0
 42
-0.0177516085136198
  0
VERTEX
  5
349
  8
SignTorch_BUCK_MULE_DEER_
 10
12.31806646400823
 20
12.42462286509577
 30
0.0
 42
0.0981004728222378
  0
VERTEX
  5
34A
  8
SignTorch_BUCK_MULE_DEER_
 10
12.3058429437934
 20
12.46324435380724
 30
0.0
 42
0.0957938444287552
  0
VERTEX
  5
34B
  8
SignTorch_BUCK_MULE_DEER_
 10
12.28792410608096
 20
12.48481870251896
 30
0.0
 42
0.0645357583297756
  0
VERTEX
  5
34C
  8
SignTorch_BUCK_MULE_DEER_
 10
12.2527804437934
 20
12.50674435380724
 30
0.0
 42
-0.0139125878699836
  0
VERTEX
  5
34D
  8
SignTorch_BUCK_MULE_DEER_
 10
12.2250664655066
 20
12.52036247721255
 30
0.0
 42
-0.0827026480376194
  0
VERTEX
  5
34E
  8
SignTorch_BUCK_MULE_DEER_
 10
12.2107550531684
 20
12.53123263505724
 30
0.0
 42
-0.0599869009957972
  0
VERTEX
  5
34F
  8
SignTorch_BUCK_MULE_DEER_
 10
12.18338822755992
 20
12.56827024266442
 30
0.0
 42
-0.0553210400620271
  0
VERTEX
  5
350
  8
SignTorch_BUCK_MULE_DEER_
 10
12.16367766059028
 20
12.61412179521349
 30
0.0
 42
-0.0706299767114658
  0
VERTEX
  5
351
  8
SignTorch_BUCK_MULE_DEER_
 10
12.1586403459349
 20
12.64647875003905
 30
0.0
 42
-0.3683044987374779
  0
VERTEX
  5
352
  8
SignTorch_BUCK_MULE_DEER_
 10
12.1839991937934
 20
12.67705685380724
 30
0.0
 42
-0.0167743750276491
  0
VERTEX
  5
353
  8
SignTorch_BUCK_MULE_DEER_
 10
12.19037301105148
 20
12.6779493037576
 30
0.0
 42
-0.016960471467738
  0
SEQEND
  5
354
  8
SignTorch_BUCK_MULE_DEER_
  0
POLYLINE
  5
4E
  8
SignTorch_BUCK_MULE_DEER_
 66
     1
 10
0.0
 20
0.0
 30
0.0
 70
     1
  0
VERTEX
  5
355
  8
SignTorch_BUCK_MULE_DEER_
 10
13.81800261176215
 20
12.67847360185411
 30
0.0
 42
-0.1109133210401449
  0
VERTEX
  5
356
  8
SignTorch_BUCK_MULE_DEER_
 10
13.85541653611517
 20
12.67263775665961
 30
0.0
 42
-0.3055573636039929
  0
VERTEX
  5
357
  8
SignTorch_BUCK_MULE_DEER_
 10
13.8878429437934
 20
12.62544747880724
 30
0.0
 42
-0.1355641349221081
  0
VERTEX
  5
358
  8
SignTorch_BUCK_MULE_DEER_
 10
13.87683283714121
 20
12.58414862727944
 30
0.0
 42
-0.170411837158354
  0
VERTEX
  5
359
  8
SignTorch_BUCK_MULE_DEER_
 10
13.8024239984809
 20
12.52106759599474
 30
0.0
 42
-0.0621956575482418
  0
VERTEX
  5
35A
  8
SignTorch_BUCK_MULE_DEER_
 10
13.75173873643766
 20
12.50858981924022
 30
0.0
 42
-0.0086621940573017
  0
VERTEX
  5
35B
  8
SignTorch_BUCK_MULE_DEER_
 10
13.6559366937934
 20
12.49899435380724
 30
0.0
 42
0.0279531784491933
  0
VERTEX
  5
35C
  8
SignTorch_BUCK_MULE_DEER_
 10
13.58072662148361
 20
12.48851874940436
 30
0.0
 42
0.0878391104709326
  0
VERTEX
  5
35D
  8
SignTorch_BUCK_MULE_DEER_
 10
13.5580363031684
 20
12.47973068193224
 30
0.0
 42
0.0432694357304818
  0
VERTEX
  5
35E
  8
SignTorch_BUCK_MULE_DEER_
 10
13.52761148202044
 20
12.45749022687623
 30
0.0
 42
-0.1170348283670682
  0
VERTEX
  5
35F
  8
SignTorch_BUCK_MULE_DEER_
 10
13.49426555121527
 20
12.43993014482286
 30
0.0
 42
-0.1893601202711447
  0
VERTEX
  5
360
  8
SignTorch_BUCK_MULE_DEER_
 10
13.45433903372932
 20
12.44484960982926
 30
0.0
 42
-0.1278619282036316
  0
VERTEX
  5
361
  8
SignTorch_BUCK_MULE_DEER_
 10
13.38723967230903
 20
12.50751315263536
 30
0.0
 42
-0.0876326714321583
  0
VERTEX
  5
362
  8
SignTorch_BUCK_MULE_DEER_
 10
13.37780919035351
 20
12.53042881350972
 30
0.0
 42
-0.3083043749247188
  0
VERTEX
  5
363
  8
SignTorch_BUCK_MULE_DEER_
 10
13.39054298651801
 20
12.56207757524279
 30
0.0
 42
-0.1112800432747564
  0
VERTEX
  5
364
  8
SignTorch_BUCK_MULE_DEER_
 10
13.41892983420749
 20
12.57303895668743
 30
0.0
 42
-0.0405258622787059
  0
VERTEX
  5
365
  8
SignTorch_BUCK_MULE_DEER_
 10
13.5014210687934
 20
12.57847872880724
 30
0.0
 42
-0.0128991298857828
  0
VERTEX
  5
366
  8
SignTorch_BUCK_MULE_DEER_
 10
13.55212290372857
 20
12.57640102639189
 30
0.0
 42
0.0603044770144547
  0
VERTEX
  5
367
  8
SignTorch_BUCK_MULE_DEER_
 10
13.6027941156684
 20
12.57912521318224
 30
0.0
 42
0.0942252257789375
  0
VERTEX
  5
368
  8
SignTorch_BUCK_MULE_DEER_
 10
13.66513617985216
 20
12.6027383245159
 30
0.0
 42
0.0095250851109739
  0
VERTEX
  5
369
  8
SignTorch_BUCK_MULE_DEER_
 10
13.7188644281684
 20
12.63710177568224
 30
0.0
 42
-0.0358522901101832
  0
VERTEX
  5
36A
  8
SignTorch_BUCK_MULE_DEER_
 10
13.7693537824247
 20
12.66576853730659
 30
0.0
 42
-0.0949150535617913
  0
SEQEND
  5
36B
  8
SignTorch_BUCK_MULE_DEER_
  0
POLYLINE
  5
4F
  8
SignTorch_BUCK_MULE_DEER_
 66
     1
 10
0.0
 20
0.0
 30
0.0
 70
     1
  0
VERTEX
  5
36C
  8
SignTorch_BUCK_MULE_DEER_
 10
11.27272307074653
 20
12.66085714677599
 30
0.0
 42
-0.2193407878827852
  0
VERTEX
  5
36D
  8
SignTorch_BUCK_MULE_DEER_
 10
11.28888019437128
 20
12.65465720513906
 30
0.0
 42
-0.1087085569889166
  0
VERTEX
  5
36E
  8
SignTorch_BUCK_MULE_DEER_
 10
11.3066710687934
 20
12.62602560380724
 30
0.0
 42
-0.0771327866783542
  0
VERTEX
  5
36F
  8
SignTorch_BUCK_MULE_DEER_
 10
11.3213250218307
 20
12.54791895379458
 30
0.0
 42
-0.1888306209914918
  0
VERTEX
  5
370
  8
SignTorch_BUCK_MULE_DEER_
 10
11.3101241937934
 20
12.51643185380724
 30
0.0
 42
-0.0780398682298776
  0
VERTEX
  5
371
  8
SignTorch_BUCK_MULE_DEER_
 10
11.28655620255268
 20
12.49658088907758
 30
0.0
 42
0.1170306235476531
  0
VERTEX
  5
372
  8
SignTorch_BUCK_MULE_DEER_
 10
11.24577434027777
 20
12.45645944169786
 30
0.0
 42
0.0966046357711357
  0
VERTEX
  5
373
  8
SignTorch_BUCK_MULE_DEER_
 10
11.23768421341706
 20
12.43547361955057
 30
0.0
 42
0.2484314370624378
  0
VERTEX
  5
374
  8
SignTorch_BUCK_MULE_DEER_
 10
11.2438370844184
 20
12.41637521318224
 30
0.0
 42
0.1389184060130169
  0
VERTEX
  5
375
  8
SignTorch_BUCK_MULE_DEER_
 10
11.26072566342644
 20
12.40723525245944
 30
0.0
 42
0.0066609147236923
  0
VERTEX
  5
376
  8
SignTorch_BUCK_MULE_DEER_
 10
11.3054073969184
 20
12.39786740068224
 30
0.0
 42
-0.0743769352725799
  0
VERTEX
  5
377
  8
SignTorch_BUCK_MULE_DEER_
 10
11.32424472945955
 20
12.39116528335246
 30
0.0
 42
-0.0191501500007551
  0
VERTEX
  5
378
  8
SignTorch_BUCK_MULE_DEER_
 10
11.3909562250434
 20
12.35220333818224
 30
0.0
 42
-0.0536229712317631
  0
VERTEX
  5
379
  8
SignTorch_BUCK_MULE_DEER_
 10
11.45900151865245
 20
12.29784552134058
 30
0.0
 42
-0.1943830173363694
  0
VERTEX
  5
37A
  8
SignTorch_BUCK_MULE_DEER_
 10
11.48426335394965
 20
12.23902242997911
 30
0.0
 42
-0.0854232155114953
  0
VERTEX
  5
37B
  8
SignTorch_BUCK_MULE_DEER_
 10
11.4792562213687
 20
12.20561487519839
 30
0.0
 42
0.0297996040974086
  0
VERTEX
  5
37C
  8
SignTorch_BUCK_MULE_DEER_
 10
11.46316081488715
 20
12.14501901201036
 30
0.0
 42
0.057261205992907
  0
VERTEX
  5
37D
  8
SignTorch_BUCK_MULE_DEER_
 10
11.45719690417695
 20
12.07555399767559
 30
0.0
 42
-0.0519513862147407
  0
VERTEX
  5
37E
  8
SignTorch_BUCK_MULE_DEER_
 10
11.45438176215278
 20
12.03811764482286
 30
0.0
 42
-0.191243189021662
  0
VERTEX
  5
37F
  8
SignTorch_BUCK_MULE_DEER_
 10
11.42984212031311
 20
11.99869563881358
 30
0.0
 42
0.0071515029794565
  0
VERTEX
  5
380
  8
SignTorch_BUCK_MULE_DEER_
 10
11.3829991937934
 20
11.96305685380724
 30
0.0
 42
0.0925218532397002
  0
VERTEX
  5
381
  8
SignTorch_BUCK_MULE_DEER_
 10
11.34046347208055
 20
11.91471434269058
 30
0.0
 42
-0.0402920307655229
  0
VERTEX
  5
382
  8
SignTorch_BUCK_MULE_DEER_
 10
11.3203741937934
 20
11.88643185380724
 30
0.0
 42
-0.1296688557008262
  0
VERTEX
  5
383
  8
SignTorch_BUCK_MULE_DEER_
 10
11.3011366246302
 20
11.87284998518197
 30
0.0
 42
-0.167488535435398
  0
VERTEX
  5
384
  8
SignTorch_BUCK_MULE_DEER_
 10
11.28270939887153
 20
11.87239010576036
 30
0.0
 42
-0.1233695492537752
  0
VERTEX
  5
385
  8
SignTorch_BUCK_MULE_DEER_
 10
11.25507132970988
 20
11.88942821767518
 30
0.0
 42
0.0830738344409917
  0
VERTEX
  5
386
  8
SignTorch_BUCK_MULE_DEER_
 10
11.2288781000434
 20
11.90861349443224
 30
0.0
 42
0.0387012274238616
  0
VERTEX
  5
387
  8
SignTorch_BUCK_MULE_DEER_
 10
11.16826378694123
 20
11.93346162413829
 30
0.0
 42
-0.0607359052138679
  0
VERTEX
  5
388
  8
SignTorch_BUCK_MULE_DEER_
 10
11.1087999750434
 20
11.96094943193224
 30
0.0
 42
-0.0833753933474726
  0
VERTEX
  5
389
  8
SignTorch_BUCK_MULE_DEER_
 10
11.0818621585529
 20
11.98460873315077
 30
0.0
 42
-0.326969540660397
  0
VERTEX
  5
38A
  8
SignTorch_BUCK_MULE_DEER_
 10
11.07940690863715
 20
12.03204415849474
 30
0.0
 42
-0.227232158713111
  0
VERTEX
  5
38B
  8
SignTorch_BUCK_MULE_DEER_
 10
11.09937032831198
 20
12.04410898512511
 30
0.0
 42
-0.0654899393481303
  0
VERTEX
  5
38C
  8
SignTorch_BUCK_MULE_DEER_
 10
11.1302491937934
 20
12.04305685380724
 30
0.0
 42
-0.0188921685500359
  0
VERTEX
  5
38D
  8
SignTorch_BUCK_MULE_DEER_
 10
11.17711264064471
 20
12.03342865010005
 30
0.0
 42
0.0577249239222544
  0
VERTEX
  5
38E
  8
SignTorch_BUCK_MULE_DEER_
 10
11.26524186957465
 20
12.02234664872911
 30
0.0
 42
0.06748411319467
  0
VERTEX
  5
38F
  8
SignTorch_BUCK_MULE_DEER_
 10
11.33874668711784
 20
12.0315825455561
 30
0.0
 42
0.1418649639524117
  0
VERTEX
  5
390
  8
SignTorch_BUCK_MULE_DEER_
 10
11.36941179144965
 20
12.05003121904161
 30
0.0
 42
0.2667575876317319
  0
VERTEX
  5
391
  8
SignTorch_BUCK_MULE_DEER_
 10
11.38042397214682
 20
12.09793307308676
 30
0.0
 42
0.0899554179997938
  0
VERTEX
  5
392
  8
SignTorch_BUCK_MULE_DEER_
 10
11.35319597113715
 20
12.15089889482286
 30
0.0
 42
0.1034389439394609
  0
VERTEX
  5
393
  8
SignTorch_BUCK_MULE_DEER_
 10
11.28170684608483
 20
12.21239379521798
 30
0.0
 42
0.1620467834657575
  0
VERTEX
  5
394
  8
SignTorch_BUCK_MULE_DEER_
 10
11.22160637152778
 20
12.22351290849474
 30
0.0
 42
0.0741600622223685
  0
VERTEX
  5
395
  8
SignTorch_BUCK_MULE_DEER_
 10
11.16502334727094
 20
12.2068488261148
 30
0.0
 42
-0.027817323604009
  0
VERTEX
  5
396
  8
SignTorch_BUCK_MULE_DEER_
 10
11.1102198969184
 20
12.18503341630724
 30
0.0
 42
-0.0495173297206685
  0
VERTEX
  5
397
  8
SignTorch_BUCK_MULE_DEER_
 10
11.08917128095391
 20
12.18023220280901
 30
0.0
 42
-0.3864214976251524
  0
VERTEX
  5
398
  8
SignTorch_BUCK_MULE_DEER_
 10
11.06974016059028
 20
12.19387618974474
 30
0.0
 42
-0.0892525207977103
  0
VERTEX
  5
399
  8
SignTorch_BUCK_MULE_DEER_
 10
11.06882289922235
 20
12.21515091330646
 30
0.0
 42
-0.0751433083502496
  0
VERTEX
  5
39A
  8
SignTorch_BUCK_MULE_DEER_
 10
11.0869816156684
 20
12.27714279130724
 30
0.0
 42
-0.0608728910673788
  0
VERTEX
  5
39B
  8
SignTorch_BUCK_MULE_DEER_
 10
11.12487967067425
 20
12.33805706853154
 30
0.0
 42
0.0939562303389453
  0
VERTEX
  5
39C
  8
SignTorch_BUCK_MULE_DEER_
 10
11.1586925531684
 20
12.40133029130724
 30
0.0
 42
0.0412893035312635
  0
VERTEX
  5
39D
  8
SignTorch_BUCK_MULE_DEER_
 10
11.17318442113576
 20
12.46586671881418
 30
0.0
 42
-0.0158184057697548
  0
VERTEX
  5
39E
  8
SignTorch_BUCK_MULE_DEER_
 10
11.1843741937934
 20
12.53105685380724
 30
0.0
 42
-0.058651812198764
  0
VERTEX
  5
39F
  8
SignTorch_BUCK_MULE_DEER_
 10
11.21088576210709
 20
12.61138207008321
 30
0.0
 42
-0.1894026551521175
  0
VERTEX
  5
3A0
  8
SignTorch_BUCK_MULE_DEER_
 10
11.25870906317817
 20
12.6568777766588
 30
0.0
 42
-0.0273609253946882
  0
VERTEX
  5
3A1
  8
SignTorch_BUCK_MULE_DEER_
 10
11.26780590016932
 20
12.66000772390425
 30
0.0
 42
-0.0528570506300171
  0
SEQEND
  5
3A2
  8
SignTorch_BUCK_MULE_DEER_
  0
POLYLINE
  5
50
  8
SignTorch_BUCK_MULE_DEER_
 66
     1
 10
0.0
 20
0.0
 30
0.0
 70
     1
  0
VERTEX
  5
3A3
  8
SignTorch_BUCK_MULE_DEER_
 10
12.54026875556098
 20
12.55176303056505
 30
0.0
 42
-0.2724117055844797
  0
VERTEX
  5
3A4
  8
SignTorch_BUCK_MULE_DEER_
 10
12.56650850007427
 20
12.55080898276949
 30
0.0
 42
-0.0695707088850037
  0
VERTEX
  5
3A5
  8
SignTorch_BUCK_MULE_DEER_
 10
12.59440471137153
 20
12.52696798661974
 30
0.0
 42
-0.0517652532528409
  0
VERTEX
  5
3A6
  8
SignTorch_BUCK_MULE_DEER_
 10
12.63058081057122
 20
12.47642987552864
 30
0.0
 42
-0.0430091110872898
  0
VERTEX
  5
3A7
  8
SignTorch_BUCK_MULE_DEER_
 10
12.7107648187934
 20
12.30244747880724
 30
0.0
 42
-0.0122678627060853
  0
VERTEX
  5
3A8
  8
SignTorch_BUCK_MULE_DEER_
 10
12.73061219510931
 20
12.24282781139515
 30
0.0
 42
0.0084114029702189
  0
VERTEX
  5
3A9
  8
SignTorch_BUCK_MULE_DEER_
 10
12.7499991937934
 20
12.18305685380724
 30
0.0
 42
-0.0477787773114861
  0
VERTEX
  5
3AA
  8
SignTorch_BUCK_MULE_DEER_
 10
12.76455803904911
 20
12.12224515002224
 30
0.0
 42
-0.2000071076441714
  0
VERTEX
  5
3AB
  8
SignTorch_BUCK_MULE_DEER_
 10
12.7618253656684
 20
12.11177511552599
 30
0.0
 42
-0.4726369499553665
  0
VERTEX
  5
3AC
  8
SignTorch_BUCK_MULE_DEER_
 10
12.75344074700634
 20
12.11145928151381
 30
0.0
 42
-0.0741218102704414
  0
VERTEX
  5
3AD
  8
SignTorch_BUCK_MULE_DEER_
 10
12.7294366937934
 20
12.14830294755724
 30
0.0
 42
-0.0226684837747666
  0
VERTEX
  5
3AE
  8
SignTorch_BUCK_MULE_DEER_
 10
12.71436831724997
 20
12.18558109715977
 30
0.0
 42
0.0503328634912989
  0
VERTEX
  5
3AF
  8
SignTorch_BUCK_MULE_DEER_
 10
12.6826085687934
 20
12.25315060380724
 30
0.0
 42
0.0240375572524242
  0
VERTEX
  5
3B0
  8
SignTorch_BUCK_MULE_DEER_
 10
12.62278730866906
 20
12.34287662153575
 30
0.0
 42
-0.0629709638848021
  0
VERTEX
  5
3B1
  8
SignTorch_BUCK_MULE_DEER_
 10
12.5944152094184
 20
12.39356076005724
 30
0.0
 42
-0.0408845254557012
  0
VERTEX
  5
3B2
  8
SignTorch_BUCK_MULE_DEER_
 10
12.58659877798561
 20
12.41857874018709
 30
0.0
 42
0.074254764267285
  0
VERTEX
  5
3B3
  8
SignTorch_BUCK_MULE_DEER_
 10
12.5690304437934
 20
12.46396310380724
 30
0.0
 42
0.0431019567670858
  0
VERTEX
  5
3B4
  8
SignTorch_BUCK_MULE_DEER_
 10
12.54168119671438
 20
12.5036215400628
 30
0.0
 42
-0.100332200102565
  0
VERTEX
  5
3B5
  8
SignTorch_BUCK_MULE_DEER_
 10
12.5294679437934
 20
12.52652560380724
 30
0.0
 42
-0.1753311206299946
  0
VERTEX
  5
3B6
  8
SignTorch_BUCK_MULE_DEER_
 10
12.53028759457102
 20
12.54082749203515
 30
0.0
 42
-0.1693004429996134
  0
SEQEND
  5
3B7
  8
SignTorch_BUCK_MULE_DEER_
  0
POLYLINE
  5
51
  8
SignTorch_BUCK_MULE_DEER_
 66
     1
 10
0.0
 20
0.0
 30
0.0
 70
     1
  0
VERTEX
  5
3B8
  8
SignTorch_BUCK_MULE_DEER_
 10
10.36421257269965
 20
12.49556368974474
 30
0.0
 42
-0.0877736245018726
  0
VERTEX
  5
3B9
  8
SignTorch_BUCK_MULE_DEER_
 10
10.40086715496178
 20
12.49405053564144
 30
0.0
 42
-0.1600393384100995
  0
VERTEX
  5
3BA
  8
SignTorch_BUCK_MULE_DEER_
 10
10.43552116644965
 20
12.47357150224474
 30
0.0
 42
-0.0758211440034794
  0
VERTEX
  5
3BB
  8
SignTorch_BUCK_MULE_DEER_
 10
10.46032023438276
 20
12.43473743363665
 30
0.0
 42
0.054701249159978
  0
VERTEX
  5
3BC
  8
SignTorch_BUCK_MULE_DEER_
 10
10.48346452582465
 20
12.39489498857286
 30
0.0
 42
0.1111083050935907
  0
VERTEX
  5
3BD
  8
SignTorch_BUCK_MULE_DEER_
 10
10.54610129548329
 20
12.34062627781357
 30
0.0
 42
0.0023540801713325
  0
VERTEX
  5
3BE
  8
SignTorch_BUCK_MULE_DEER_
 10
10.6277062250434
 20
12.29731661943224
 30
0.0
 42
-0.0546609890614108
  0
VERTEX
  5
3BF
  8
SignTorch_BUCK_MULE_DEER_
 10
10.71099943456769
 20
12.24125375146253
 30
0.0
 42
-0.1003198178276654
  0
VERTEX
  5
3C0
  8
SignTorch_BUCK_MULE_DEER_
 10
10.73317521918403
 20
12.21321603349474
 30
0.0
 42
-0.2248028098408126
  0
VERTEX
  5
3C1
  8
SignTorch_BUCK_MULE_DEER_
 10
10.73470754597589
 20
12.15639261203773
 30
0.0
 42
-0.2652405297111121
  0
VERTEX
  5
3C2
  8
SignTorch_BUCK_MULE_DEER_
 10
10.66799211371528
 20
12.10703439286974
 30
0.0
 42
-0.1567946329142408
  0
VERTEX
  5
3C3
  8
SignTorch_BUCK_MULE_DEER_
 10
10.63301323405841
 20
12.11385718115756
 30
0.0
 42
-0.1198572303183449
  0
VERTEX
  5
3C4
  8
SignTorch_BUCK_MULE_DEER_
 10
10.5989991937934
 20
12.14505685380724
 30
0.0
 42
-0.0128174829846993
  0
VERTEX
  5
3C5
  8
SignTorch_BUCK_MULE_DEER_
 10
10.56374228478029
 20
12.2007566858348
 30
0.0
 42
0.118591340151827
  0
VERTEX
  5
3C6
  8
SignTorch_BUCK_MULE_DEER_
 10
10.5334679437934
 20
12.23168185380724
 30
0.0
 42
0.0386800189681632
  0
VERTEX
  5
3C7
  8
SignTorch_BUCK_MULE_DEER_
 10
10.48555187790424
 20
12.25678791617954
 30
0.0
 42
-0.0606640702415293
  0
VERTEX
  5
3C8
  8
SignTorch_BUCK_MULE_DEER_
 10
10.43878264105903
 20
12.28397067216661
 30
0.0
 42
-0.0733975986521663
  0
VERTEX
  5
3C9
  8
SignTorch_BUCK_MULE_DEER_
 10
10.39771026731734
 20
12.32577258823612
 30
0.0
 42
0.1875816883752069
  0
VERTEX
  5
3CA
  8
SignTorch_BUCK_MULE_DEER_
 10
10.3483683344184
 20
12.35739083818224
 30
0.0
 42
0.0507137888848198
  0
VERTEX
  5
3CB
  8
SignTorch_BUCK_MULE_DEER_
 10
10.31057255416807
 20
12.36109471404548
 30
0.0
 42
-0.1249237061549018
  0
VERTEX
  5
3CC
  8
SignTorch_BUCK_MULE_DEER_
 10
10.27372893012153
 20
12.37030270341661
 30
0.0
 42
-0.1685536986002867
  0
VERTEX
  5
3CD
  8
SignTorch_BUCK_MULE_DEER_
 10
10.25013281552992
 20
12.3959708122712
 30
0.0
 42
-0.1864678263390071
  0
VERTEX
  5
3CE
  8
SignTorch_BUCK_MULE_DEER_
 10
10.24884269965278
 20
12.42765573076036
 30
0.0
 42
-0.1642183028053102
  0
VERTEX
  5
3CF
  8
SignTorch_BUCK_MULE_DEER_
 10
10.27487853555556
 20
12.46165386749831
 30
0.0
 42
-0.1149743712081877
  0
SEQEND
  5
3D0
  8
SignTorch_BUCK_MULE_DEER_
  0
POLYLINE
  5
52
  8
SignTorch_BUCK_MULE_DEER_
 66
     1
 10
0.0
 20
0.0
 30
0.0
 70
     1
  0
VERTEX
  5
3D1
  8
SignTorch_BUCK_MULE_DEER_
 10
10.9585148187934
 20
12.22100997880724
 30
0.0
 42
-0.3703955374665892
  0
VERTEX
  5
3D2
  8
SignTorch_BUCK_MULE_DEER_
 10
10.97185177165147
 20
12.21136463323184
 30
0.0
 42
-0.0281848589721672
  0
VERTEX
  5
3D3
  8
SignTorch_BUCK_MULE_DEER_
 10
10.9779835687934
 20
12.17744747880724
 30
0.0
 42
-0.0445084817070279
  0
VERTEX
  5
3D4
  8
SignTorch_BUCK_MULE_DEER_
 10
10.98227850900355
 20
12.0494509936094
 30
0.0
 42
-0.0941460569524483
  0
VERTEX
  5
3D5
  8
SignTorch_BUCK_MULE_DEER_
 10
10.9726027094184
 20
12.01044552568224
 30
0.0
 42
-0.1772536873471253
  0
VERTEX
  5
3D6
  8
SignTorch_BUCK_MULE_DEER_
 10
10.95739698425936
 20
11.99512864020524
 30
0.0
 42
-0.2237962307443209
  0
VERTEX
  5
3D7
  8
SignTorch_BUCK_MULE_DEER_
 10
10.9399933344184
 20
11.99516622880724
 30
0.0
 42
-0.1346881616246506
  0
VERTEX
  5
3D8
  8
SignTorch_BUCK_MULE_DEER_
 10
10.92259253758073
 20
12.01013062599078
 30
0.0
 42
-0.1027363059959559
  0
VERTEX
  5
3D9
  8
SignTorch_BUCK_MULE_DEER_
 10
10.8946241937934
 20
12.07855685380724
 30
0.0
 42
-0.1020670793354032
  0
VERTEX
  5
3DA
  8
SignTorch_BUCK_MULE_DEER_
 10
10.89611854444748
 20
12.15264094177181
 30
0.0
 42
-0.2072392830272629
  0
VERTEX
  5
3DB
  8
SignTorch_BUCK_MULE_DEER_
 10
10.94102907050239
 20
12.21394137529161
 30
0.0
 42
-0.036428000047163
  0
VERTEX
  5
3DC
  8
SignTorch_BUCK_MULE_DEER_
 10
10.9524850247857
 20
12.21957430356638
 30
0.0
 42
-0.0753518993518723
  0
SEQEND
  5
3DD
  8
SignTorch_BUCK_MULE_DEER_
  0
POLYLINE
  5
53
  8
SignTorch_BUCK_MULE_DEER_
 66
     1
 10
0.0
 20
0.0
 30
0.0
 70
     1
  0
VERTEX
  5
3DE
  8
SignTorch_BUCK_MULE_DEER_
 10
11.2537677484809
 20
12.16154684404161
 30
0.0
 42
-0.2926882998909178
  0
VERTEX
  5
3DF
  8
SignTorch_BUCK_MULE_DEER_
 10
11.27894401685887
 20
12.14385188605443
 30
0.0
 42
-0.5058234718113216
  0
VERTEX
  5
3E0
  8
SignTorch_BUCK_MULE_DEER_
 10
11.2509991937934
 20
12.09805685380724
 30
0.0
 42
-0.4162973914018154
  0
VERTEX
  5
3E1
  8
SignTorch_BUCK_MULE_DEER_
 10
11.21800601621939
 20
12.12599610162756
 30
0.0
 42
-0.3953457706967188
  0
VERTEX
  5
3E2
  8
SignTorch_BUCK_MULE_DEER_
 10
11.2459991937934
 20
12.16105685380724
 30
0.0
 42
-0.0202664168451823
  0
VERTEX
  5
3E3
  8
SignTorch_BUCK_MULE_DEER_
 10
11.25039366282706
 20
12.16151338962707
 30
0.0
 42
-0.0265438895074183
  0
SEQEND
  5
3E4
  8
SignTorch_BUCK_MULE_DEER_
  0
POLYLINE
  5
54
  8
SignTorch_BUCK_MULE_DEER_
 66
     1
 10
0.0
 20
0.0
 30
0.0
 70
     1
  0
VERTEX
  5
3E5
  8
SignTorch_BUCK_MULE_DEER_
 10
12.48318986762153
 20
12.09256637529161
 30
0.0
 42
-0.2918641742753176
  0
VERTEX
  5
3E6
  8
SignTorch_BUCK_MULE_DEER_
 10
12.51600831303232
 20
12.07933125885725
 30
0.0
 42
-0.252692284406308
  0
VERTEX
  5
3E7
  8
SignTorch_BUCK_MULE_DEER_
 10
12.5209835687934
 20
12.03957247880724
 30
0.0
 42
-0.4586001193615799
  0
VERTEX
  5
3E8
  8
SignTorch_BUCK_MULE_DEER_
 10
12.47098504325538
 20
12.02186939867392
 30
0.0
 42
-0.4264249550293553
  0
VERTEX
  5
3E9
  8
SignTorch_BUCK_MULE_DEER_
 10
12.45747600043403
 20
12.07590646318224
 30
0.0
 42
-0.1091105293997626
  0
VERTEX
  5
3EA
  8
SignTorch_BUCK_MULE_DEER_
 10
12.467882583716
 20
12.08645676624135
 30
0.0
 42
-0.09787971662979
  0
SEQEND
  5
3EB
  8
SignTorch_BUCK_MULE_DEER_
  0
POLYLINE
  5
55
  8
SignTorch_BUCK_MULE_DEER_
 66
     1
 10
0.0
 20
0.0
 30
0.0
 70
     1
  0
VERTEX
  5
3EC
  8
SignTorch_BUCK_MULE_DEER_
 10
12.74945695746528
 20
11.85233200029161
 30
0.0
 42
-0.3546439846237993
  0
VERTEX
  5
3ED
  8
SignTorch_BUCK_MULE_DEER_
 10
12.7644217824689
 20
11.84048237841282
 30
0.0
 42
-0.1059511465672472
  0
VERTEX
  5
3EE
  8
SignTorch_BUCK_MULE_DEER_
 10
12.7646241937934
 20
11.81618185380724
 30
0.0
 42
-0.1271977412579744
  0
VERTEX
  5
3EF
  8
SignTorch_BUCK_MULE_DEER_
 10
12.74200509955625
 20
11.77004453796421
 30
0.0
 42
-0.2780592361581656
  0
VERTEX
  5
3F0
  8
SignTorch_BUCK_MULE_DEER_
 10
12.7183468500434
 20
11.76221701005724
 30
0.0
 42
-0.3237113703166014
  0
VERTEX
  5
3F1
  8
SignTorch_BUCK_MULE_DEER_
 10
12.70612933316741
 20
11.77609734120801
 30
0.0
 42
-0.1960364431730481
  0
VERTEX
  5
3F2
  8
SignTorch_BUCK_MULE_DEER_
 10
12.72463640082465
 20
11.83777218583849
 30
0.0
 42
-0.0906463594654498
  0
VERTEX
  5
3F3
  8
SignTorch_BUCK_MULE_DEER_
 10
12.73775582776196
 20
11.84907860773338
 30
0.0
 42
-0.1303912490326566
  0
SEQEND
  5
3F4
  8
SignTorch_BUCK_MULE_DEER_
  0
POLYLINE
  5
56
  8
SignTorch_BUCK_MULE_DEER_
 66
     1
 10
0.0
 20
0.0
 30
0.0
 70
     1
  0
VERTEX
  5
3F5
  8
SignTorch_BUCK_MULE_DEER_
 10
11.08856263983832
 20
11.81246951249864
 30
0.0
 42
-0.3845546304097019
  0
VERTEX
  5
3F6
  8
SignTorch_BUCK_MULE_DEER_
 10
11.10229714813948
 20
11.80378791651301
 30
0.0
 42
-0.0666656495837098
  0
VERTEX
  5
3F7
  8
SignTorch_BUCK_MULE_DEER_
 10
11.10596086371527
 20
11.77773898271349
 30
0.0
 42
-0.040388127715681
  0
VERTEX
  5
3F8
  8
SignTorch_BUCK_MULE_DEER_
 10
11.10325142052056
 20
11.74125893996957
 30
0.0
 42
-0.015677069942837
  0
VERTEX
  5
3F9
  8
SignTorch_BUCK_MULE_DEER_
 10
11.0858273187934
 20
11.64877560380724
 30
0.0
 42
0.0090257912188782
  0
VERTEX
  5
3FA
  8
SignTorch_BUCK_MULE_DEER_
 10
11.07276348961944
 20
11.58417054092953
 30
0.0
 42
0.1062236098185212
  0
VERTEX
  5
3FB
  8
SignTorch_BUCK_MULE_DEER_
 10
11.07369807685004
 20
11.5532173457506
 30
0.0
 42
0.3005024098044367
  0
VERTEX
  5
3FC
  8
SignTorch_BUCK_MULE_DEER_
 10
11.10653078446891
 20
11.52292824947288
 30
0.0
 42
-0.118965038957928
  0
VERTEX
  5
3FD
  8
SignTorch_BUCK_MULE_DEER_
 10
11.1288370844184
 20
11.51354708818224
 30
0.0
 42
-0.2124283984310303
  0
VERTEX
  5
3FE
  8
SignTorch_BUCK_MULE_DEER_
 10
11.13578988618554
 20
11.50132568405524
 30
0.0
 42
-0.0967835259600954
  0
VERTEX
  5
3FF
  8
SignTorch_BUCK_MULE_DEER_
 10
11.1329816156684
 20
11.47165255693224
 30
0.0
 42
-0.0598908308269838
  0
VERTEX
  5
400
  8
SignTorch_BUCK_MULE_DEER_
 10
11.11060295287658
 20
11.41973308182122
 30
0.0
 42
0.0223499939082003
  0
VERTEX
  5
401
  8
SignTorch_BUCK_MULE_DEER_
 10
11.0843995844184
 20
11.36963497880724
 30
0.0
 42
0.0823587479704278
  0
VERTEX
  5
402
  8
SignTorch_BUCK_MULE_DEER_
 10
11.07403007256612
 20
11.33258136019563
 30
0.0
 42
-0.0007691067168649
  0
VERTEX
  5
403
  8
SignTorch_BUCK_MULE_DEER_
 10
11.0689991937934
 20
11.28705685380724
 30
0.0
 42
-0.0873611560705708
  0
VERTEX
  5
404
  8
SignTorch_BUCK_MULE_DEER_
 10
11.05597342762066
 20
11.24274130062674
 30
0.0
 42
-0.2434873244948363
  0
VERTEX
  5
405
  8
SignTorch_BUCK_MULE_DEER_
 10
11.04192619574653
 20
11.23243551591661
 30
0.0
 42
-0.2586434988153792
  0
VERTEX
  5
406
  8
SignTorch_BUCK_MULE_DEER_
 10
11.02842189723064
 20
11.23737901270859
 30
0.0
 42
-0.114071207394402
  0
VERTEX
  5
407
  8
SignTorch_BUCK_MULE_DEER_
 10
11.0139464594184
 20
11.26474630693224
 30
0.0
 42
-0.0527918945161596
  0
VERTEX
  5
408
  8
SignTorch_BUCK_MULE_DEER_
 10
11.00615841324349
 20
11.31495801581075
 30
0.0
 42
-0.0284236976245464
  0
VERTEX
  5
409
  8
SignTorch_BUCK_MULE_DEER_
 10
11.0079991937934
 20
11.53305685380724
 30
0.0
 42
-0.0430919076368077
  0
VERTEX
  5
40A
  8
SignTorch_BUCK_MULE_DEER_
 10
11.03746087475264
 20
11.72615943644162
 30
0.0
 42
-0.058826432358815
  0
VERTEX
  5
40B
  8
SignTorch_BUCK_MULE_DEER_
 10
11.0575616937934
 20
11.78037423661974
 30
0.0
 42
-0.074006704556421
  0
VERTEX
  5
40C
  8
SignTorch_BUCK_MULE_DEER_
 10
11.07558461863677
 20
11.80560299637246
 30
0.0
 42
-0.159376169190734
  0
SEQEND
  5
40D
  8
SignTorch_BUCK_MULE_DEER_
  0
POLYLINE
  5
57
  8
SignTorch_BUCK_MULE_DEER_
 66
     1
 10
0.0
 20
0.0
 30
0.0
 70
     1
  0
VERTEX
  5
40E
  8
SignTorch_BUCK_MULE_DEER_
 10
11.7672980219184
 20
11.81672286943224
 30
0.0
 42
-0.3353079117746159
  0
VERTEX
  5
40F
  8
SignTorch_BUCK_MULE_DEER_
 10
11.81985003467432
 20
11.77913287464067
 30
0.0
 42
-0.0975235040586436
  0
VERTEX
  5
410
  8
SignTorch_BUCK_MULE_DEER_
 10
11.8248917719184
 20
11.73280294755724
 30
0.0
 42
-0.0456282639072884
  0
VERTEX
  5
411
  8
SignTorch_BUCK_MULE_DEER_
 10
11.81796653497603
 20
11.6941379597415
 30
0.0
 42
-0.0038049468272962
  0
VERTEX
  5
412
  8
SignTorch_BUCK_MULE_DEER_
 10
11.7949991937934
 20
11.61305685380724
 30
0.0
 42
-0.0363570456881155
  0
VERTEX
  5
413
  8
SignTorch_BUCK_MULE_DEER_
 10
11.77629946557146
 20
11.56281746236754
 30
0.0
 42
-0.2079066079394664
  0
VERTEX
  5
414
  8
SignTorch_BUCK_MULE_DEER_
 10
11.7291417719184
 20
11.52046066240099
 30
0.0
 42
-0.0422361262552896
  0
VERTEX
  5
415
  8
SignTorch_BUCK_MULE_DEER_
 10
11.69787293717114
 20
11.51289403855292
 30
0.0
 42
0.0867469331066853
  0
VERTEX
  5
416
  8
SignTorch_BUCK_MULE_DEER_
 10
11.5760636469184
 20
11.47170675615099
 30
0.0
 42
0.0646918264462727
  0
VERTEX
  5
417
  8
SignTorch_BUCK_MULE_DEER_
 10
11.48898012535649
 20
11.4084360279321
 30
0.0
 42
0.152270686697328
  0
VERTEX
  5
418
  8
SignTorch_BUCK_MULE_DEER_
 10
11.4398937250434
 20
11.32089669755724
 30
0.0
 42
0.0453266031139254
  0
VERTEX
  5
419
  8
SignTorch_BUCK_MULE_DEER_
 10
11.43356651062786
 20
11.26763328342953
 30
0.0
 42
-0.0101185581749951
  0
VERTEX
  5
41A
  8
SignTorch_BUCK_MULE_DEER_
 10
11.4309991937934
 20
11.21405685380724
 30
0.0
 42
-0.0981676183180384
  0
VERTEX
  5
41B
  8
SignTorch_BUCK_MULE_DEER_
 10
11.42362229797101
 20
11.18674748785118
 30
0.0
 42
-0.448294271445415
  0
VERTEX
  5
41C
  8
SignTorch_BUCK_MULE_DEER_
 10
11.4047491937934
 20
11.18155685380724
 30
0.0
 42
-0.1918790826471398
  0
VERTEX
  5
41D
  8
SignTorch_BUCK_MULE_DEER_
 10
11.39270645674628
 20
11.19852694390331
 30
0.0
 42
-0.090562697920041
  0
VERTEX
  5
41E
  8
SignTorch_BUCK_MULE_DEER_
 10
11.3889991937934
 20
11.26305685380724
 30
0.0
 42
-0.0824734886046914
  0
VERTEX
  5
41F
  8
SignTorch_BUCK_MULE_DEER_
 10
11.42859609833097
 20
11.39681204778459
 30
0.0
 42
-0.0324200753156356
  0
VERTEX
  5
420
  8
SignTorch_BUCK_MULE_DEER_
 10
11.5064210687934
 20
11.53361935380724
 30
0.0
 42
-0.0058579556858508
  0
VERTEX
  5
421
  8
SignTorch_BUCK_MULE_DEER_
 10
11.62960216075606
 20
11.71611164907896
 30
0.0
 42
-0.0300454346104455
  0
VERTEX
  5
422
  8
SignTorch_BUCK_MULE_DEER_
 10
11.6561320062934
 20
11.74990719560411
 30
0.0
 42
-0.0761474166995634
  0
VERTEX
  5
423
  8
SignTorch_BUCK_MULE_DEER_
 10
11.71994688405177
 20
11.80291888037415
 30
0.0
 42
-0.1294785120761626
  0
SEQEND
  5
424
  8
SignTorch_BUCK_MULE_DEER_
  0
POLYLINE
  5
58
  8
SignTorch_BUCK_MULE_DEER_
 66
     1
 10
0.0
 20
0.0
 30
0.0
 70
     1
  0
VERTEX
  5
425
  8
SignTorch_BUCK_MULE_DEER_
 10
11.96001140082465
 20
11.80446408036974
 30
0.0
 42
-0.2059569224047953
  0
VERTEX
  5
426
  8
SignTorch_BUCK_MULE_DEER_
 10
12.00088437353752
 20
11.79004209114792
 30
0.0
 42
-0.0630796704649291
  0
VERTEX
  5
427
  8
SignTorch_BUCK_MULE_DEER_
 10
12.0367804437934
 20
11.74736935380724
 30
0.0
 42
-0.0118312101725297
  0
VERTEX
  5
428
  8
SignTorch_BUCK_MULE_DEER_
 10
12.06037205260602
 20
11.7088650632817
 30
0.0
 42
-0.0034364741093904
  0
VERTEX
  5
429
  8
SignTorch_BUCK_MULE_DEER_
 10
12.1374991937934
 20
11.57390060380724
 30
0.0
 42
-0.0247580360168517
  0
VERTEX
  5
42A
  8
SignTorch_BUCK_MULE_DEER_
 10
12.19606627580506
 20
11.4565157185226
 30
0.0
 42
-0.0754401506430099
  0
VERTEX
  5
42B
  8
SignTorch_BUCK_MULE_DEER_
 10
12.2460001703559
 20
11.27082296708849
 30
0.0
 42
-0.052287949533407
  0
VERTEX
  5
42C
  8
SignTorch_BUCK_MULE_DEER_
 10
12.24723906840035
 20
11.10815761651144
 30
0.0
 42
-0.0932897873607325
  0
VERTEX
  5
42D
  8
SignTorch_BUCK_MULE_DEER_
 10
12.2362394281684
 20
11.07031954911974
 30
0.0
 42
-0.1041892342250076
  0
VERTEX
  5
42E
  8
SignTorch_BUCK_MULE_DEER_
 10
12.22465613351814
 20
11.05589478141893
 30
0.0
 42
-0.2944193557663323
  0
VERTEX
  5
42F
  8
SignTorch_BUCK_MULE_DEER_
 10
12.1971241937934
 20
11.05274435380724
 30
0.0
 42
-0.1471058758307961
  0
VERTEX
  5
430
  8
SignTorch_BUCK_MULE_DEER_
 10
12.17385650040809
 20
11.0744570898759
 30
0.0
 42
-0.1969969349299483
  0
VERTEX
  5
431
  8
SignTorch_BUCK_MULE_DEER_
 10
12.1642335687934
 20
11.14332833818224
 30
0.0
 42
-0.0450229100944892
  0
VERTEX
  5
432
  8
SignTorch_BUCK_MULE_DEER_
 10
12.17585902872241
 20
11.17617497480614
 30
0.0
 42
0.1320819171839163
  0
VERTEX
  5
433
  8
SignTorch_BUCK_MULE_DEER_
 10
12.1866320062934
 20
11.23988302568224
 30
0.0
 42
0.1107397869952751
  0
VERTEX
  5
434
  8
SignTorch_BUCK_MULE_DEER_
 10
12.16568647701712
 20
11.30400823200729
 30
0.0
 42
0.0610851481180455
  0
VERTEX
  5
435
  8
SignTorch_BUCK_MULE_DEER_
 10
12.0914991937934
 20
11.39993185380724
 30
0.0
 42
0.0277201822281405
  0
VERTEX
  5
436
  8
SignTorch_BUCK_MULE_DEER_
 10
12.02405842018781
 20
11.46090094011124
 30
0.0
 42
-0.0072440855356835
  0
VERTEX
  5
437
  8
SignTorch_BUCK_MULE_DEER_
 10
11.9541788812934
 20
11.51905880693224
 30
0.0
 42
-0.0373405888917387
  0
VERTEX
  5
438
  8
SignTorch_BUCK_MULE_DEER_
 10
11.93124627364714
 20
11.54189256315418
 30
0.0
 42
-0.0801895529569799
  0
VERTEX
  5
439
  8
SignTorch_BUCK_MULE_DEER_
 10
11.9145226312934
 20
11.56899435380724
 30
0.0
 42
-0.0668246058094419
  0
VERTEX
  5
43A
  8
SignTorch_BUCK_MULE_DEER_
 10
11.89805098124014
 20
11.63106585323645
 30
0.0
 42
-0.0562358726381451
  0
VERTEX
  5
43B
  8
SignTorch_BUCK_MULE_DEER_
 10
11.8970157953559
 20
11.70727169755724
 30
0.0
 42
-0.0844502726329707
  0
VERTEX
  5
43C
  8
SignTorch_BUCK_MULE_DEER_
 10
11.91521990895935
 20
11.77375320657664
 30
0.0
 42
-0.2735315239831221
  0
SEQEND
  5
43D
  8
SignTorch_BUCK_MULE_DEER_
  0
POLYLINE
  5
59
  8
SignTorch_BUCK_MULE_DEER_
 66
     1
 10
0.0
 20
0.0
 30
0.0
 70
     1
  0
VERTEX
  5
43E
  8
SignTorch_BUCK_MULE_DEER_
 10
11.35097819769965
 20
11.76847775224474
 30
0.0
 42
-0.2163272655294568
  0
VERTEX
  5
43F
  8
SignTorch_BUCK_MULE_DEER_
 10
11.36977797194906
 20
11.758909196752
 30
0.0
 42
-0.089572440856725
  0
VERTEX
  5
440
  8
SignTorch_BUCK_MULE_DEER_
 10
11.3930929437934
 20
11.71574435380724
 30
0.0
 42
-0.0510406835193355
  0
VERTEX
  5
441
  8
SignTorch_BUCK_MULE_DEER_
 10
11.41618116167794
 20
11.60980319701706
 30
0.0
 42
-0.1485560104673773
  0
VERTEX
  5
442
  8
SignTorch_BUCK_MULE_DEER_
 10
11.3999991937934
 20
11.52205685380724
 30
0.0
 42
0.0041214452208039
  0
VERTEX
  5
443
  8
SignTorch_BUCK_MULE_DEER_
 10
11.33984418328167
 20
11.40336338621306
 30
0.0
 42
0.0421276753113795
  0
VERTEX
  5
444
  8
SignTorch_BUCK_MULE_DEER_
 10
11.2889991937934
 20
11.27480880693224
 30
0.0
 42
0.0456750655105915
  0
VERTEX
  5
445
  8
SignTorch_BUCK_MULE_DEER_
 10
11.2774251226072
 20
11.21804452731816
 30
0.0
 42
0.0467768989281111
  0
VERTEX
  5
446
  8
SignTorch_BUCK_MULE_DEER_
 10
11.2764991937934
 20
11.16147872880724
 30
0.0
 42
0.0078297893432721
  0
VERTEX
  5
447
  8
SignTorch_BUCK_MULE_DEER_
 10
11.28238604193191
 20
11.09820951497184
 30
0.0
 42
-0.1253610452679737
  0
VERTEX
  5
448
  8
SignTorch_BUCK_MULE_DEER_
 10
11.2757648187934
 20
11.05155685380724
 30
0.0
 42
-0.1227010452800982
  0
VERTEX
  5
449
  8
SignTorch_BUCK_MULE_DEER_
 10
11.26156644386658
 20
11.03226987080683
 30
0.0
 42
-0.2962294970173805
  0
VERTEX
  5
44A
  8
SignTorch_BUCK_MULE_DEER_
 10
11.2394308344184
 20
11.02968966630724
 30
0.0
 42
-0.1727671554278322
  0
VERTEX
  5
44B
  8
SignTorch_BUCK_MULE_DEER_
 10
11.22289474046318
 20
11.04678773019942
 30
0.0
 42
-0.0709196858431186
  0
VERTEX
  5
44C
  8
SignTorch_BUCK_MULE_DEER_
 10
11.2069991937934
 20
11.10105685380724
 30
0.0
 42
-0.0517448132663699
  0
VERTEX
  5
44D
  8
SignTorch_BUCK_MULE_DEER_
 10
11.2032015769847
 20
11.19610668434915
 30
0.0
 42
-0.0636185097084952
  0
VERTEX
  5
44E
  8
SignTorch_BUCK_MULE_DEER_
 10
11.2178741937934
 20
11.27218185380724
 30
0.0
 42
-0.0377372004020517
  0
VERTEX
  5
44F
  8
SignTorch_BUCK_MULE_DEER_
 10
11.25793766014549
 20
11.36881183471363
 30
0.0
 42
0.0311522150414213
  0
VERTEX
  5
450
  8
SignTorch_BUCK_MULE_DEER_
 10
11.2992687250434
 20
11.46490646318224
 30
0.0
 42
0.0457712481397021
  0
VERTEX
  5
451
  8
SignTorch_BUCK_MULE_DEER_
 10
11.31038516504088
 20
11.50800547560834
 30
0.0
 42
0.1091597988008771
  0
VERTEX
  5
452
  8
SignTorch_BUCK_MULE_DEER_
 10
11.3080656000434
 20
11.54900802568224
 30
0.0
 42
0.038791153506704
  0
VERTEX
  5
453
  8
SignTorch_BUCK_MULE_DEER_
 10
11.28968766789341
 20
11.59911908038459
 30
0.0
 42
-0.1192854153092692
  0
VERTEX
  5
454
  8
SignTorch_BUCK_MULE_DEER_
 10
11.27952311957465
 20
11.65151705888536
 30
0.0
 42
-0.1156896077879478
  0
VERTEX
  5
455
  8
SignTorch_BUCK_MULE_DEER_
 10
11.30099454686395
 20
11.72726985861785
 30
0.0
 42
-0.0809449558952386
  0
VERTEX
  5
456
  8
SignTorch_BUCK_MULE_DEER_
 10
11.32379558051215
 20
11.75616305497911
 30
0.0
 42
-0.0791128651084523
  0
VERTEX
  5
457
  8
SignTorch_BUCK_MULE_DEER_
 10
11.33894477376027
 20
11.7661593356527
 30
0.0
 42
-0.1180655465597477
  0
SEQEND
  5
458
  8
SignTorch_BUCK_MULE_DEER_
  0
POLYLINE
  5
5A
  8
SignTorch_BUCK_MULE_DEER_
 66
     1
 10
0.0
 20
0.0
 30
0.0
 70
     1
  0
VERTEX
  5
459
  8
SignTorch_BUCK_MULE_DEER_
 10
12.5734220453559
 20
11.73907199052599
 30
0.0
 42
-0.1998203670874569
  0
VERTEX
  5
45A
  8
SignTorch_BUCK_MULE_DEER_
 10
12.59874072655004
 20
11.73550836026878
 30
0.0
 42
-0.0962729855104662
  0
VERTEX
  5
45B
  8
SignTorch_BUCK_MULE_DEER_
 10
12.6372491937934
 20
11.70130685380724
 30
0.0
 42
-0.0662683954504028
  0
VERTEX
  5
45C
  8
SignTorch_BUCK_MULE_DEER_
 10
12.69004158392788
 20
11.60915991492707
 30
0.0
 42
-0.1337934202278195
  0
VERTEX
  5
45D
  8
SignTorch_BUCK_MULE_DEER_
 10
12.7128741937934
 20
11.42280685380724
 30
0.0
 42
-0.1204400288730712
  0
VERTEX
  5
45E
  8
SignTorch_BUCK_MULE_DEER_
 10
12.64535434785636
 20
11.25561442386702
 30
0.0
 42
-0.11115308932898
  0
VERTEX
  5
45F
  8
SignTorch_BUCK_MULE_DEER_
 10
12.5604991937934
 20
11.18030685380724
 30
0.0
 42
-0.0904722689009836
  0
VERTEX
  5
460
  8
SignTorch_BUCK_MULE_DEER_
 10
12.53278291485439
 20
11.17099857661592
 30
0.0
 42
-0.3879430275524403
  0
VERTEX
  5
461
  8
SignTorch_BUCK_MULE_DEER_
 10
12.5158156000434
 20
11.18252169755724
 30
0.0
 42
-0.0999746104059486
  0
VERTEX
  5
462
  8
SignTorch_BUCK_MULE_DEER_
 10
12.51506600369122
 20
11.20406267964458
 30
0.0
 42
-0.0614634547692071
  0
VERTEX
  5
463
  8
SignTorch_BUCK_MULE_DEER_
 10
12.53847062934028
 20
11.28328024247911
 30
0.0
 42
-0.0405277173279083
  0
VERTEX
  5
464
  8
SignTorch_BUCK_MULE_DEER_
 10
12.57062437573876
 20
11.34340896559688
 30
0.0
 42
0.0211002080122704
  0
VERTEX
  5
465
  8
SignTorch_BUCK_MULE_DEER_
 10
12.60508732855903
 20
11.40224459794786
 30
0.0
 42
0.0562547091484174
  0
VERTEX
  5
466
  8
SignTorch_BUCK_MULE_DEER_
 10
12.62680030437675
 20
11.45735900301032
 30
0.0
 42
0.1535829672935826
  0
VERTEX
  5
467
  8
SignTorch_BUCK_MULE_DEER_
 10
12.6229991937934
 20
11.54805685380724
 30
0.0
 42
0.0535994960580911
  0
VERTEX
  5
468
  8
SignTorch_BUCK_MULE_DEER_
 10
12.60153120421401
 20
11.59207494189732
 30
0.0
 42
-0.0530554682758943
  0
VERTEX
  5
469
  8
SignTorch_BUCK_MULE_DEER_
 10
12.5615734125434
 20
11.67377951005724
 30
0.0
 42
-0.0825924954917908
  0
VERTEX
  5
46A
  8
SignTorch_BUCK_MULE_DEER_
 10
12.5535846397702
 20
11.71669885462527
 30
0.0
 42
-0.217760374460344
  0
VERTEX
  5
46B
  8
SignTorch_BUCK_MULE_DEER_
 10
12.56044481146918
 20
11.73249966386583
 30
0.0
 42
-0.0659872723992203
  0
VERTEX
  5
46C
  8
SignTorch_BUCK_MULE_DEER_
 10
12.56586620564317
 20
11.73621324261904
 30
0.0
 42
-0.0535966016396301
  0
SEQEND
  5
46D
  8
SignTorch_BUCK_MULE_DEER_
  0
POLYLINE
  5
5B
  8
SignTorch_BUCK_MULE_DEER_
 66
     1
 10
0.0
 20
0.0
 30
0.0
 70
     1
  0
VERTEX
  5
46E
  8
SignTorch_BUCK_MULE_DEER_
 10
12.27551628363715
 20
11.71221066240099
 30
0.0
 42
-0.2148159268073917
  0
VERTEX
  5
46F
  8
SignTorch_BUCK_MULE_DEER_
 10
12.30908242518415
 20
11.7023307904603
 30
0.0
 42
-0.0620474901893986
  0
VERTEX
  5
470
  8
SignTorch_BUCK_MULE_DEER_
 10
12.3402609125434
 20
11.66800607255724
 30
0.0
 42
-0.0195031600585512
  0
VERTEX
  5
471
  8
SignTorch_BUCK_MULE_DEER_
 10
12.35561883915437
 20
11.64427947356668
 30
0.0
 42
-0.0047437943745933
  0
VERTEX
  5
472
  8
SignTorch_BUCK_MULE_DEER_
 10
12.4139366937934
 20
11.54382247880724
 30
0.0
 42
-0.0331614727498095
  0
VERTEX
  5
473
  8
SignTorch_BUCK_MULE_DEER_
 10
12.44997130737431
 20
11.46926148663493
 30
0.0
 42
-0.1082788020618795
  0
VERTEX
  5
474
  8
SignTorch_BUCK_MULE_DEER_
 10
12.4697179437934
 20
11.35295333818224
 30
0.0
 42
-0.0486919715604839
  0
VERTEX
  5
475
  8
SignTorch_BUCK_MULE_DEER_
 10
12.45866646409364
 20
11.2771912813648
 30
0.0
 42
-0.0519017570568305
  0
VERTEX
  5
476
  8
SignTorch_BUCK_MULE_DEER_
 10
12.41662394965278
 20
11.16052047685411
 30
0.0
 42
-0.0699271342986721
  0
VERTEX
  5
477
  8
SignTorch_BUCK_MULE_DEER_
 10
12.37309530039311
 20
11.09539719461139
 30
0.0
 42
-0.1609974211839728
  0
VERTEX
  5
478
  8
SignTorch_BUCK_MULE_DEER_
 10
12.3429991937934
 20
11.07805685380724
 30
0.0
 42
-0.1138232244501422
  0
VERTEX
  5
479
  8
SignTorch_BUCK_MULE_DEER_
 10
12.32987771096669
 20
11.07836154185364
 30
0.0
 42
-0.3120812229501157
  0
VERTEX
  5
47A
  8
SignTorch_BUCK_MULE_DEER_
 10
12.32240577948676
 20
11.08695150712755
 30
0.0
 42
-0.1113634819480702
  0
VERTEX
  5
47B
  8
SignTorch_BUCK_MULE_DEER_
 10
12.32373044541132
 20
11.09884532756846
 30
0.0
 42
-0.0248525632129287
  0
VERTEX
  5
47C
  8
SignTorch_BUCK_MULE_DEER_
 10
12.3435089594184
 20
11.14801779130724
 30
0.0
 42
0.0037201135500046
  0
VERTEX
  5
47D
  8
SignTorch_BUCK_MULE_DEER_
 10
12.38294508202605
 20
11.23522775729516
 30
0.0
 42
0.0630926262745166
  0
VERTEX
  5
47E
  8
SignTorch_BUCK_MULE_DEER_
 10
12.4095148187934
 20
11.32386935380724
 30
0.0
 42
0.1051903465815843
  0
VERTEX
  5
47F
  8
SignTorch_BUCK_MULE_DEER_
 10
12.405547091415
 20
11.41316042567614
 30
0.0
 42
0.1279349924533509
  0
VERTEX
  5
480
  8
SignTorch_BUCK_MULE_DEER_
 10
12.3834777094184
 20
11.45275411943224
 30
0.0
 42
0.441799185499791
  0
VERTEX
  5
481
  8
SignTorch_BUCK_MULE_DEER_
 10
12.36003323237952
 20
11.45218614121338
 30
0.0
 42
-0.0093648399287147
  0
VERTEX
  5
482
  8
SignTorch_BUCK_MULE_DEER_
 10
12.3409991937934
 20
11.43105685380724
 30
0.0
 42
-0.1418565201965349
  0
VERTEX
  5
483
  8
SignTorch_BUCK_MULE_DEER_
 10
12.32473346241205
 20
11.42137384349913
 30
0.0
 42
-0.1790179152186955
  0
VERTEX
  5
484
  8
SignTorch_BUCK_MULE_DEER_
 10
12.30963246405707
 20
11.42287615922716
 30
0.0
 42
-0.1500103702556492
  0
VERTEX
  5
485
  8
SignTorch_BUCK_MULE_DEER_
 10
12.28759316769125
 20
11.44345905570526
 30
0.0
 42
-0.0818893830005732
  0
VERTEX
  5
486
  8
SignTorch_BUCK_MULE_DEER_
 10
12.24371086371528
 20
11.56063180497911
 30
0.0
 42
-0.0777169963410412
  0
VERTEX
  5
487
  8
SignTorch_BUCK_MULE_DEER_
 10
12.23939146665701
 20
11.6690905431275
 30
0.0
 42
-0.1597585688189769
  0
VERTEX
  5
488
  8
SignTorch_BUCK_MULE_DEER_
 10
12.25426213324653
 20
11.70133151201036
 30
0.0
 42
-0.0873986184448446
  0
VERTEX
  5
489
  8
SignTorch_BUCK_MULE_DEER_
 10
12.26375020388648
 20
11.70850620391071
 30
0.0
 42
-0.0842350367551102
  0
SEQEND
  5
48A
  8
SignTorch_BUCK_MULE_DEER_
  0
POLYLINE
  5
5C
  8
SignTorch_BUCK_MULE_DEER_
 66
     1
 10
0.0
 20
0.0
 30
0.0
 70
     1
  0
VERTEX
  5
48B
  8
SignTorch_BUCK_MULE_DEER_
 10
10.91791643012153
 20
11.52111959794786
 30
0.0
 42
-0.2916760524492829
  0
VERTEX
  5
48C
  8
SignTorch_BUCK_MULE_DEER_
 10
10.93418419364393
 20
11.50844545566329
 30
0.0
 42
-0.078823021556864
  0
VERTEX
  5
48D
  8
SignTorch_BUCK_MULE_DEER_
 10
10.9392960687934
 20
11.48097872880724
 30
0.0
 42
-0.0430500919595575
  0
VERTEX
  5
48E
  8
SignTorch_BUCK_MULE_DEER_
 10
10.93627072137855
 20
11.43007379800723
 30
0.0
 42
0.0593138951192532
  0
VERTEX
  5
48F
  8
SignTorch_BUCK_MULE_DEER_
 10
10.93078093207465
 20
11.22619015458849
 30
0.0
 42
0.0503785294973248
  0
VERTEX
  5
490
  8
SignTorch_BUCK_MULE_DEER_
 10
10.94427690179067
 20
11.15685385190321
 30
0.0
 42
0.0739656942251207
  0
VERTEX
  5
491
  8
SignTorch_BUCK_MULE_DEER_
 10
10.9648546625434
 20
11.11320919755724
 30
0.0
 42
0.0129247892398158
  0
VERTEX
  5
492
  8
SignTorch_BUCK_MULE_DEER_
 10
11.00664942688252
 20
11.05392743227913
 30
0.0
 42
-0.1813549261044191
  0
VERTEX
  5
493
  8
SignTorch_BUCK_MULE_DEER_
 10
11.0212491937934
 20
11.00336935380724
 30
0.0
 42
-0.1129063186443272
  0
VERTEX
  5
494
  8
SignTorch_BUCK_MULE_DEER_
 10
11.00949760237488
 20
10.96571944519213
 30
0.0
 42
-0.1481196719084311
  0
VERTEX
  5
495
  8
SignTorch_BUCK_MULE_DEER_
 10
10.9697257562934
 20
10.92872091630724
 30
0.0
 42
-0.2945865877471614
  0
VERTEX
  5
496
  8
SignTorch_BUCK_MULE_DEER_
 10
10.92291655284097
 20
10.93425964173766
 30
0.0
 42
-0.19716027277405
  0
VERTEX
  5
497
  8
SignTorch_BUCK_MULE_DEER_
 10
10.87403508246528
 20
11.02574313310411
 30
0.0
 42
-0.0714003867686597
  0
VERTEX
  5
498
  8
SignTorch_BUCK_MULE_DEER_
 10
10.87539793072439
 20
11.05883485040824
 30
0.0
 42
0.0548510807967717
  0
VERTEX
  5
499
  8
SignTorch_BUCK_MULE_DEER_
 10
10.8852081781684
 20
11.19093576005724
 30
0.0
 42
0.0121336860278149
  0
VERTEX
  5
49A
  8
SignTorch_BUCK_MULE_DEER_
 10
10.8792579357114
 20
11.29043406845729
 30
0.0
 42
-0.0256547968157196
  0
VERTEX
  5
49B
  8
SignTorch_BUCK_MULE_DEER_
 10
10.8759991937934
 20
11.39005685380724
 30
0.0
 42
0.0067913802977043
  0
VERTEX
  5
49C
  8
SignTorch_BUCK_MULE_DEER_
 10
10.87630354381011
 20
11.45072444833876
 30
0.0
 42
-0.092854145708154
  0
VERTEX
  5
49D
  8
SignTorch_BUCK_MULE_DEER_
 10
10.88399406684028
 20
11.49381564286974
 30
0.0
 42
-0.1336088144940083
  0
VERTEX
  5
49E
  8
SignTorch_BUCK_MULE_DEER_
 10
10.89986310374037
 20
11.51569821717803
 30
0.0
 42
-0.1954266451210169
  0
SEQEND
  5
49F
  8
SignTorch_BUCK_MULE_DEER_
  0
POLYLINE
  5
5D
  8
SignTorch_BUCK_MULE_DEER_
 66
     1
 10
0.0
 20
0.0
 30
0.0
 70
     1
  0
VERTEX
  5
4A0
  8
SignTorch_BUCK_MULE_DEER_
 10
11.56640892279731
 20
11.33627664140489
 30
0.0
 42
-0.2182229506088121
  0
VERTEX
  5
4A1
  8
SignTorch_BUCK_MULE_DEER_
 10
11.58290850397061
 20
11.32756650200335
 30
0.0
 42
-0.1107704393100294
  0
VERTEX
  5
4A2
  8
SignTorch_BUCK_MULE_DEER_
 10
11.61651140082465
 20
11.25520187333849
 30
0.0
 42
-0.1019798541874539
  0
VERTEX
  5
4A3
  8
SignTorch_BUCK_MULE_DEER_
 10
11.61703196921759
 20
11.20713214124691
 30
0.0
 42
-0.2626762276421782
  0
VERTEX
  5
4A4
  8
SignTorch_BUCK_MULE_DEER_
 10
11.6042183710395
 20
11.19210855058458
 30
0.0
 42
-0.170362591334342
  0
VERTEX
  5
4A5
  8
SignTorch_BUCK_MULE_DEER_
 10
11.5811077822506
 20
11.1917990706014
 30
0.0
 42
-0.1780751465406564
  0
VERTEX
  5
4A6
  8
SignTorch_BUCK_MULE_DEER_
 10
11.5352941156684
 20
11.22858615068224
 30
0.0
 42
-0.1560236960592116
  0
VERTEX
  5
4A7
  8
SignTorch_BUCK_MULE_DEER_
 10
11.52066525981525
 20
11.29044023193044
 30
0.0
 42
-0.3485574124337543
  0
VERTEX
  5
4A8
  8
SignTorch_BUCK_MULE_DEER_
 10
11.5629991937934
 20
11.33605685380724
 30
0.0
 42
-0.0218927482200749
  0
VERTEX
  5
4A9
  8
SignTorch_BUCK_MULE_DEER_
 10
11.56496806179436
 20
11.33627061780935
 30
0.0
 42
-0.0301037799017955
  0
SEQEND
  5
4AA
  8
SignTorch_BUCK_MULE_DEER_
  0
POLYLINE
  5
5E
  8
SignTorch_BUCK_MULE_DEER_
 66
     1
 10
0.0
 20
0.0
 30
0.0
 70
     1
  0
VERTEX
  5
4AB
  8
SignTorch_BUCK_MULE_DEER_
 10
12.08014909613715
 20
11.28641964677599
 30
0.0
 42
-0.2288753825368058
  0
VERTEX
  5
4AC
  8
SignTorch_BUCK_MULE_DEER_
 10
12.1005212981192
 20
11.27715921954451
 30
0.0
 42
-0.2151285845256919
  0
VERTEX
  5
4AD
  8
SignTorch_BUCK_MULE_DEER_
 10
12.1164171625434
 20
11.21980294755724
 30
0.0
 42
-0.1608962361306245
  0
VERTEX
  5
4AE
  8
SignTorch_BUCK_MULE_DEER_
 10
12.09233077920597
 20
11.17267766494352
 30
0.0
 42
-0.1267483508426324
  0
VERTEX
  5
4AF
  8
SignTorch_BUCK_MULE_DEER_
 10
12.03482252753364
 20
11.13920724443224
 30
0.0
 42
-0.0976211861282241
  0
VERTEX
  5
4B0
  8
SignTorch_BUCK_MULE_DEER_
 10
12.01787445588525
 20
11.13784322383996
 30
0.0
 42
-0.3272923591148608
  0
VERTEX
  5
4B1
  8
SignTorch_BUCK_MULE_DEER_
 10
12.00041115058051
 20
11.15401193193224
 30
0.0
 42
-0.1122767760735861
  0
VERTEX
  5
4B2
  8
SignTorch_BUCK_MULE_DEER_
 10
12.0011799486814
 20
11.17776674550363
 30
0.0
 42
-0.0868425415923594
  0
VERTEX
  5
4B3
  8
SignTorch_BUCK_MULE_DEER_
 10
12.0329210687934
 20
11.24711935380724
 30
0.0
 42
-0.0686808626243513
  0
VERTEX
  5
4B4
  8
SignTorch_BUCK_MULE_DEER_
 10
12.06286625341374
 20
11.27994005257109
 30
0.0
 42
-0.1692576405890703
  0
SEQEND
  5
4B5
  8
SignTorch_BUCK_MULE_DEER_
  0
POLYLINE
  5
5F
  8
SignTorch_BUCK_MULE_DEER_
 66
     1
 10
0.0
 20
0.0
 30
0.0
 70
     1
  0
VERTEX
  5
4B6
  8
SignTorch_BUCK_MULE_DEER_
 10
11.68320378363715
 20
11.09289401201036
 30
0.0
 42
-0.1399558125218555
  0
VERTEX
  5
4B7
  8
SignTorch_BUCK_MULE_DEER_
 10
11.70702092307637
 20
11.09149785565248
 30
0.0
 42
-0.2456821400998809
  0
VERTEX
  5
4B8
  8
SignTorch_BUCK_MULE_DEER_
 10
11.7253937250434
 20
11.07186740068224
 30
0.0
 42
-0.116038039215577
  0
VERTEX
  5
4B9
  8
SignTorch_BUCK_MULE_DEER_
 10
11.72641497189201
 20
11.04599553744579
 30
0.0
 42
-0.1340034844210055
  0
VERTEX
  5
4BA
  8
SignTorch_BUCK_MULE_DEER_
 10
11.69865495551215
 20
10.98968405107286
 30
0.0
 42
-0.1639041466784123
  0
VERTEX
  5
4BB
  8
SignTorch_BUCK_MULE_DEER_
 10
11.65098546648747
 20
10.96229862982865
 30
0.0
 42
-0.0502348911004503
  0
VERTEX
  5
4BC
  8
SignTorch_BUCK_MULE_DEER_
 10
11.58028166449653
 20
10.95547994951036
 30
0.0
 42
-0.0779903039583447
  0
VERTEX
  5
4BD
  8
SignTorch_BUCK_MULE_DEER_
 10
11.52369375274142
 20
10.96460674346263
 30
0.0
 42
-0.2256762491275755
  0
VERTEX
  5
4BE
  8
SignTorch_BUCK_MULE_DEER_
 10
11.50868843329535
 20
10.97885400346544
 30
0.0
 42
-0.1828463542189047
  0
VERTEX
  5
4BF
  8
SignTorch_BUCK_MULE_DEER_
 10
11.50859020461517
 20
10.99610678780811
 30
0.0
 42
-0.1366280448564769
  0
VERTEX
  5
4C0
  8
SignTorch_BUCK_MULE_DEER_
 10
11.5219542719184
 20
11.01452951005724
 30
0.0
 42
-0.0453044976694043
  0
VERTEX
  5
4C1
  8
SignTorch_BUCK_MULE_DEER_
 10
11.5525151958737
 20
11.03459998547334
 30
0.0
 42
-0.0184132536053541
  0
VERTEX
  5
4C2
  8
SignTorch_BUCK_MULE_DEER_
 10
11.6332335687934
 20
11.07396310380724
 30
0.0
 42
-0.0136929147052274
  0
VERTEX
  5
4C3
  8
SignTorch_BUCK_MULE_DEER_
 10
11.66897598866183
 20
11.08863516940167
 30
0.0
 42
-0.0356610934950006
  0
SEQEND
  5
4C4
  8
SignTorch_BUCK_MULE_DEER_
  0
POLYLINE
  5
60
  8
SignTorch_BUCK_MULE_DEER_
 66
     1
 10
0.0
 20
0.0
 30
0.0
 70
     1
  0
VERTEX
  5
4C5
  8
SignTorch_BUCK_MULE_DEER_
 10
11.9371554437934
 20
11.08146310380724
 30
0.0
 42
-0.0826726820652896
  0
VERTEX
  5
4C6
  8
SignTorch_BUCK_MULE_DEER_
 10
11.96593336833548
 20
11.07509937998318
 30
0.0
 42
-0.0596168726230727
  0
VERTEX
  5
4C7
  8
SignTorch_BUCK_MULE_DEER_
 10
12.02318937934028
 20
11.04369430497911
 30
0.0
 42
-0.0901481560634454
  0
VERTEX
  5
4C8
  8
SignTorch_BUCK_MULE_DEER_
 10
12.06108991916285
 20
11.00462388562146
 30
0.0
 42
-0.2215329167598919
  0
VERTEX
  5
4C9
  8
SignTorch_BUCK_MULE_DEER_
 10
12.0646339594184
 20
10.98184786943224
 30
0.0
 42
-0.280912804197066
  0
VERTEX
  5
4CA
  8
SignTorch_BUCK_MULE_DEER_
 10
12.04731618360108
 20
10.96598976374
 30
0.0
 42
-0.1513667980089447
  0
VERTEX
  5
4CB
  8
SignTorch_BUCK_MULE_DEER_
 10
11.9554562250434
 20
10.97583175615099
 30
0.0
 42
-0.1628550308281551
  0
VERTEX
  5
4CC
  8
SignTorch_BUCK_MULE_DEER_
 10
11.90276858479995
 20
11.02298877639143
 30
0.0
 42
-0.2195505245184856
  0
VERTEX
  5
4CD
  8
SignTorch_BUCK_MULE_DEER_
 10
11.8998741937934
 20
11.05671310380724
 30
0.0
 42
-0.1608928245050455
  0
VERTEX
  5
4CE
  8
SignTorch_BUCK_MULE_DEER_
 10
11.91443450329113
 20
11.07525547376426
 30
0.0
 42
-0.1610525443441635
  0
SEQEND
  5
4CF
  8
SignTorch_BUCK_MULE_DEER_
  0
POLYLINE
  5
61
  8
SignTorch_BUCK_MULE_DEER_
 66
     1
 10
0.0
 20
0.0
 30
0.0
 70
     1
  0
VERTEX
  5
4D0
  8
SignTorch_BUCK_MULE_DEER_
 10
12.6134454828559
 20
11.08179586747911
 30
0.0
 42
-0.3293154434282614
  0
VERTEX
  5
4D1
  8
SignTorch_BUCK_MULE_DEER_
 10
12.6369577321697
 20
11.06177224227745
 30
0.0
 42
-0.059212758871132
  0
VERTEX
  5
4D2
  8
SignTorch_BUCK_MULE_DEER_
 10
12.6424757562934
 20
11.01217990068224
 30
0.0
 42
-0.0059864195690634
  0
VERTEX
  5
4D3
  8
SignTorch_BUCK_MULE_DEER_
 10
12.6415792465851
 20
10.96608848242081
 30
0.0
 42
0.0664640344629031
  0
VERTEX
  5
4D4
  8
SignTorch_BUCK_MULE_DEER_
 10
12.6447960687934
 20
10.93444552568224
 30
0.0
 42
0.0567644285770545
  0
VERTEX
  5
4D5
  8
SignTorch_BUCK_MULE_DEER_
 10
12.65186981466759
 20
10.91491253851504
 30
0.0
 42
-0.0742722939299455
  0
VERTEX
  5
4D6
  8
SignTorch_BUCK_MULE_DEER_
 10
12.6637335687934
 20
10.87820333818224
 30
0.0
 42
-0.0403619450844321
  0
VERTEX
  5
4D7
  8
SignTorch_BUCK_MULE_DEER_
 10
12.67195584490671
 20
10.78012040859844
 30
0.0
 42
0.0247737726723583
  0
VERTEX
  5
4D8
  8
SignTorch_BUCK_MULE_DEER_
 10
12.6815460687934
 20
10.59758810380724
 30
0.0
 42
0.0518110891293261
  0
VERTEX
  5
4D9
  8
SignTorch_BUCK_MULE_DEER_
 10
12.73299235582141
 20
10.35084765485638
 30
0.0
 42
0.0766465326576968
  0
VERTEX
  5
4DA
  8
SignTorch_BUCK_MULE_DEER_
 10
12.78097307074653
 20
10.25450949052599
 30
0.0
 42
0.0461396397367155
  0
VERTEX
  5
4DB
  8
SignTorch_BUCK_MULE_DEER_
 10
12.81194791530595
 20
10.21827428974637
 30
0.0
 42
-0.0322264810290929
  0
VERTEX
  5
4DC
  8
SignTorch_BUCK_MULE_DEER_
 10
12.84391740668402
 20
10.18291354326036
 30
0.0
 42
-0.0611386645477439
  0
VERTEX
  5
4DD
  8
SignTorch_BUCK_MULE_DEER_
 10
12.86607610843648
 20
10.14665122687588
 30
0.0
 42
-0.2752868104211315
  0
VERTEX
  5
4DE
  8
SignTorch_BUCK_MULE_DEER_
 10
12.86292375434028
 20
10.11833590654161
 30
0.0
 42
-0.1060162262434845
  0
VERTEX
  5
4DF
  8
SignTorch_BUCK_MULE_DEER_
 10
12.84609838251488
 20
10.10383261390905
 30
0.0
 42
-0.0409843764467259
  0
VERTEX
  5
4E0
  8
SignTorch_BUCK_MULE_DEER_
 10
12.7940870844184
 20
10.08071505693224
 30
0.0
 42
-0.0078175084514791
  0
VERTEX
  5
4E1
  8
SignTorch_BUCK_MULE_DEER_
 10
12.74239471235073
 20
10.06354518183174
 30
0.0
 42
0.0327571382971425
  0
VERTEX
  5
4E2
  8
SignTorch_BUCK_MULE_DEER_
 10
12.6916222406684
 20
10.04382052568224
 30
0.0
 42
0.040788754570851
  0
VERTEX
  5
4E3
  8
SignTorch_BUCK_MULE_DEER_
 10
12.58129400818763
 20
9.981006440675591
 30
0.0
 42
0.0399843835509159
  0
VERTEX
  5
4E4
  8
SignTorch_BUCK_MULE_DEER_
 10
12.3099991937934
 20
9.762056853807238
 30
0.0
 42
-0.0215884460813866
  0
VERTEX
  5
4E5
  8
SignTorch_BUCK_MULE_DEER_
 10
12.25132089484718
 20
9.711028139487368
 30
0.0
 42
-0.0894222528416725
  0
VERTEX
  5
4E6
  8
SignTorch_BUCK_MULE_DEER_
 10
12.2046710687934
 20
9.685890838182239
 30
0.0
 42
-0.0866557392074555
  0
VERTEX
  5
4E7
  8
SignTorch_BUCK_MULE_DEER_
 10
12.18344744538849
 20
9.68283514317191
 30
0.0
 42
-0.3656101078019882
  0
VERTEX
  5
4E8
  8
SignTorch_BUCK_MULE_DEER_
 10
12.1722198969184
 20
9.692901336229113
 30
0.0
 42
-0.1837790543319043
  0
VERTEX
  5
4E9
  8
SignTorch_BUCK_MULE_DEER_
 10
12.17529263697937
 20
9.706348715849256
 30
0.0
 42
-0.0626646017290429
  0
VERTEX
  5
4EA
  8
SignTorch_BUCK_MULE_DEER_
 10
12.2009991937934
 20
9.736056853807238
 30
0.0
 42
-0.000126595121054
  0
VERTEX
  5
4EB
  8
SignTorch_BUCK_MULE_DEER_
 10
12.2803753403744
 20
9.807387814335227
 30
0.0
 42
0.0404910885981877
  0
VERTEX
  5
4EC
  8
SignTorch_BUCK_MULE_DEER_
 10
12.34284211981879
 20
9.87336883500841
 30
0.0
 42
0.0416784255408715
  0
VERTEX
  5
4ED
  8
SignTorch_BUCK_MULE_DEER_
 10
12.36901752463699
 20
9.912143079500408
 30
0.0
 42
0.1937274134081198
  0
VERTEX
  5
4EE
  8
SignTorch_BUCK_MULE_DEER_
 10
12.37650578559028
 20
9.970428191697863
 30
0.0
 42
-0.0119325611263202
  0
VERTEX
  5
4EF
  8
SignTorch_BUCK_MULE_DEER_
 10
12.37080204257668
 20
9.994670953674278
 30
0.0
 42
-0.1248102372458911
  0
VERTEX
  5
4F0
  8
SignTorch_BUCK_MULE_DEER_
 10
12.37186223090278
 20
10.02043502763536
 30
0.0
 42
-0.1142652742231381
  0
VERTEX
  5
4F1
  8
SignTorch_BUCK_MULE_DEER_
 10
12.39565690389326
 20
10.06228329868402
 30
0.0
 42
0.0228685702592453
  0
VERTEX
  5
4F2
  8
SignTorch_BUCK_MULE_DEER_
 10
12.4266261469184
 20
10.09913937333849
 30
0.0
 42
0.0918270956422795
  0
VERTEX
  5
4F3
  8
SignTorch_BUCK_MULE_DEER_
 10
12.44998174546404
 20
10.14512358674791
 30
0.0
 42
0.1091549569333318
  0
VERTEX
  5
4F4
  8
SignTorch_BUCK_MULE_DEER_
 10
12.4529991937934
 20
10.18855685380724
 30
0.0
 42
0.0385846886967184
  0
VERTEX
  5
4F5
  8
SignTorch_BUCK_MULE_DEER_
 10
12.4400437598853
 20
10.24510482372975
 30
0.0
 42
-0.0554565533768616
  0
VERTEX
  5
4F6
  8
SignTorch_BUCK_MULE_DEER_
 10
12.4289991937934
 20
10.30205685380724
 30
0.0
 42
-0.1472790649613503
  0
VERTEX
  5
4F7
  8
SignTorch_BUCK_MULE_DEER_
 10
12.4510513846763
 20
10.40466051475356
 30
0.0
 42
-0.0198031954594754
  0
VERTEX
  5
4F8
  8
SignTorch_BUCK_MULE_DEER_
 10
12.5000734125434
 20
10.48574826005724
 30
0.0
 42
0.0111717175783838
  0
VERTEX
  5
4F9
  8
SignTorch_BUCK_MULE_DEER_
 10
12.54405000704484
 20
10.55573314617572
 30
0.0
 42
0.0861956432387648
  0
VERTEX
  5
4FA
  8
SignTorch_BUCK_MULE_DEER_
 10
12.57659318793403
 20
10.64046212724474
 30
0.0
 42
0.0830756203195336
  0
VERTEX
  5
4FB
  8
SignTorch_BUCK_MULE_DEER_
 10
12.57782477525368
 20
10.68295480253866
 30
0.0
 42
0.1043303877618551
  0
VERTEX
  5
4FC
  8
SignTorch_BUCK_MULE_DEER_
 10
12.5663409906684
 20
10.71493966630724
 30
0.0
 42
0.0496565115814246
  0
VERTEX
  5
4FD
  8
SignTorch_BUCK_MULE_DEER_
 10
12.53953715356008
 20
10.75006377234128
 30
0.0
 42
-0.1279343093705012
  0
VERTEX
  5
4FE
  8
SignTorch_BUCK_MULE_DEER_
 10
12.50049113715278
 20
10.82212008622911
 30
0.0
 42
-0.0688754250618782
  0
VERTEX
  5
4FF
  8
SignTorch_BUCK_MULE_DEER_
 10
12.49311231053265
 20
10.89242666736448
 30
0.0
 42
-0.0630853076703011
  0
VERTEX
  5
500
  8
SignTorch_BUCK_MULE_DEER_
 10
12.50532072699652
 20
10.96857662919786
 30
0.0
 42
-0.109220568281902
  0
VERTEX
  5
501
  8
SignTorch_BUCK_MULE_DEER_
 10
12.55084561612911
 20
11.05140660350324
 30
0.0
 42
-0.1726032439155192
  0
VERTEX
  5
502
  8
SignTorch_BUCK_MULE_DEER_
 10
12.6039991937934
 20
11.08105685380724
 30
0.0
 42
-0.0222327585047262
  0
VERTEX
  5
503
  8
SignTorch_BUCK_MULE_DEER_
 10
12.60987102019551
 20
11.0817799653686
 30
0.0
 42
-0.036829348623844
  0
SEQEND
  5
504
  8
SignTorch_BUCK_MULE_DEER_
  0
POLYLINE
  5
62
  8
SignTorch_BUCK_MULE_DEER_
 66
     1
 10
0.0
 20
0.0
 30
0.0
 70
     1
  0
VERTEX
  5
505
  8
SignTorch_BUCK_MULE_DEER_
 10
11.45356389105902
 20
10.91474362138536
 30
0.0
 42
-0.1849223178695928
  0
VERTEX
  5
506
  8
SignTorch_BUCK_MULE_DEER_
 10
11.48444372466786
 20
10.91849557312828
 30
0.0
 42
-0.0308808873261854
  0
VERTEX
  5
507
  8
SignTorch_BUCK_MULE_DEER_
 10
11.5350460687934
 20
10.90247872880724
 30
0.0
 42
0.0121623956024954
  0
VERTEX
  5
508
  8
SignTorch_BUCK_MULE_DEER_
 10
11.57119075649913
 20
10.88953154621391
 30
0.0
 42
0.0339353533717353
  0
VERTEX
  5
509
  8
SignTorch_BUCK_MULE_DEER_
 10
11.5845304437934
 20
10.88609982255724
 30
0.0
 42
0.0270843398829074
  0
VERTEX
  5
50A
  8
SignTorch_BUCK_MULE_DEER_
 10
11.669954469302
 20
10.87494938458036
 30
0.0
 42
0.0130084460756473
  0
VERTEX
  5
50B
  8
SignTorch_BUCK_MULE_DEER_
 10
11.8489991937934
 20
10.86605685380724
 30
0.0
 42
0.0147338969276557
  0
VERTEX
  5
50C
  8
SignTorch_BUCK_MULE_DEER_
 10
11.92773479288125
 20
10.86651788210512
 30
0.0
 42
0.042119222342353
  0
VERTEX
  5
50D
  8
SignTorch_BUCK_MULE_DEER_
 10
11.9551241937934
 20
10.86980685380724
 30
0.0
 42
0.0175870842288536
  0
VERTEX
  5
50E
  8
SignTorch_BUCK_MULE_DEER_
 10
12.00195676969203
 20
10.88121143840451
 30
0.0
 42
-0.0623489121216191
  0
VERTEX
  5
50F
  8
SignTorch_BUCK_MULE_DEER_
 10
12.0496202875434
 20
10.88839083818224
 30
0.0
 42
-0.1028715675636522
  0
VERTEX
  5
510
  8
SignTorch_BUCK_MULE_DEER_
 10
12.08563842352786
 20
10.88183456100721
 30
0.0
 42
-0.3629125813882315
  0
VERTEX
  5
511
  8
SignTorch_BUCK_MULE_DEER_
 10
12.09882487738715
 20
10.85708004716661
 30
0.0
 42
-0.1180451836121943
  0
VERTEX
  5
512
  8
SignTorch_BUCK_MULE_DEER_
 10
12.08930006451336
 20
10.83694277939772
 30
0.0
 42
-0.0818514619710133
  0
VERTEX
  5
513
  8
SignTorch_BUCK_MULE_DEER_
 10
12.03161314643012
 20
10.78525079301622
 30
0.0
 42
-0.0911626908061408
  0
VERTEX
  5
514
  8
SignTorch_BUCK_MULE_DEER_
 10
11.93808328921622
 20
10.74729788712727
 30
0.0
 42
-0.1154204212353079
  0
VERTEX
  5
515
  8
SignTorch_BUCK_MULE_DEER_
 10
11.70598112738715
 20
10.75337203935411
 30
0.0
 42
-0.0368256084035888
  0
VERTEX
  5
516
  8
SignTorch_BUCK_MULE_DEER_
 10
11.64107473656468
 20
10.77557552459564
 30
0.0
 42
-0.0270743662531794
  0
VERTEX
  5
517
  8
SignTorch_BUCK_MULE_DEER_
 10
11.5062491937934
 20
10.84193185380724
 30
0.0
 42
-0.0557949739691083
  0
VERTEX
  5
518
  8
SignTorch_BUCK_MULE_DEER_
 10
11.44957649564307
 20
10.88264559294175
 30
0.0
 42
-0.1677857100782817
  0
VERTEX
  5
519
  8
SignTorch_BUCK_MULE_DEER_
 10
11.4417374750434
 20
10.89686349443224
 30
0.0
 42
-0.1912235819364004
  0
VERTEX
  5
51A
  8
SignTorch_BUCK_MULE_DEER_
 10
11.44358804070368
 20
10.9056981295819
 30
0.0
 42
-0.1256061136012251
  0
SEQEND
  5
51B
  8
SignTorch_BUCK_MULE_DEER_
  0
POLYLINE
  5
63
  8
SignTorch_BUCK_MULE_DEER_
 66
     1
 10
0.0
 20
0.0
 30
0.0
 70
     1
  0
VERTEX
  5
51C
  8
SignTorch_BUCK_MULE_DEER_
 10
12.36069694769965
 20
10.71513571122911
 30
0.0
 42
-0.0788437665372385
  0
VERTEX
  5
51D
  8
SignTorch_BUCK_MULE_DEER_
 10
12.3916397412558
 20
10.71631240137035
 30
0.0
 42
-0.2771764762420762
  0
VERTEX
  5
51E
  8
SignTorch_BUCK_MULE_DEER_
 10
12.4253624750434
 20
10.69013302568224
 30
0.0
 42
-0.1319052988430759
  0
VERTEX
  5
51F
  8
SignTorch_BUCK_MULE_DEER_
 10
12.42993368339495
 20
10.64781115391036
 30
0.0
 42
-0.0802120916999814
  0
VERTEX
  5
520
  8
SignTorch_BUCK_MULE_DEER_
 10
12.37943229926215
 20
10.49271383622911
 30
0.0
 42
-0.0374121057466117
  0
VERTEX
  5
521
  8
SignTorch_BUCK_MULE_DEER_
 10
12.30262114858824
 20
10.3673346607388
 30
0.0
 42
0.0348509167171624
  0
VERTEX
  5
522
  8
SignTorch_BUCK_MULE_DEER_
 10
12.22516960394965
 20
10.24235006669786
 30
0.0
 42
0.0324059242766515
  0
VERTEX
  5
523
  8
SignTorch_BUCK_MULE_DEER_
 10
12.16873665378519
 20
10.11608549435462
 30
0.0
 42
-0.0089100159132596
  0
VERTEX
  5
524
  8
SignTorch_BUCK_MULE_DEER_
 10
12.11829435980903
 20
9.987310515916615
 30
0.0
 42
-0.030791123698436
  0
VERTEX
  5
525
  8
SignTorch_BUCK_MULE_DEER_
 10
12.05784601491041
 20
9.863037362546716
 30
0.0
 42
-0.1199375856207741
  0
VERTEX
  5
526
  8
SignTorch_BUCK_MULE_DEER_
 10
11.93185774481879
 20
9.728614074266222
 30
0.0
 42
-0.0664409439064804
  0
VERTEX
  5
527
  8
SignTorch_BUCK_MULE_DEER_
 10
11.82679444230769
 20
9.678334035834657
 30
0.0
 42
-0.0514764441775596
  0
VERTEX
  5
528
  8
SignTorch_BUCK_MULE_DEER_
 10
11.6800460687934
 20
9.646931853807239
 30
0.0
 42
-0.0474380052934905
  0
VERTEX
  5
529
  8
SignTorch_BUCK_MULE_DEER_
 10
11.58585008926335
 20
9.645694021426499
 30
0.0
 42
-0.0459623953484712
  0
VERTEX
  5
52A
  8
SignTorch_BUCK_MULE_DEER_
 10
11.4900948969184
 20
9.662478728807237
 30
0.0
 42
-0.011147690214115
  0
VERTEX
  5
52B
  8
SignTorch_BUCK_MULE_DEER_
 10
11.42870944222036
 20
9.680641904176829
 30
0.0
 42
0.0540226362833001
  0
VERTEX
  5
52C
  8
SignTorch_BUCK_MULE_DEER_
 10
11.3659952875434
 20
9.693487517869738
 30
0.0
 42
0.0793123562740823
  0
VERTEX
  5
52D
  8
SignTorch_BUCK_MULE_DEER_
 10
11.2703675480895
 20
9.687339749823458
 30
0.0
 42
-0.0423255711968885
  0
VERTEX
  5
52E
  8
SignTorch_BUCK_MULE_DEER_
 10
11.2192452875434
 20
9.68024533036974
 30
0.0
 42
-0.1660004071606576
  0
VERTEX
  5
52F
  8
SignTorch_BUCK_MULE_DEER_
 10
11.14161567466341
 20
9.702207805352677
 30
0.0
 42
-0.1543318589448567
  0
VERTEX
  5
530
  8
SignTorch_BUCK_MULE_DEER_
 10
11.00508561957465
 20
9.878183074510362
 30
0.0
 42
-0.0458807362161778
  0
VERTEX
  5
531
  8
SignTorch_BUCK_MULE_DEER_
 10
10.98207376375067
 20
9.964031683360037
 30
0.0
 42
-0.0107981632091912
  0
VERTEX
  5
532
  8
SignTorch_BUCK_MULE_DEER_
 10
10.9624874750434
 20
10.09486349443224
 30
0.0
 42
0.0122626398225161
  0
VERTEX
  5
533
  8
SignTorch_BUCK_MULE_DEER_
 10
10.93381936541401
 20
10.28260318481655
 30
0.0
 42
-0.0355442919962398
  0
VERTEX
  5
534
  8
SignTorch_BUCK_MULE_DEER_
 10
10.9231007562934
 20
10.38431344560411
 30
0.0
 42
-0.0532507672701013
  0
VERTEX
  5
535
  8
SignTorch_BUCK_MULE_DEER_
 10
10.92874578195016
 20
10.46207869200273
 30
0.0
 42
-0.1212205101836924
  0
VERTEX
  5
536
  8
SignTorch_BUCK_MULE_DEER_
 10
10.9817804437934
 20
10.58079708818224
 30
0.0
 42
-0.0749963766539937
  0
VERTEX
  5
537
  8
SignTorch_BUCK_MULE_DEER_
 10
11.05410490886684
 20
10.64949553428897
 30
0.0
 42
-0.1265051343840248
  0
VERTEX
  5
538
  8
SignTorch_BUCK_MULE_DEER_
 10
11.1620460687934
 20
10.68991622880724
 30
0.0
 42
-0.0482667926224222
  0
VERTEX
  5
539
  8
SignTorch_BUCK_MULE_DEER_
 10
11.21998309417216
 20
10.69050567461072
 30
0.0
 42
-0.0319649544999479
  0
VERTEX
  5
53A
  8
SignTorch_BUCK_MULE_DEER_
 10
11.3063741937934
 20
10.67743185380724
 30
0.0
 42
-0.0128594265448265
  0
VERTEX
  5
53B
  8
SignTorch_BUCK_MULE_DEER_
 10
11.44373963555463
 20
10.64384260068779
 30
0.0
 42
0.0460636864795997
  0
VERTEX
  5
53C
  8
SignTorch_BUCK_MULE_DEER_
 10
11.58302971137153
 20
10.61943405107286
 30
0.0
 42
0.0273227666973565
  0
VERTEX
  5
53D
  8
SignTorch_BUCK_MULE_DEER_
 10
11.63297584490759
 20
10.6180961833566
 30
0.0
 42
0.0097072030218712
  0
VERTEX
  5
53E
  8
SignTorch_BUCK_MULE_DEER_
 10
11.7733605219184
 20
10.62473654130724
 30
0.0
 42
-0.03802032811638
  0
VERTEX
  5
53F
  8
SignTorch_BUCK_MULE_DEER_
 10
11.84300463070179
 20
10.62408713836374
 30
0.0
 42
-0.0160911588184524
  0
VERTEX
  5
540
  8
SignTorch_BUCK_MULE_DEER_
 10
11.9177120844184
 20
10.61526779130724
 30
0.0
 42
0.0000045469314023
  0
VERTEX
  5
541
  8
SignTorch_BUCK_MULE_DEER_
 10
12.02547355316063
 20
10.599016688903
 30
0.0
 42
0.0809101413584834
  0
VERTEX
  5
542
  8
SignTorch_BUCK_MULE_DEER_
 10
12.1189210687934
 20
10.60011935380724
 30
0.0
 42
0.0847645006292682
  0
VERTEX
  5
543
  8
SignTorch_BUCK_MULE_DEER_
 10
12.18482312071447
 20
10.62360889419316
 30
0.0
 42
0.0195733281158163
  0
VERTEX
  5
544
  8
SignTorch_BUCK_MULE_DEER_
 10
12.2311925531684
 20
10.65208029130724
 30
0.0
 42
-0.0148429960674366
  0
VERTEX
  5
545
  8
SignTorch_BUCK_MULE_DEER_
 10
12.28729785029021
 20
10.68726460876309
 30
0.0
 42
-0.0839618069090735
  0
SEQEND
  5
546
  8
SignTorch_BUCK_MULE_DEER_
  0
POLYLINE
  5
64
  8
SignTorch_BUCK_MULE_DEER_
 66
     1
 10
0.0
 20
0.0
 30
0.0
 70
     1
  0
VERTEX
  5
547
  8
SignTorch_BUCK_MULE_DEER_
 10
10.79638126105414
 20
10.35549723527696
 30
0.0
 42
-0.4534422014004786
  0
VERTEX
  5
548
  8
SignTorch_BUCK_MULE_DEER_
 10
10.8095579298533
 20
10.34884102960127
 30
0.0
 42
-0.0626957378663233
  0
VERTEX
  5
549
  8
SignTorch_BUCK_MULE_DEER_
 10
10.81277543891059
 20
10.3235184016588
 30
0.0
 42
-0.03657579163092
  0
VERTEX
  5
54A
  8
SignTorch_BUCK_MULE_DEER_
 10
10.80993014118685
 20
10.28404841838634
 30
0.0
 42
-0.0159770950662964
  0
VERTEX
  5
54B
  8
SignTorch_BUCK_MULE_DEER_
 10
10.7939932562934
 20
10.19496904130724
 30
0.0
 42
0.0134406226302314
  0
VERTEX
  5
54C
  8
SignTorch_BUCK_MULE_DEER_
 10
10.77859234576872
 20
10.11133459394321
 30
0.0
 42
0.0336885654702039
  0
VERTEX
  5
54D
  8
SignTorch_BUCK_MULE_DEER_
 10
10.7719279047309
 20
10.03568917802599
 30
0.0
 42
0.0570577428149173
  0
VERTEX
  5
54E
  8
SignTorch_BUCK_MULE_DEER_
 10
10.78607935409891
 20
9.884728358085704
 30
0.0
 42
0.043260376516256
  0
VERTEX
  5
54F
  8
SignTorch_BUCK_MULE_DEER_
 10
10.8439366937934
 20
9.693588103807237
 30
0.0
 42
0.0133330249228664
  0
VERTEX
  5
550
  8
SignTorch_BUCK_MULE_DEER_
 10
10.87621800173875
 20
9.618713726590352
 30
0.0
 42
-0.0099895720360295
  0
VERTEX
  5
551
  8
SignTorch_BUCK_MULE_DEER_
 10
10.9089991937934
 20
9.544056853807236
 30
0.0
 42
-0.0976550578413782
  0
VERTEX
  5
552
  8
SignTorch_BUCK_MULE_DEER_
 10
10.91469267044219
 20
9.515835883937271
 30
0.0
 42
-0.0333607355754393
  0
VERTEX
  5
553
  8
SignTorch_BUCK_MULE_DEER_
 10
10.9124991937934
 20
9.480681853807239
 30
0.0
 42
0.0325343138378084
  0
VERTEX
  5
554
  8
SignTorch_BUCK_MULE_DEER_
 10
10.91021728446834
 20
9.445056976637785
 30
0.0
 42
0.1053261120094543
  0
VERTEX
  5
555
  8
SignTorch_BUCK_MULE_DEER_
 10
10.9159991937934
 20
9.418056853807238
 30
0.0
 42
0.0580220720544669
  0
VERTEX
  5
556
  8
SignTorch_BUCK_MULE_DEER_
 10
10.96969064220805
 20
9.327822273356379
 30
0.0
 42
0.0398399609469414
  0
VERTEX
  5
557
  8
SignTorch_BUCK_MULE_DEER_
 10
11.0717491937934
 20
9.214306853807237
 30
0.0
 42
0.0108551240771087
  0
VERTEX
  5
558
  8
SignTorch_BUCK_MULE_DEER_
 10
11.11377259890515
 20
9.176155011628063
 30
0.0
 42
0.0044254750526795
  0
VERTEX
  5
559
  8
SignTorch_BUCK_MULE_DEER_
 10
11.2196515375434
 20
9.085775603807239
 30
0.0
 42
-0.0048236811887184
  0
VERTEX
  5
55A
  8
SignTorch_BUCK_MULE_DEER_
 10
11.24367408424061
 20
9.06523660388094
 30
0.0
 42
0.0122546740572739
  0
VERTEX
  5
55B
  8
SignTorch_BUCK_MULE_DEER_
 10
11.2679991937934
 20
9.045056853807239
 30
0.0
 42
0.0159105619304441
  0
VERTEX
  5
55C
  8
SignTorch_BUCK_MULE_DEER_
 10
11.33686109797099
 20
8.994192204746483
 30
0.0
 42
-0.0684309364181423
  0
VERTEX
  5
55D
  8
SignTorch_BUCK_MULE_DEER_
 10
11.3708898187934
 20
8.963056853807238
 30
0.0
 42
-0.0984348894909736
  0
VERTEX
  5
55E
  8
SignTorch_BUCK_MULE_DEER_
 10
11.38093147517817
 20
8.944538806670176
 30
0.0
 42
-0.2157049829407732
  0
VERTEX
  5
55F
  8
SignTorch_BUCK_MULE_DEER_
 10
11.37837687934028
 20
8.924085174119737
 30
0.0
 42
-0.1062434470176271
  0
VERTEX
  5
560
  8
SignTorch_BUCK_MULE_DEER_
 10
11.35636830383703
 20
8.900968455564241
 30
0.0
 42
0.1933425238497332
  0
VERTEX
  5
561
  8
SignTorch_BUCK_MULE_DEER_
 10
11.3467843500434
 20
8.886672088182237
 30
0.0
 42
0.1755179564206469
  0
VERTEX
  5
562
  8
SignTorch_BUCK_MULE_DEER_
 10
11.34902908788447
 20
8.870615523683757
 30
0.0
 42
0.0729732090091392
  0
VERTEX
  5
563
  8
SignTorch_BUCK_MULE_DEER_
 10
11.3714991937934
 20
8.839931853807238
 30
0.0
 42
0.0468615392040478
  0
VERTEX
  5
564
  8
SignTorch_BUCK_MULE_DEER_
 10
11.41959440853526
 20
8.799473795582767
 30
0.0
 42
-0.1121363590320322
  0
VERTEX
  5
565
  8
SignTorch_BUCK_MULE_DEER_
 10
11.46205363715278
 20
8.753135711229113
 30
0.0
 42
-0.085522241240254
  0
VERTEX
  5
566
  8
SignTorch_BUCK_MULE_DEER_
 10
11.46807524808053
 20
8.736524775171116
 30
0.0
 42
-0.4050899936455634
  0
VERTEX
  5
567
  8
SignTorch_BUCK_MULE_DEER_
 10
11.45577385199653
 20
8.718256316697863
 30
0.0
 42
-0.1474744340126241
  0
VERTEX
  5
568
  8
SignTorch_BUCK_MULE_DEER_
 10
11.43114295954103
 20
8.720341171447982
 30
0.0
 42
-0.0544172705495747
  0
VERTEX
  5
569
  8
SignTorch_BUCK_MULE_DEER_
 10
11.3729991937934
 20
8.751056853807237
 30
0.0
 42
0.0108757607355099
  0
VERTEX
  5
56A
  8
SignTorch_BUCK_MULE_DEER_
 10
11.25126679619718
 20
8.82959707534085
 30
0.0
 42
-0.0319630628155474
  0
VERTEX
  5
56B
  8
SignTorch_BUCK_MULE_DEER_
 10
11.1329523187934
 20
8.913197478807236
 30
0.0
 42
-0.0495492843604726
  0
VERTEX
  5
56C
  8
SignTorch_BUCK_MULE_DEER_
 10
11.04616588457266
 20
8.998719516581767
 30
0.0
 42
-0.0543413336606957
  0
VERTEX
  5
56D
  8
SignTorch_BUCK_MULE_DEER_
 10
10.87504429877387
 20
9.256999358690049
 30
0.0
 42
-0.1028824292256419
  0
VERTEX
  5
56E
  8
SignTorch_BUCK_MULE_DEER_
 10
10.71452051255968
 20
9.8335960483252
 30
0.0
 42
-0.0613504835117987
  0
VERTEX
  5
56F
  8
SignTorch_BUCK_MULE_DEER_
 10
10.7316710687934
 20
10.13916622880724
 30
0.0
 42
-0.0260832009986238
  0
VERTEX
  5
570
  8
SignTorch_BUCK_MULE_DEER_
 10
10.77482174327297
 20
10.32282111229389
 30
0.0
 42
-0.0855230406631036
  0
VERTEX
  5
571
  8
SignTorch_BUCK_MULE_DEER_
 10
10.78681877387153
 20
10.34743307451036
 30
0.0
 42
-0.0615806465534325
  0
VERTEX
  5
572
  8
SignTorch_BUCK_MULE_DEER_
 10
10.79164815720819
 20
10.35264633734237
 30
0.0
 42
-0.0793994220978419
  0
SEQEND
  5
573
  8
SignTorch_BUCK_MULE_DEER_
  0
ENDSEC
  0
EOF
